<svg width="7" height="65" viewBox="0 0 7 65" fill="none" xmlns="http://www.w3.org/2000/svg">
<path d="M3.02893 24.7934C3.02893 24.7934 3.02893 26.5297 5.77696 31.3912C5.77696 31.3912 5.6017 23.6266 9.07179 18.4178L3.02893 24.7934Z" fill="#518940"/>
<path d="M7.10897 60.116C7.05289 59.9701 3.40755 48.9831 5.13207 43.7534C6.53413 39.6281 10.3407 37.5862 12.1423 41.0449L12.1774 41.1143C12.5051 40.8628 12.8811 40.6801 13.2825 40.5774C13.6839 40.4747 14.1022 40.4542 14.5118 40.517C15.325 40.6837 16.2223 41.3018 16.9935 42.8853C18.697 46.337 13.8529 52.8723 7.10897 60.116Z" fill="#8AAF2F"/>
<path d="M13.3692 22.3071C13.3971 22.3862 13.4182 22.4675 13.4323 22.5502C13.7688 24.4879 11.4273 26.6269 9.92713 25.3282C6.06447 21.8279 3.02902 24.7934 3.02902 24.7934C3.02902 24.7934 2.6715 23.5294 4.46613 22.189C4.46613 20.7236 6.67436 19.3763 8.31477 18.7165C11.6517 17.3275 16.7832 17.3275 16.1242 19.2304C15.4652 21.1334 13.3692 22.3071 13.3692 22.3071Z" fill="#8AAF2F"/>
<path d="M13.3692 22.3071C12.7162 21.8738 12.0093 21.526 11.2661 21.2723C10.5251 21.0169 9.75057 20.8695 8.96676 20.8348C8.57552 20.8277 8.18426 20.8486 7.79605 20.8973C7.40959 20.9533 7.02771 21.0369 6.65337 21.1473C5.90853 21.3814 5.20058 21.7181 4.55029 22.1474C5.17778 21.6508 5.89008 21.2697 6.65337 21.0223C7.03181 20.899 7.4216 20.8129 7.81708 20.7653C8.21535 20.726 8.61592 20.7144 9.01584 20.7306C9.80851 20.7839 10.5896 20.9476 11.3362 21.2168C12.0842 21.4864 12.7917 21.8556 13.4393 22.3141L13.3692 22.3071Z" fill="#518940"/>
<path d="M7.41042 41.3713L5.42651 50.4971C5.42651 50.4971 11.8339 52.5807 11.918 52.5807C12.0021 52.5807 15.7877 43.5521 15.7877 43.5521L7.41042 41.3713Z" fill="#21479B"/>
</svg>
