<svg width="46" height="48" viewBox="0 0 46 48" fill="none" xmlns="http://www.w3.org/2000/svg">
<g clip-path="url(#clip0_247_2362)">
<g style="mix-blend-mode:color-burn" opacity="0.2">
<path d="M43.1942 28.8846C42.3593 28.4556 41.4359 28.232 40.4992 28.232C39.5625 28.232 38.639 28.4556 37.8042 28.8846C37.384 29.0962 37.0397 29.4351 36.8197 29.854L28.5746 30.0902C28.2339 29.2701 27.6141 28.6001 26.8272 28.201C25.4091 27.4719 23.8405 27.0919 22.2493 27.0919C20.6581 27.0919 19.0895 27.4719 17.6715 28.201C17.1466 28.4939 16.6861 28.8913 16.3178 29.3693L7.48206 28.1264C7.25945 27.7169 6.92097 27.3837 6.50989 27.1694C5.675 26.7404 4.75156 26.5168 3.81486 26.5168C2.87816 26.5168 1.95472 26.7404 1.11984 27.1694C0.79694 27.2833 0.517116 27.4959 0.319124 27.7776C0.121132 28.0593 0.0147705 28.3962 0.0147705 28.7416C0.0147705 29.0871 0.121132 29.424 0.319124 29.7057C0.517116 29.9874 0.79694 30.1999 1.11984 30.3139C1.95472 30.7428 2.87816 30.9664 3.81486 30.9664C4.75156 30.9664 5.675 30.7428 6.50989 30.3139C6.87348 30.1032 7.17503 29.7986 7.38362 29.4314L15.7517 30.5997C15.7342 31.2318 15.9088 31.8542 16.252 32.383C16.5952 32.9119 17.0906 33.3219 17.6715 33.5578C19.0895 34.2868 20.6581 34.6669 22.2493 34.6669C23.8405 34.6669 25.4091 34.2868 26.8272 33.5578C27.2634 33.3438 27.6514 33.0413 27.9669 32.6693C28.2823 32.2972 28.5185 31.8635 28.6608 31.3952L36.9181 31.1466C37.1402 31.5204 37.4594 31.8256 37.8411 32.029C38.676 32.458 39.5994 32.6816 40.5361 32.6816C41.4728 32.6816 42.3962 32.458 43.2311 32.029C43.5527 31.9113 43.8301 31.6954 44.0249 31.4113C44.2196 31.1273 44.322 30.7891 44.318 30.4436C44.3139 30.0981 44.2036 29.7624 44.0022 29.4831C43.8009 29.2038 43.5185 28.9946 43.1942 28.8846Z" fill="#788ECC"/>
</g>
<g style="mix-blend-mode:color-burn" opacity="0.2">
<path d="M22.9753 44.2093C23.2982 44.3233 23.5781 44.5358 23.7761 44.8175C23.974 45.0992 24.0804 45.4361 24.0804 45.7815C24.0804 46.127 23.974 46.4639 23.7761 46.7456C23.5781 47.0273 23.2982 47.2398 22.9753 47.3538C22.1405 47.7827 21.217 48.0063 20.2803 48.0063C19.3436 48.0063 18.4202 47.7827 17.5853 47.3538C17.2624 47.2398 16.9826 47.0273 16.7846 46.7456C16.5866 46.4639 16.4802 46.127 16.4802 45.7815C16.4802 45.4361 16.5866 45.0992 16.7846 44.8175C16.9826 44.5358 17.2624 44.3233 17.5853 44.2093C18.4202 43.7804 19.3436 43.5568 20.2803 43.5568C21.217 43.5568 22.1405 43.7804 22.9753 44.2093V44.2093Z" fill="#788ECC"/>
</g>
<path d="M22.9877 26.5232C27.0724 26.5232 30.3837 23.1789 30.3837 19.0534C30.3837 14.928 27.0724 11.5837 22.9877 11.5837C18.9031 11.5837 15.5918 14.928 15.5918 19.0534C15.5918 23.1789 18.9031 26.5232 22.9877 26.5232Z" fill="#509DEA"/>
<path d="M24.1691 26.4236C23.1193 26.581 22.0483 26.5079 21.029 26.2094C20.0098 25.9109 19.0662 25.3941 18.2626 24.694C17.459 23.9939 16.8142 23.1271 16.3723 22.1527C15.9303 21.1782 15.7015 20.119 15.7015 19.0471C15.7015 17.9753 15.9303 16.916 16.3723 15.9416C16.8142 14.9671 17.459 14.1003 18.2626 13.4002C19.0662 12.7002 20.0098 12.1833 21.029 11.8848C22.0483 11.5863 23.1193 11.5133 24.1691 11.6706C22.4178 11.9331 20.8182 12.8224 19.6618 14.1764C18.5055 15.5304 17.8693 17.259 17.8693 19.0471C17.8693 20.8352 18.5055 22.5638 19.6618 23.9178C20.8182 25.2718 22.4178 26.1611 24.1691 26.4236Z" fill="#2F63CC"/>
<path d="M25.0182 43.5009C25.0182 44.2383 24.8016 44.9592 24.396 45.5724C23.9903 46.1855 23.4137 46.6635 22.7391 46.9457C22.0645 47.2279 21.3222 47.3017 20.6061 47.1578C19.89 47.014 19.2321 46.6589 18.7158 46.1374C18.1995 45.6159 17.8479 44.9516 17.7055 44.2283C17.563 43.505 17.6361 42.7553 17.9155 42.074C18.195 41.3926 18.6682 40.8103 19.2753 40.4006C19.8824 39.9909 20.5962 39.7722 21.3263 39.7722C22.3055 39.7722 23.2445 40.1651 23.9368 40.8643C24.6292 41.5636 25.0182 42.512 25.0182 43.5009Z" fill="#EF4141"/>
<path d="M9.08187 26.4237C9.08187 27.1612 8.86535 27.8821 8.45969 28.4952C8.05403 29.1084 7.47744 29.5863 6.80285 29.8685C6.12826 30.1507 5.38596 30.2246 4.66982 30.0807C3.95368 29.9368 3.29586 29.5817 2.77955 29.0603C2.26324 28.5388 1.91163 27.8744 1.76918 27.1511C1.62673 26.4278 1.69984 25.6781 1.97927 24.9968C2.25869 24.3155 2.73188 23.7332 3.339 23.3235C3.94611 22.9137 4.65989 22.6951 5.39006 22.6951C6.36919 22.6951 7.30822 23.0879 8.00056 23.7872C8.69291 24.4864 9.08187 25.4348 9.08187 26.4237Z" fill="#EF4141"/>
<path d="M26.6919 3.72864C26.6919 4.46609 26.4753 5.18699 26.0697 5.80016C25.664 6.41333 25.0874 6.89124 24.4128 7.17345C23.7382 7.45566 22.9959 7.5295 22.2798 7.38563C21.5637 7.24176 20.9058 6.88664 20.3895 6.36518C19.8732 5.84372 19.5216 5.17934 19.3792 4.45606C19.2367 3.73277 19.3098 2.98307 19.5893 2.30175C19.8687 1.62043 20.3419 1.0381 20.949 0.628389C21.5561 0.218681 22.2699 0 23 0C23.9792 0 24.9182 0.392838 25.6106 1.09209C26.3029 1.79135 26.6919 2.73974 26.6919 3.72864V3.72864Z" fill="#EF4141"/>
<path d="M46 28.3875C46 29.1249 45.7834 29.8458 45.3778 30.459C44.9721 31.0721 44.3955 31.5501 43.7209 31.8323C43.0464 32.1145 42.3041 32.1883 41.5879 32.0444C40.8718 31.9006 40.2139 31.5455 39.6976 31.024C39.1813 30.5025 38.8297 29.8382 38.6873 29.1149C38.5448 28.3916 38.6179 27.6419 38.8974 26.9606C39.1768 26.2792 39.65 25.6969 40.2571 25.2872C40.8642 24.8775 41.578 24.6588 42.3081 24.6588C43.2873 24.6588 44.2263 25.0517 44.9187 25.7509C45.611 26.4502 46 27.3986 46 28.3875Z" fill="#EF4141"/>
<path d="M21.9047 47.2294C21.7082 47.2484 21.5105 47.2484 21.314 47.2294C20.3349 47.2294 19.3958 46.8366 18.7035 46.1374C18.0112 45.4381 17.6222 44.4897 17.6222 43.5008C17.6222 42.5119 18.0112 41.5635 18.7035 40.8643C19.3958 40.165 20.3349 39.7722 21.314 39.7722C21.5105 39.7532 21.7082 39.7532 21.9047 39.7722C21.0247 39.8988 20.2195 40.3419 19.6369 41.02C19.0544 41.6981 18.7337 42.5658 18.7337 43.4635C18.7337 44.3613 19.0544 45.2289 19.6369 45.907C20.2195 46.5852 21.0247 47.0282 21.9047 47.1549V47.2294Z" fill="#AD2042"/>
<path d="M5.96839 30.115C5.76783 30.134 5.56596 30.134 5.3654 30.115C4.38627 30.115 3.44724 29.7222 2.75489 29.023C2.06254 28.3237 1.67358 27.3753 1.67358 26.3864C1.67358 25.3975 2.06254 24.4491 2.75489 23.7499C3.44724 23.0506 4.38627 22.6578 5.3654 22.6578C5.56596 22.6388 5.76783 22.6388 5.96839 22.6578C5.08838 22.7844 4.28316 23.2275 3.70063 23.9056C3.1181 24.5837 2.79737 25.4514 2.79737 26.3491C2.79737 27.2469 3.1181 28.1145 3.70063 28.7926C4.28316 29.4708 5.08838 29.9138 5.96839 30.0405V30.115Z" fill="#AD2042"/>
<path d="M23.5907 7.45733C23.3901 7.47628 23.1883 7.47628 22.9877 7.45733C22.0086 7.45733 21.0696 7.06449 20.3772 6.36524C19.6849 5.66598 19.2959 4.71759 19.2959 3.72869C19.2959 2.7398 19.6849 1.7914 20.3772 1.09215C21.0696 0.392891 22.0086 5.39872e-05 22.9877 5.39872e-05C23.1883 -0.0188982 23.3901 -0.0188982 23.5907 5.39872e-05C22.7107 0.1267 21.9055 0.569774 21.3229 1.24789C20.7404 1.92601 20.4197 2.79364 20.4197 3.69141C20.4197 4.58917 20.7404 5.4568 21.3229 6.13492C21.9055 6.81304 22.7107 7.25611 23.5907 7.38276V7.45733Z" fill="#AD2042"/>
<path d="M42.8865 32.0787C42.69 32.0972 42.4923 32.0972 42.2958 32.0787C41.811 32.0787 41.3309 31.9823 40.883 31.7949C40.4351 31.6075 40.0281 31.3329 39.6853 30.9866C39.3425 30.6404 39.0706 30.2293 38.885 29.777C38.6995 29.3246 38.604 28.8397 38.604 28.3501C38.604 27.8604 38.6995 27.3756 38.885 26.9232C39.0706 26.4708 39.3425 26.0598 39.6853 25.7135C40.0281 25.3673 40.4351 25.0926 40.883 24.9053C41.3309 24.7179 41.811 24.6214 42.2958 24.6214C42.4925 24.6091 42.6898 24.6091 42.8865 24.6214C41.9972 24.7381 41.1804 25.1777 40.5886 25.8581C39.9967 26.5386 39.6703 27.4133 39.6703 28.319C39.6703 29.2247 39.9967 30.0994 40.5886 30.7799C41.1804 31.4603 41.9972 31.8999 42.8865 32.0166V32.0787Z" fill="#AD2042"/>
<path d="M39.5516 27.7908C39.4998 27.8088 39.4435 27.8088 39.3917 27.7908H39.3794L38.7517 27.4801L29.3868 22.9436C29.473 22.7945 29.5591 22.6453 29.633 22.4962C29.7819 22.2019 29.9134 21.8989 30.0268 21.5889L39.3794 26.1005L40.007 26.4112C40.0863 26.4715 40.1393 26.5607 40.1546 26.6598C40.1615 26.7301 40.1615 26.8008 40.1546 26.8711C40.1604 26.9456 40.1604 27.0204 40.1546 27.0948C40.1271 27.1757 40.0942 27.2546 40.0562 27.331C40.0182 27.4019 39.9728 27.4686 39.9208 27.5298L39.7608 27.679C39.7006 27.7321 39.629 27.7704 39.5516 27.7908V27.7908Z" fill="#ABB4D3"/>
<path d="M22.2125 26.1006H22.4463H22.7047C22.8392 26.1188 22.9713 26.1521 23.0985 26.2H23.2093V26.374L22.2863 39.8095L21.7817 39.6977H21.1295H20.8096L21.7325 26.2621V26.0881C21.7325 26.0881 21.7325 26.0881 21.8187 26.0881H21.9663L22.2125 26.1006Z" fill="#ABB4D3"/>
<path d="M7.91277 26.1005C7.85189 26.1132 7.78907 26.1132 7.72818 26.1005C7.6621 26.0664 7.60016 26.0247 7.54359 25.9762L7.38361 25.7898C7.31138 25.6716 7.26132 25.541 7.23594 25.4045C7.22393 25.3262 7.22393 25.2466 7.23594 25.1683C7.22895 25.0981 7.22895 25.0273 7.23594 24.957C7.27643 24.9122 7.32711 24.8781 7.38361 24.8576L7.48206 24.7954L8.39271 24.4102L15.8502 21.2905C15.8448 21.3443 15.8448 21.3984 15.8502 21.4521C15.9874 21.8804 16.1603 22.2962 16.367 22.695L9.00801 25.7152L8.08506 26.1005H7.91277Z" fill="#ABB4D3"/>
</g>
<defs>
<clipPath id="clip0_247_2362">
<rect width="46" height="48" fill="white"/>
</clipPath>
</defs>
</svg>
