<svg width="20" height="20" viewBox="0 0 20 20" fill="none" xmlns="http://www.w3.org/2000/svg">
<path d="M14.8672 5.44531C14.6177 5.01426 14.2076 4.69964 13.7266 4.57031C13.4891 4.505 13.2409 4.48794 12.9967 4.52015C12.7525 4.55235 12.5172 4.63316 12.3047 4.75781C12.0191 4.92254 11.782 5.15968 11.6172 5.44531L10.3985 3.33594C10.2755 3.12244 10.1116 2.93528 9.91619 2.78516C9.72079 2.63504 9.49772 2.52491 9.25974 2.46106C9.02175 2.39721 8.77351 2.3809 8.52921 2.41305C8.28491 2.4452 8.04935 2.52519 7.83599 2.64844C7.53904 2.81759 7.29545 3.0666 7.13286 3.36719C6.9102 3.10816 6.62101 2.91488 6.29652 2.80821C5.97202 2.70154 5.62456 2.68554 5.29163 2.76194C4.95871 2.83833 4.65298 3.00422 4.40746 3.24169C4.16193 3.47916 3.98594 3.77919 3.89849 4.10938C3.81242 4.42391 3.81242 4.75578 3.89849 5.07031C3.66374 5.10347 3.43798 5.18315 3.23442 5.30469C3.02093 5.4277 2.83377 5.59159 2.68365 5.78699C2.53353 5.98239 2.4234 6.20545 2.35955 6.44344C2.2957 6.68143 2.27938 6.92967 2.31153 7.17397C2.34368 7.41826 2.42367 7.65383 2.54692 7.86719L2.82817 8.35156C2.49901 8.35008 2.1754 8.43638 1.89067 8.60156C1.46107 8.85148 1.1477 9.26112 1.01891 9.74115C0.890116 10.2212 0.956354 10.7327 1.20317 11.1641L4.0938 16.1719C4.67478 17.1731 5.52861 17.9885 6.55559 18.5226C7.58257 19.0568 8.74033 19.2879 9.89368 19.1888C11.047 19.0896 12.1484 18.6645 13.0692 17.9629C13.99 17.2613 14.6922 16.3123 15.0938 15.2266C16.0877 14.2818 16.7364 13.0312 16.9361 11.6745C17.1357 10.3178 16.875 8.93327 16.1954 7.74219L14.8672 5.44531ZM7.86724 4.02344C7.89919 3.90534 7.95433 3.79478 8.02944 3.69821C8.10455 3.60163 8.19814 3.52098 8.30474 3.46094C8.41142 3.39931 8.5292 3.35932 8.65135 3.34324C8.7735 3.32717 8.89762 3.33533 9.01661 3.36725C9.1356 3.39918 9.24714 3.45424 9.34484 3.5293C9.44253 3.60436 9.52448 3.69794 9.58599 3.80469L11.3594 6.86719C11.1502 6.90881 10.9495 6.98541 10.7657 7.09375C10.4767 7.25406 10.2385 7.49226 10.0782 7.78125L8.85943 5.66406C8.67198 5.34695 8.39835 5.08957 8.07036 4.92188L7.96099 4.74219C7.83711 4.52403 7.80347 4.26608 7.86724 4.02344ZM4.80474 4.35156C4.85244 4.17208 4.95238 4.0108 5.09187 3.88819C5.23137 3.76558 5.40414 3.68717 5.58827 3.6629C5.77239 3.63863 5.95958 3.66959 6.12608 3.75186C6.29259 3.83413 6.4309 3.964 6.52349 4.125L6.89067 4.75781C6.61662 4.80851 6.35731 4.91967 6.13162 5.08319C5.90593 5.24672 5.71953 5.4585 5.58599 5.70313C5.42669 5.51372 5.22984 5.35943 5.00786 5.25L4.89849 5.0625C4.77508 4.84703 4.7414 4.59166 4.80474 4.35156ZM11.9532 17.5859C10.7686 18.269 9.36152 18.4544 8.04047 18.1014C6.71943 17.7485 5.5923 16.886 4.9063 15.7031L2.01567 10.6953C1.95412 10.5886 1.91418 10.4708 1.89814 10.3487C1.8821 10.2266 1.89027 10.1025 1.92219 9.9835C1.95411 9.86452 2.00916 9.753 2.08418 9.6553C2.1592 9.55759 2.25273 9.47562 2.35942 9.41406C2.46612 9.35251 2.5839 9.31257 2.70604 9.29653C2.82817 9.28049 2.95227 9.28866 3.07124 9.32058C3.19022 9.3525 3.30174 9.40755 3.39944 9.48257C3.49715 9.55759 3.57912 9.65112 3.64067 9.75781L5.51567 13.0078C5.55684 13.0791 5.61606 13.1383 5.68738 13.1795C5.7587 13.2206 5.83959 13.2422 5.92193 13.2422C6.004 13.2409 6.08449 13.2194 6.1563 13.1797C6.20968 13.1489 6.25646 13.108 6.29399 13.0591C6.33152 13.0103 6.35906 12.9545 6.37502 12.895C6.39098 12.8355 6.39506 12.7734 6.38702 12.7124C6.37899 12.6513 6.35899 12.5924 6.32818 12.5391L3.35942 7.39844C3.2351 7.18295 3.20148 6.9269 3.26594 6.68662C3.33041 6.44634 3.48769 6.24151 3.70317 6.11719C3.91866 5.99287 4.17471 5.95924 4.41499 6.02371C4.65527 6.08817 4.8601 6.24545 4.98442 6.46094L7.95318 11.6016C7.98395 11.6549 8.02494 11.7017 8.07379 11.7392C8.12264 11.7767 8.1784 11.8042 8.23789 11.8202C8.29738 11.8361 8.35943 11.8402 8.42049 11.8322C8.48156 11.8242 8.54045 11.8042 8.5938 11.7734C8.64715 11.7427 8.69391 11.7017 8.73142 11.6528C8.76893 11.604 8.79646 11.5482 8.81242 11.4887C8.82838 11.4292 8.83246 11.3672 8.82444 11.3061C8.81642 11.2451 8.79645 11.1862 8.76567 11.1328L6.42192 7.07031C6.29852 6.85485 6.26484 6.59947 6.32818 6.35938C6.35919 6.23986 6.4139 6.12779 6.48905 6.02982C6.56421 5.93186 6.65827 5.84998 6.76568 5.78906C6.98161 5.66669 7.237 5.63415 7.47672 5.69846C7.71644 5.76278 7.92125 5.91879 8.04693 6.13281L11.3282 11.8203C11.3693 11.8916 11.4286 11.9508 11.4999 11.992C11.5712 12.0331 11.6521 12.0547 11.7344 12.0547C11.8164 12.0525 11.8966 12.0311 11.9688 11.9922C12.075 11.9286 12.1524 11.8263 12.1845 11.7067C12.2166 11.5871 12.2008 11.4598 12.1407 11.3516L10.8907 9.17969C10.8292 9.0736 10.7894 8.95642 10.7734 8.83487C10.7574 8.71332 10.7657 8.58981 10.7976 8.47145C10.8296 8.3531 10.8846 8.24223 10.9596 8.14522C11.0345 8.04822 11.1279 7.96701 11.2344 7.90625C11.3398 7.84343 11.4566 7.80227 11.578 7.78517C11.6995 7.76807 11.8231 7.77537 11.9417 7.80666C12.0603 7.83794 12.1715 7.89258 12.2687 7.96736C12.3659 8.04215 12.4472 8.13558 12.5079 8.24219L13.836 10.5469C14.1751 11.1326 14.3954 11.7794 14.4842 12.4503C14.5731 13.1212 14.5289 13.803 14.354 14.4568C14.1791 15.1105 13.8771 15.7234 13.4651 16.2604C13.0531 16.7973 12.5394 17.2477 11.9532 17.5859ZM15.4688 13.2031C15.4862 12.106 15.2025 11.0252 14.6485 10.0781L13.3204 7.77344C13.1377 7.45724 12.866 7.20183 12.5391 7.03906L12.4297 6.85156C12.3666 6.74567 12.3257 6.62801 12.3096 6.50576C12.2934 6.38352 12.3024 6.25927 12.336 6.14063C12.367 6.02111 12.4217 5.90904 12.4969 5.81107C12.572 5.71311 12.6661 5.63123 12.7735 5.57031C12.9894 5.44794 13.2448 5.4154 13.4845 5.47971C13.7243 5.54403 13.9291 5.70004 14.0547 5.91406L15.3829 8.21094C15.8146 8.96912 16.0487 9.8237 16.0638 10.6961C16.0788 11.5684 15.8742 12.4305 15.4688 13.2031ZM13.0391 1.96875L13.3672 0.757815C13.4103 0.651789 13.4906 0.565163 13.5931 0.514263C13.6955 0.463364 13.8131 0.451707 13.9236 0.481488C14.0341 0.51127 14.1298 0.580434 14.1929 0.675944C14.2559 0.771455 14.2818 0.886715 14.2657 1L13.9454 2.21094C13.9192 2.31066 13.8603 2.39872 13.7781 2.46104C13.696 2.52335 13.5953 2.55633 13.4922 2.55469C13.4525 2.55718 13.4127 2.55187 13.375 2.53906C13.255 2.50782 13.1522 2.43024 13.0892 2.32333C13.0262 2.21643 13.0082 2.08892 13.0391 1.96875ZM15.0782 2.73438L15.7891 1.71094C15.8606 1.60838 15.9699 1.53841 16.093 1.51643C16.216 1.49446 16.3428 1.52227 16.4454 1.59375C16.5479 1.66524 16.6179 1.77454 16.6399 1.89761C16.6618 2.02068 16.634 2.14744 16.5625 2.25L15.8438 3.27344C15.8015 3.33608 15.7445 3.38738 15.6778 3.4228C15.611 3.45822 15.5366 3.47668 15.461 3.47656C15.3636 3.47434 15.2687 3.44454 15.1875 3.39063C15.0873 3.3171 15.0198 3.20734 14.9994 3.08475C14.979 2.96215 15.0072 2.83643 15.0782 2.73438ZM18.2891 4.21094L17.2657 4.92188C17.1862 4.97935 17.0903 5.00951 16.9922 5.00781C16.8931 5.00679 16.7969 4.97438 16.7174 4.91524C16.6379 4.8561 16.5791 4.77328 16.5496 4.67867C16.5201 4.58406 16.5213 4.48254 16.5531 4.38867C16.5849 4.29481 16.6457 4.21344 16.7266 4.15625L17.75 3.4375C17.8526 3.36602 17.9794 3.33821 18.1024 3.36018C18.2255 3.38216 18.3348 3.45213 18.4063 3.55469C18.4778 3.65725 18.5056 3.78401 18.4836 3.90709C18.4616 4.03016 18.3917 4.13946 18.2891 4.21094Z" fill="black"/>
</svg>
