<svg width="44" height="54" viewBox="0 0 44 54" fill="none" xmlns="http://www.w3.org/2000/svg">
<g clip-path="url(#clip0_247_2427)">
<path d="M44 41.3662V41.6661L13.536 54V53.7001L44 41.3662Z" fill="#FFC85A"/>
<path d="M44 41.3663L13.536 53.7002L10.8595 51.5052L12.1435 50.982L12.2265 50.9501L13.4658 50.446L13.5552 50.4141L14.7881 49.91H14.7945L14.8775 49.8781L16.1168 49.3741L16.1998 49.3422L17.4391 48.8381L17.5285 48.8062L18.7677 48.3021L18.8508 48.2638L20.09 47.7661L20.1795 47.7278L21.4123 47.2301L21.5018 47.1919L22.7346 46.6942L22.8241 46.6559L24.0633 46.1582L24.1464 46.1199L25.3856 45.6222L25.4751 45.5839L26.7143 45.0862L26.7974 45.0479L28.0366 44.5502L28.126 44.512L29.3589 44.0079L29.4483 43.976L30.6876 43.4783L30.7706 43.44L32.0099 42.9423L32.0993 42.904L33.3322 42.3999L33.4216 42.368L34.6609 41.864L34.7439 41.8321L35.9832 41.328L36.0726 41.2961L37.3119 40.792L37.3949 40.7601L38.6342 40.256L38.7236 40.2241L39.9565 39.72L40.0459 39.6881L41.3235 39.1649L44 41.3663Z" fill="#FF9C1A"/>
<path d="M13.536 53.7001V54L10.8595 51.805V51.5051L13.536 53.7001Z" fill="#EF4141"/>
<path d="M13.536 53.7001L17.3368 52.1369L21.1376 50.5863L28.752 47.4917L36.3728 44.4226L40.1864 42.8848L44 41.3662L40.1992 42.9231L36.392 44.4736L28.784 47.5683L21.1632 50.6374L17.3496 52.1751L13.536 53.7001Z" fill="white"/>
<path d="M39.3816 37.0082V36.9317L38.9025 35.3748L38.6853 34.4559L38.9408 34.4942L38.9983 34.4304C39.0622 34.7239 39.1197 35.0111 39.1836 35.3046C39.2474 35.8469 39.3049 36.3829 39.3688 36.9253C39.3752 36.9636 39.3752 37.0082 39.3816 37.0082Z" fill="#767A9B"/>
<path d="M38.9664 34.5133L38.6917 34.4559H38.2828L32.8787 8.62036C33.058 8.61856 33.2356 8.58396 33.4025 8.51827C33.5608 8.45758 33.7045 8.36407 33.8241 8.2439L34.0604 8.00781L38.5064 29.1599C38.5064 29.2811 38.5575 29.4087 38.5767 29.53C38.6214 29.7788 38.6533 30.0277 38.6789 30.2829C38.6789 30.4041 38.6789 30.5317 38.7108 30.6594L38.9664 34.5133Z" fill="#ABB4D3"/>
<path d="M32.1824 8.49272L26.9188 30.1106L26.5355 30.4998L31.9397 8.39062C32.0188 8.42871 32.0999 8.46278 32.1824 8.49272Z" fill="#E2E0FC"/>
<path d="M39.3241 34.1177L38.9983 34.4431L38.9408 34.5069L38.7109 30.6785C38.7109 30.5509 38.7109 30.4297 38.6789 30.302C38.6789 30.0532 38.6214 29.798 38.5767 29.5491C38.5767 29.4279 38.532 29.3066 38.5001 29.179L34.0732 7.99506L34.4565 7.60583L38.8897 28.7643C38.8897 28.8919 38.9408 29.0131 38.96 29.1408C39.0066 29.3877 39.0407 29.6369 39.0622 29.8873C39.0792 30.0122 39.0898 30.1378 39.0941 30.2638L39.3241 34.1177Z" fill="#E2E0FC"/>
<path d="M31.9396 8.37155L26.5354 30.4871L26.4716 30.4552L26.1905 30.3021L25.8711 30.1362L26.1074 26.4354C26.1074 26.3205 26.1074 26.2057 26.1074 26.0908C26.1074 25.8611 26.1649 25.6378 26.2097 25.4081L26.2863 25.0763L30.662 7.29321L30.7131 7.3634C30.9714 7.71533 31.2971 8.01247 31.6713 8.23756C31.7581 8.28729 31.8477 8.33203 31.9396 8.37155Z" fill="#ABB4D3"/>
<path d="M26.4907 30.4552L26.3374 31.0933C26.1841 31.5335 26.0244 31.9738 25.8647 32.4205V32.4843C25.8618 32.461 25.8618 32.4374 25.8647 32.4141C25.9286 31.9483 25.9925 31.4825 26.05 31.0167C26.1074 30.7806 26.1585 30.5509 26.216 30.3148L26.4907 30.4552Z" fill="#767A9B"/>
<path d="M33.2172 0.210578L32.917 0.0510599H32.5017L32.1376 0.114867L31.9396 0.261624L31.8757 0.529614L31.9204 0.67637L31.9779 0.7657L32.0738 0.835888L32.2462 0.918837L32.4698 0.957122L32.8084 0.925218L33.0447 0.861411L33.2172 0.695512L33.3066 0.453045L33.2172 0.210578ZM33.0894 0.638086C32.9994 0.698626 32.8967 0.737901 32.7892 0.752939C32.6603 0.775208 32.5285 0.775208 32.3995 0.752939C32.355 0.758826 32.3099 0.758826 32.2654 0.752939C32.2015 0.728664 32.1445 0.689248 32.0993 0.638086C32.0643 0.611706 32.0353 0.578117 32.0143 0.53959C31.9934 0.501062 31.981 0.458493 31.9779 0.414761C31.984 0.349246 32.0135 0.288104 32.061 0.242481C32.0749 0.224358 32.0923 0.209175 32.1121 0.197816C32.1996 0.129188 32.3027 0.0831655 32.4123 0.0638213C32.5412 0.0415517 32.673 0.0415517 32.802 0.0638213H32.9297C32.9924 0.0854402 33.0507 0.117831 33.1022 0.159532C33.1416 0.188743 33.1728 0.227531 33.1929 0.272205C33.2131 0.316879 33.2214 0.365954 33.2172 0.414761C33.2126 0.458804 33.1988 0.501405 33.1768 0.539854C33.1549 0.578302 33.1251 0.611756 33.0894 0.638086Z" fill="#758AC9"/>
<path d="M34.201 8.12267C34.1436 8.21583 34.075 8.30156 33.9965 8.3779C33.8598 8.51355 33.6968 8.61994 33.5175 8.69055C33.3266 8.7671 33.1227 8.8061 32.917 8.8054H32.6295C32.4562 8.78525 32.2851 8.74893 32.1185 8.69693L31.8119 8.5757L31.5053 8.41618C31.0747 8.15781 30.6992 7.81743 30.4001 7.41441C30.3846 7.38792 30.3675 7.36236 30.349 7.33784C30.0703 6.96229 29.8882 6.52405 29.8188 6.0617C29.8125 5.96183 29.8125 5.86167 29.8188 5.7618C29.7975 5.4484 29.8686 5.13563 30.0233 4.86212C30.0808 4.76538 30.1517 4.67729 30.2341 4.60051C30.3704 4.46891 30.5309 4.36491 30.7068 4.29424C30.9894 4.18589 31.2954 4.15291 31.5947 4.19853C31.9907 4.24771 32.3718 4.38038 32.7126 4.58775C33.1471 4.84344 33.5235 5.18679 33.8177 5.5959C34.1286 5.99256 34.3311 6.46307 34.4054 6.96138C34.4718 7.36043 34.3997 7.77018 34.201 8.12267Z" fill="#21479B"/>
<path d="M33.2173 0.414761C33.2127 0.458804 33.1989 0.501405 33.1769 0.539854C33.1549 0.578302 33.1252 0.611756 33.0895 0.638086C32.9995 0.698625 32.8968 0.737901 32.7893 0.752939C32.6604 0.775208 32.5286 0.775208 32.3996 0.752939C32.3551 0.758826 32.31 0.758826 32.2655 0.752939C32.2016 0.728664 32.1446 0.689248 32.0994 0.638086C32.0643 0.611706 32.0354 0.578117 32.0144 0.53959C31.9935 0.501062 31.9811 0.458493 31.978 0.414761C31.9841 0.349246 32.0136 0.288104 32.0611 0.242481C32.075 0.224358 32.0923 0.209175 32.1122 0.197816C32.1997 0.129188 32.3028 0.0831655 32.4124 0.0638213C32.5413 0.0415517 32.6731 0.0415517 32.8021 0.0638213H32.9298C32.9925 0.0854402 33.0508 0.117831 33.1023 0.159532C33.1417 0.188743 33.1729 0.227531 33.193 0.272205C33.2132 0.316879 33.2215 0.365954 33.2173 0.414761Z" fill="#ABB4D3"/>
<path d="M33.4919 0.638062C33.4712 0.761487 33.4023 0.871647 33.3003 0.944336C33.1738 1.03891 33.0234 1.09637 32.8659 1.11023C32.6816 1.13575 32.4946 1.13575 32.3102 1.11023L32.1122 1.06557C32.0291 1.03581 31.9514 0.992707 31.8822 0.937955C31.7931 0.859774 31.7325 0.754317 31.7097 0.638062C31.7097 0.772057 31.7097 3.75823 31.7097 3.89861V3.95603H31.7417H31.78H31.8183H31.863H31.9077H31.9588H32.0419H32.0802H32.1377H32.1952H32.2591H32.323H32.3868H32.917H32.949H33.0192H33.0576H33.0895H33.1278V0.638062H33.4919Z" fill="#ABB4D3"/>
<path d="M33.0895 0.510503C32.9994 0.571043 32.8968 0.610319 32.7893 0.625356C32.6603 0.647626 32.5285 0.647626 32.3996 0.625356C32.3551 0.631244 32.31 0.631244 32.2654 0.625356C32.204 0.608491 32.1473 0.57795 32.0994 0.536026C32.0508 0.494955 32.0134 0.442273 31.9908 0.382889C31.9878 0.401914 31.9878 0.42129 31.9908 0.440315C31.9938 0.484048 32.0062 0.526616 32.0272 0.565144C32.0481 0.603672 32.0771 0.637261 32.1121 0.66364C32.16 0.705565 32.2168 0.736106 32.2782 0.75297C32.3227 0.758858 32.3679 0.758858 32.4124 0.75297C32.5413 0.77524 32.6731 0.77524 32.802 0.75297C32.9051 0.736102 33.0032 0.6969 33.0895 0.638117C33.1251 0.611788 33.1549 0.578334 33.1769 0.539885C33.1989 0.501437 33.2126 0.458835 33.2172 0.414792C33.2204 0.391503 33.2204 0.367894 33.2172 0.344604C33.1901 0.410202 33.146 0.467442 33.0895 0.510503Z" fill="#93A2D6"/>
<path d="M33.4919 0.638077C33.4831 0.699642 33.4615 0.758685 33.4285 0.811425C33.3955 0.864166 33.3518 0.909441 33.3003 0.944351C33.1738 1.03893 33.0233 1.09638 32.8659 1.11025C32.6816 1.13576 32.4945 1.13576 32.3102 1.11025L32.1121 1.06558C32.0291 1.03583 31.9514 0.992722 31.8822 0.93797C31.7958 0.857575 31.7357 0.753074 31.7097 0.638077C31.7066 0.601985 31.7066 0.565696 31.7097 0.529605L31.748 0.421132L31.8183 0.319041L31.8694 0.255234L31.9397 0.185046L32.0036 0.140381C31.987 0.163847 31.9741 0.189657 31.9652 0.216949C31.9622 0.235975 31.9622 0.25535 31.9652 0.274376C31.9622 0.297675 31.9622 0.321264 31.9652 0.344564C31.9622 0.363589 31.9622 0.382965 31.9652 0.40199C31.9694 0.445444 31.9823 0.487609 32.0032 0.525975C32.024 0.564342 32.0524 0.598126 32.0866 0.625315C32.1353 0.666083 32.1918 0.696481 32.2527 0.714645C32.2972 0.720533 32.3423 0.720533 32.3868 0.714645C32.5158 0.736915 32.6476 0.736915 32.7765 0.714645C32.8853 0.713231 32.9924 0.687044 33.0895 0.638077C33.1251 0.611747 33.1549 0.578293 33.1769 0.539845C33.1989 0.501396 33.2126 0.458795 33.2173 0.414752C33.2235 0.391771 33.2235 0.367544 33.2173 0.344564C33.2204 0.325547 33.2204 0.306154 33.2173 0.287137C33.2204 0.263848 33.2204 0.240239 33.2173 0.216949C33.2048 0.1901 33.1898 0.164467 33.1725 0.140381L33.2684 0.210569C33.3012 0.234815 33.3312 0.262636 33.3578 0.293518L33.4217 0.382848C33.4393 0.417831 33.4542 0.454091 33.4664 0.49132C33.4725 0.527223 33.4725 0.56389 33.4664 0.599792L33.4919 0.638077Z" fill="#E2E0FC"/>
<path d="M33.2172 0.41473C33.2126 0.458773 33.1989 0.501375 33.1769 0.539823C33.1549 0.578272 33.1251 0.611725 33.0894 0.638055C32.9994 0.698595 32.8967 0.737871 32.7892 0.752908C32.6603 0.775178 32.5285 0.775178 32.3996 0.752908C32.355 0.758796 32.3099 0.758796 32.2654 0.752908C32.2023 0.727205 32.1456 0.688001 32.0993 0.638055C32.0651 0.610866 32.0368 0.577082 32.0159 0.538715C31.9951 0.500349 31.9822 0.458183 31.978 0.41473C31.975 0.395705 31.975 0.376329 31.978 0.357304C32.0842 0.303131 32.1985 0.266499 32.3165 0.248831C32.5006 0.220116 32.6881 0.220116 32.8723 0.248831C32.9359 0.254384 32.9983 0.26944 33.0575 0.293496C33.1126 0.304024 33.1662 0.321163 33.2172 0.344542C33.2235 0.367523 33.2235 0.39175 33.2172 0.41473Z" fill="#ABB4D3"/>
<path d="M35.402 6.18926C35.4195 6.45983 35.3736 6.73075 35.2678 6.98047C35.1977 7.13671 35.1003 7.2793 34.9804 7.4016L34.0158 8.36508C34.0942 8.28875 34.1628 8.20302 34.2202 8.10986C34.4189 7.75737 34.491 7.34762 34.4246 6.94857C34.3504 6.45026 34.1479 5.97975 33.8369 5.58309C33.5427 5.17398 33.1663 4.83063 32.7318 4.57494C32.5518 4.46855 32.3612 4.38089 32.1633 4.31333C31.9859 4.24904 31.8015 4.2062 31.6139 4.18571C31.3147 4.14009 31.0086 4.17308 30.726 4.28143C30.5501 4.3521 30.3896 4.4561 30.2533 4.5877L31.2243 3.61145L31.3009 3.52212C31.3822 3.463 31.4676 3.40969 31.5564 3.3626L31.697 3.30518V3.94325V4.00067H31.7289H31.7672H31.8056H31.8503H31.895H31.9461H32.0291H32.0675H32.125H32.1824H32.2463H32.3102H32.3741H32.9043H32.9362H33.0065H33.0448H33.0768H33.1151V3.49022C33.6215 3.63211 34.0918 3.88007 34.4949 4.21762C34.7621 4.51131 34.9781 4.8478 35.1337 5.21301C35.2863 5.5177 35.3775 5.84941 35.402 6.18926Z" fill="#4A89E5"/>
<path d="M32.1888 4.28143L32.1441 4.32609C31.9668 4.2618 31.7823 4.21896 31.5948 4.19848C31.2955 4.15286 30.9895 4.18584 30.7068 4.29419C30.531 4.36486 30.3704 4.46886 30.2341 4.60046L31.2051 3.62421L31.3009 3.52212C31.3822 3.463 31.4676 3.40969 31.5564 3.3626L31.697 3.30518V3.94325V4.00067H31.7289H31.7672H31.8056H31.8503H31.895H31.9461H32.0291L32.1888 4.28143Z" fill="#2F63CC"/>
<path d="M32.7126 4.58777C33.0224 4.75973 33.3063 4.97455 33.5559 5.22584C33.8094 5.4806 34.0245 5.77076 34.1946 6.08724C34.3569 6.40491 34.4525 6.7523 34.4757 7.10815C34.4833 7.28586 34.4683 7.46382 34.431 7.63775C34.3924 7.81029 34.3232 7.97453 34.2266 8.12269C34.3881 7.81271 34.4548 7.46209 34.4182 7.11453C34.3866 6.76751 34.289 6.42969 34.1308 6.11914C33.9736 5.80981 33.7736 5.52412 33.5367 5.27051C33.2948 5.00614 33.0175 4.77639 32.7126 4.58777Z" fill="white"/>
<path d="M31.9907 0.344582C32.004 0.30095 32.0282 0.261419 32.061 0.22973C32.0749 0.211606 32.0923 0.196423 32.1121 0.185065C32.2009 0.120992 32.3039 0.0793911 32.4123 0.0638309C32.5413 0.0415614 32.6731 0.0415614 32.802 0.0638309H32.9297C32.9924 0.0854498 33.0508 0.117841 33.1022 0.159542C33.1574 0.209036 33.1973 0.27323 33.2172 0.344582C33.2203 0.325566 33.2203 0.306173 33.2172 0.287156C33.2204 0.263866 33.2204 0.240258 33.2172 0.216968C33.2047 0.190118 33.1897 0.164486 33.1725 0.1404L33.0639 0.0829731L32.9425 0.0446888H32.8212C32.6503 0.0108199 32.4745 0.0108199 32.3037 0.0446888L32.1824 0.0829731H32.1376H32.0738H32.0354C32.0164 0.104868 32.0032 0.131204 31.9971 0.159542C31.9941 0.178567 31.9941 0.197943 31.9971 0.216968C31.9941 0.240268 31.9941 0.263857 31.9971 0.287156L31.9907 0.344582Z" fill="#E2E0FC"/>
<path d="M31.0198 35.4576V36.4977C31.023 36.5189 31.023 36.5404 31.0198 36.5615C31.0071 36.6559 30.9671 36.7446 30.9049 36.8167L30.809 36.9124L21.4443 44.8692C21.3269 44.9704 21.19 45.0464 21.0419 45.0925C20.7432 45.1886 20.4272 45.2191 20.1157 45.1819C19.9602 45.1632 19.8077 45.1246 19.6621 45.067V44.0269C19.8077 44.0846 19.9602 44.1232 20.1157 44.1418C20.4291 44.1708 20.7451 44.1316 21.0419 44.0269C21.19 43.9809 21.3269 43.9048 21.4443 43.8036L30.8026 35.866C30.8912 35.7958 30.9596 35.7033 31.0007 35.598C31.0069 35.5514 31.0069 35.5042 31.0007 35.4576H31.0198Z" fill="#509DEA"/>
<path d="M30.9815 35.2598C30.9266 35.1594 30.8503 35.0722 30.7579 35.0046C30.6657 34.9361 30.5647 34.8802 30.4577 34.8387L11.3578 27.3732C11.2144 27.3156 11.0641 27.277 10.9106 27.2584C10.5991 27.218 10.2824 27.2485 9.98437 27.3477C9.8353 27.3929 9.69644 27.4666 9.57554 27.5647L0.223625 35.5214C0.121754 35.5868 0.0434259 35.6829 4.79175e-05 35.7958C-0.0097816 35.8421 -0.0097816 35.8899 4.79175e-05 35.9362C-0.000855727 36.002 0.0122069 36.0672 0.0383754 36.1276C0.090353 36.2266 0.167452 36.3102 0.261953 36.3701C0.355715 36.4343 0.456428 36.4878 0.562185 36.5296L19.6621 44.0269C19.8077 44.0845 19.9601 44.1231 20.1156 44.1418C20.429 44.1708 20.745 44.1316 21.0419 44.0269C21.1899 43.9808 21.3269 43.9048 21.4443 43.8036L30.8026 35.866C30.8912 35.7957 30.9595 35.7033 31.0006 35.598C31.0069 35.5514 31.0069 35.5042 31.0006 35.4576C31.0071 35.3911 31.0006 35.3239 30.9815 35.2598ZM7.40365 37.174C7.25571 37.2236 7.09843 37.2388 6.94372 37.2187C6.8644 37.2125 6.78668 37.193 6.71375 37.1613L3.51979 35.8851C3.4677 35.8661 3.41831 35.8403 3.37287 35.8086C3.33663 35.7833 3.30615 35.7507 3.28344 35.7128C3.28344 35.7128 3.28344 35.7128 3.28344 35.6809C3.26106 35.6257 3.26106 35.5639 3.28344 35.5087C3.30562 35.4578 3.33826 35.4121 3.37926 35.3747L10.5784 29.2556C10.6382 29.2039 10.7077 29.1649 10.7829 29.1407C10.9322 29.098 11.088 29.0829 11.2428 29.096C11.3189 29.1084 11.3937 29.1276 11.4664 29.1535L14.6603 30.4296C14.7124 30.4486 14.7618 30.4744 14.8072 30.5062C14.8534 30.5391 14.8907 30.583 14.9158 30.6338C14.9382 30.689 14.9382 30.7508 14.9158 30.8061C14.918 30.8252 14.918 30.8444 14.9158 30.8635L14.852 30.9401L7.60806 37.0911C7.54968 37.1432 7.47955 37.1804 7.40365 37.1995V37.174Z" fill="#4A89E5"/>
<path d="M14.9031 30.838C14.9052 30.8571 14.9052 30.8764 14.9031 30.8954L14.8584 30.838C14.8223 30.8028 14.7814 30.7727 14.737 30.7487H14.6667L11.4728 29.4725V29.2109L14.6667 30.4871C14.7188 30.5061 14.7682 30.5319 14.8137 30.5637C14.8598 30.5966 14.8971 30.6405 14.9223 30.6913C14.9323 30.741 14.9255 30.7926 14.9031 30.838Z" fill="#2F63CC"/>
<path d="M14.8711 30.8954L14.8073 30.972L7.60807 37.0911C7.54968 37.1432 7.47955 37.1804 7.40366 37.1996C7.25572 37.2491 7.09844 37.2644 6.94373 37.2442C6.86441 37.238 6.78669 37.2186 6.71376 37.1868L3.5198 35.9107C3.46771 35.8916 3.41832 35.8659 3.37288 35.8341C3.33664 35.8089 3.30616 35.7762 3.28345 35.7384C3.28345 35.7384 3.28345 35.7065 3.31539 35.7001L10.5146 29.581C10.5743 29.5294 10.6438 29.4903 10.719 29.4661C10.8676 29.4198 11.0242 29.4046 11.1789 29.4215C11.255 29.4338 11.3299 29.4531 11.4025 29.4789L14.5965 30.7551H14.6667C14.7111 30.779 14.752 30.8091 14.7881 30.8444L14.8711 30.8954Z" fill="#21479B"/>
<path d="M11.4472 29.2109V29.4725C11.3746 29.4467 11.2998 29.4275 11.2237 29.4151C11.0689 29.3982 10.9123 29.4134 10.7637 29.4598C10.6886 29.4839 10.619 29.523 10.5593 29.5746L3.36012 35.6937C3.36012 35.6937 3.36012 35.6937 3.32818 35.732C3.32818 35.732 3.32818 35.732 3.32818 35.7001C3.30581 35.6448 3.30581 35.5831 3.32818 35.5278C3.35036 35.4769 3.38301 35.4313 3.424 35.3938L10.6232 29.2747C10.6829 29.2231 10.7524 29.184 10.8276 29.1599C10.9769 29.1172 11.1328 29.102 11.2875 29.1152C11.343 29.1432 11.3964 29.1752 11.4472 29.2109Z" fill="#509DEA"/>
<path d="M19.6621 44.0269V45.0733L0.562181 37.5951C0.447243 37.5522 0.33954 37.4919 0.242785 37.4165C0.164094 37.3561 0.0988326 37.2801 0.0511473 37.1932C0.0219396 37.1355 0.0045648 37.0726 4.38797e-05 37.0081V35.9362C-0.000859765 36.002 0.0122029 36.0672 0.0383714 36.1276C0.0903489 36.2266 0.167448 36.3102 0.261949 36.37C0.355711 36.4343 0.456424 36.4878 0.562181 36.5296L19.6621 44.0269Z" fill="#2F63CC"/>
<path d="M21.4443 43.8227C22.2045 43.14 22.9774 42.47 23.7504 41.8L26.082 39.7965L28.4327 37.8185L29.6145 36.8422L30.8026 35.866L29.6528 36.8869L28.4902 37.895L26.1906 39.8922L23.8398 41.8702C23.0285 42.5274 22.2428 43.1783 21.4443 43.8227Z" fill="white"/>
<path d="M3.36011 35.4321C3.9478 34.9025 4.53548 34.3793 5.1104 33.8624L6.89902 32.3247C7.50587 31.8142 8.10633 31.3038 8.71319 30.8061L9.62027 30.0532L10.5401 29.313L9.6586 30.0978L8.77068 30.8763L7.02677 32.4204L5.19344 33.939C4.58659 34.4558 3.97974 34.9408 3.36011 35.4321Z" fill="white"/>
<path d="M13.4147 37.1103C13.4183 37.1335 13.4183 37.1572 13.4147 37.1805C13.3943 37.2342 13.3614 37.2823 13.3188 37.3208L11.8496 38.5396C11.7923 38.5912 11.7249 38.6303 11.6516 38.6544C11.5009 38.7011 11.3421 38.7163 11.1853 38.6991C11.1092 38.6867 11.0343 38.6675 10.9617 38.6417L8.8409 37.8122C8.78484 37.7948 8.73275 37.7666 8.68759 37.7292C8.64161 37.6961 8.60435 37.6523 8.57899 37.6016C8.57295 37.57 8.57295 37.5375 8.57899 37.5059C8.57549 37.4826 8.57549 37.459 8.57899 37.4357C8.59942 37.3804 8.6348 37.3318 8.6812 37.2953L10.1185 36.0766C10.1782 36.025 10.2477 35.9859 10.3229 35.9618C10.4715 35.9154 10.6281 35.9002 10.7828 35.9171C10.861 35.9294 10.938 35.9487 11.0128 35.9745L13.1336 36.804C13.186 36.825 13.2354 36.8529 13.2805 36.887C13.3346 36.9157 13.3807 36.9573 13.4147 37.0082C13.4215 37.0419 13.4215 37.0766 13.4147 37.1103Z" fill="#FF9C1A"/>
<path d="M13.4147 37.1102V37.3208C13.4177 37.3398 13.4177 37.3592 13.4147 37.3782C13.409 37.42 13.3886 37.4585 13.3572 37.4867L13.3189 37.525L11.8752 38.7501C11.8179 38.8017 11.7505 38.8408 11.6772 38.8649C11.5265 38.9116 11.3677 38.9268 11.2109 38.9096C11.1348 38.8972 11.0599 38.878 10.9873 38.8522V38.6416C11.0599 38.6674 11.1348 38.6867 11.2109 38.699C11.3677 38.7163 11.5265 38.7011 11.6772 38.6544C11.7505 38.6302 11.8179 38.5911 11.8752 38.5395L13.3189 37.3208C13.3615 37.2822 13.3943 37.2341 13.4147 37.1804C13.4183 37.1572 13.4183 37.1335 13.4147 37.1102Z" fill="#FFC85A"/>
<path d="M10.9618 38.6416V38.8522L8.84099 38.0227C8.78374 38.0007 8.72995 37.9706 8.68129 37.9334C8.64102 37.9029 8.60825 37.8636 8.58547 37.8185C8.57682 37.785 8.57682 37.7499 8.58547 37.7164V37.5059C8.57943 37.5375 8.57943 37.57 8.58547 37.6016C8.61083 37.6522 8.64809 37.696 8.69407 37.7292C8.73922 37.7666 8.79132 37.7948 8.84738 37.8121L10.9618 38.6416Z" fill="#EF4141"/>
<path d="M13.2933 37.3208C13.0697 37.5441 12.827 37.7483 12.5906 37.9589C12.3537 38.1669 12.1064 38.3628 11.8496 38.5459C12.0732 38.3226 12.3159 38.1184 12.5523 37.9078C12.7886 37.6973 13.0378 37.5058 13.2933 37.3208Z" fill="white"/>
<path d="M16.2829 34.6665C16.2865 34.6898 16.2865 34.7134 16.2829 34.7367C16.2649 34.7916 16.2316 34.8402 16.1871 34.8771L14.7498 36.0958C14.6893 36.1463 14.62 36.1853 14.5454 36.2106C14.3947 36.2573 14.2359 36.2725 14.0791 36.2553C14.003 36.2429 13.9281 36.2237 13.8555 36.1979L11.7347 35.3684C11.681 35.3458 11.6297 35.318 11.5814 35.2854C11.5354 35.2523 11.4982 35.2085 11.4728 35.1578C11.4668 35.1262 11.4668 35.0937 11.4728 35.0621C11.4692 35.0389 11.4692 35.0152 11.4728 34.9919C11.4908 34.937 11.5241 34.8884 11.5686 34.8515L13.0123 33.6265C13.0713 33.5788 13.1384 33.5421 13.2103 33.518C13.361 33.4713 13.5198 33.4561 13.6766 33.4733C13.7527 33.4857 13.8276 33.5049 13.9002 33.5307L16.021 34.3602C16.0759 34.3803 16.1275 34.4082 16.1743 34.4432C16.2203 34.4763 16.2575 34.5201 16.2829 34.5708C16.2889 34.6024 16.2889 34.6349 16.2829 34.6665Z" fill="#ABB4D3"/>
<path d="M16.2828 34.6665V34.8707C16.2858 34.8919 16.2858 34.9133 16.2828 34.9345C16.27 34.9717 16.2505 35.0063 16.2253 35.0366C16.2121 35.053 16.1971 35.068 16.1806 35.0812L14.7306 36.3063C14.669 36.3536 14.5999 36.3903 14.5262 36.4148C14.3782 36.4644 14.2209 36.4796 14.0662 36.4595C13.9901 36.4471 13.9153 36.4279 13.8427 36.4021V36.1915C13.9133 36.2233 13.989 36.2427 14.0662 36.2489C14.2209 36.2691 14.3782 36.2538 14.5262 36.2043C14.601 36.1823 14.6705 36.1454 14.7306 36.0958L16.1679 34.8707C16.2125 34.8352 16.2476 34.7891 16.2701 34.7367C16.2732 34.7134 16.2732 34.6898 16.2701 34.6665H16.2828Z" fill="#E2E0FC"/>
<path d="M13.8363 36.1914V36.402L11.7155 35.5725C11.6578 35.5515 11.6038 35.5214 11.5558 35.4832C11.5173 35.4533 11.4848 35.4165 11.4599 35.3747C11.4533 35.3388 11.4533 35.3021 11.4599 35.2662V35.0557C11.4497 35.0867 11.4497 35.1203 11.4599 35.1514C11.4816 35.2044 11.5196 35.2491 11.5685 35.279C11.6123 35.315 11.662 35.3431 11.7155 35.3619L13.8363 36.1914Z" fill="#767A9B"/>
<path d="M16.1679 34.8706C15.9443 35.0939 15.7079 35.2981 15.4716 35.5087C15.2352 35.7192 14.9861 35.9107 14.7306 36.0957C14.9542 35.8724 15.1905 35.6682 15.4333 35.4576C15.676 35.2471 15.9124 35.0556 16.1679 34.8706Z" fill="white"/>
<path d="M19.1638 32.2226C19.1663 32.246 19.1663 32.2695 19.1638 32.2928C19.1416 32.3437 19.1089 32.3894 19.0679 32.4268L17.6243 33.6519C17.5666 33.7015 17.4991 33.7385 17.4263 33.7604C17.2762 33.8102 17.1168 33.8255 16.9599 33.805C16.8827 33.7988 16.807 33.7794 16.7364 33.7476L14.6156 32.9181C14.5595 32.9008 14.5074 32.8726 14.4623 32.8352C14.4163 32.802 14.379 32.7582 14.3537 32.7076C14.3471 32.676 14.3471 32.6434 14.3537 32.6119C14.3505 32.5886 14.3505 32.565 14.3537 32.5417C14.3724 32.4872 14.4083 32.4402 14.4559 32.4077L15.8932 31.1826C15.9529 31.131 16.0224 31.0919 16.0976 31.0677C16.2466 31.0233 16.4032 31.0103 16.5575 31.0294C16.636 31.0366 16.7133 31.0538 16.7875 31.0805L18.8827 31.9036C18.9337 31.9274 18.9829 31.9552 19.0296 31.9865C19.0758 32.0195 19.1131 32.0633 19.1382 32.1142C19.1577 32.1468 19.1666 32.1847 19.1638 32.2226Z" fill="#ABB4D3"/>
<path d="M19.1638 32.2163V32.4269C19.1669 32.4459 19.1669 32.4653 19.1638 32.4843C19.1524 32.5221 19.1328 32.557 19.1063 32.5864L19.0616 32.6311L17.6243 33.8562C17.5633 33.9044 17.4941 33.9412 17.4199 33.9646C17.2719 34.0142 17.1147 34.0294 16.9599 34.0093C16.8805 34.0038 16.8027 33.9844 16.73 33.9519V33.7477C16.8039 33.7751 16.8813 33.7923 16.9599 33.7987C17.1143 33.8179 17.2709 33.8048 17.4199 33.7604C17.4945 33.7351 17.5638 33.6961 17.6243 33.6456L19.0616 32.4205C19.1078 32.3865 19.1432 32.34 19.1638 32.2865C19.1638 32.2865 19.1638 32.2418 19.1638 32.2163Z" fill="#E2E0FC"/>
<path d="M16.7173 33.7476V33.9581L14.5965 33.1223C14.5381 33.1027 14.4839 33.0724 14.4368 33.0329C14.3969 33.0046 14.3642 32.9675 14.341 32.9245C14.3351 32.8907 14.3351 32.8562 14.341 32.8224V32.6118C14.3349 32.6434 14.3349 32.6759 14.341 32.7075C14.3663 32.7582 14.4036 32.802 14.4496 32.8351C14.4978 32.8677 14.5492 32.8955 14.6029 32.9181L16.7173 33.7476Z" fill="#767A9B"/>
<path d="M19.0489 32.4204C18.8253 32.6501 18.5889 32.8543 18.3526 33.0585C18.1162 33.2627 17.8671 33.4605 17.6116 33.6455C17.8351 33.4222 18.0715 33.218 18.3079 33.0074C18.5442 32.7969 18.7933 32.6055 19.0489 32.4204Z" fill="white"/>
<path d="M17.6498 38.7756C17.6534 38.7988 17.6534 38.8225 17.6498 38.8458C17.6294 38.8995 17.5966 38.9476 17.554 38.9861L16.0975 40.1985C16.0402 40.2501 15.9728 40.2892 15.8995 40.3133C15.6766 40.3937 15.4325 40.3937 15.2096 40.3133L13.0888 39.4838L12.9355 39.4009C12.891 39.3662 12.8541 39.3228 12.8269 39.2733C12.8209 39.2417 12.8209 39.2092 12.8269 39.1776C12.8207 39.1524 12.8207 39.1261 12.8269 39.101C12.8444 39.0476 12.8778 39.0008 12.9228 38.967L14.36 37.7419C14.4224 37.6959 14.4913 37.6593 14.5644 37.6334C14.7145 37.5836 14.8739 37.5683 15.0308 37.5888C15.108 37.595 15.1837 37.6144 15.2543 37.6462L17.3751 38.4757C17.4286 38.4946 17.4783 38.5226 17.5221 38.5586C17.5716 38.5896 17.6114 38.6338 17.637 38.6863C17.6466 38.715 17.6509 38.7453 17.6498 38.7756Z" fill="#ABB4D3"/>
<path d="M17.6434 38.7757V38.9799C17.6465 38.9989 17.6465 39.0183 17.6434 39.0373C17.6321 39.0771 17.6125 39.114 17.5859 39.1457L17.5412 39.1904L16.0976 40.4091C16.0378 40.4607 15.9683 40.4998 15.8931 40.524C15.7445 40.5703 15.588 40.5855 15.4332 40.5687C15.355 40.5563 15.2781 40.5371 15.2032 40.5112V40.3007C15.2762 40.3324 15.3539 40.3519 15.4332 40.3581C15.5879 40.3782 15.7452 40.363 15.8931 40.3134C15.9685 40.2896 16.038 40.2505 16.0976 40.1986L17.5348 38.9735C17.5795 38.9379 17.6146 38.8919 17.637 38.8395C17.6399 38.8162 17.6399 38.7926 17.637 38.7693L17.6434 38.7757Z" fill="#E2E0FC"/>
<path d="M15.2034 40.3007V40.5112L13.0826 39.6818C13.0242 39.6622 12.97 39.6319 12.9229 39.5924C12.8859 39.561 12.8537 39.5245 12.8271 39.484C12.8212 39.448 12.8212 39.4114 12.8271 39.3755V39.1649C12.8205 39.1965 12.8205 39.2291 12.8271 39.2606C12.8511 39.3141 12.8913 39.3587 12.942 39.3882C12.9858 39.4242 13.0355 39.4523 13.089 39.4712L15.2034 40.3007Z" fill="#767A9B"/>
<path d="M17.5349 38.9799C17.3114 39.2032 17.075 39.4074 16.8387 39.6179C16.6023 39.8285 16.3532 40.0199 16.0977 40.205C16.3212 39.9816 16.5576 39.7711 16.7939 39.5669C17.0303 39.3627 17.2794 39.1649 17.5349 38.9799Z" fill="white"/>
<path d="M20.5245 36.3319C20.5276 36.353 20.5276 36.3745 20.5245 36.3957C20.504 36.451 20.4687 36.4996 20.4223 36.5361L18.985 37.7612C18.9234 37.8084 18.8543 37.8451 18.7806 37.8696C18.6321 37.9163 18.4754 37.9316 18.3206 37.9143C18.2445 37.9019 18.1697 37.8827 18.0971 37.8569L15.9699 37.0082C15.9164 36.9894 15.8667 36.9613 15.823 36.9253C15.7754 36.8939 15.7377 36.8496 15.7144 36.7977C15.7083 36.766 15.7083 36.7336 15.7144 36.702C15.7109 36.6787 15.7109 36.655 15.7144 36.6318C15.7331 36.5773 15.769 36.5303 15.8166 36.4978L17.2475 35.2918C17.3072 35.2402 17.3767 35.2011 17.4519 35.177C17.6005 35.1306 17.7571 35.1154 17.9118 35.1323C17.9879 35.1447 18.0628 35.1639 18.1354 35.1897L20.2626 36.0192C20.3136 36.043 20.3627 36.0708 20.4095 36.1022C20.4571 36.1335 20.4948 36.1778 20.5181 36.2298C20.5269 36.2631 20.5291 36.2978 20.5245 36.3319Z" fill="#ABB4D3"/>
<path d="M20.5244 36.3254V36.5296C20.5279 36.5508 20.5279 36.5723 20.5244 36.5934C20.513 36.6313 20.4934 36.6661 20.4669 36.6955L20.4222 36.7402L18.9785 37.9653C18.9176 38.0136 18.8483 38.0503 18.7741 38.0738C18.6241 38.1236 18.4646 38.1389 18.3078 38.1184C18.2305 38.1122 18.1549 38.0928 18.0842 38.061V37.8504C18.1549 37.8822 18.2305 37.9016 18.3078 37.9079C18.4646 37.9283 18.6241 37.913 18.7741 37.8632C18.8494 37.8425 18.9192 37.8055 18.9785 37.7547L20.4414 36.5296C20.4857 36.4953 20.519 36.4487 20.5372 36.3956C20.5402 36.3723 20.5402 36.3487 20.5372 36.3254H20.5244Z" fill="#E2E0FC"/>
<path d="M18.0843 37.8568V38.061L15.9699 37.2315C15.9115 37.212 15.8574 37.1817 15.8102 37.1422C15.7702 37.114 15.7374 37.0769 15.7144 37.0337C15.7049 36.9982 15.7049 36.9608 15.7144 36.9253V36.7211C15.7083 36.7527 15.7083 36.7852 15.7144 36.8168C15.7415 36.8663 15.7785 36.9097 15.823 36.9444C15.8693 36.9713 15.9186 36.9927 15.9699 37.0082L18.0843 37.8568Z" fill="#767A9B"/>
<path d="M20.4414 36.5297C20.2179 36.753 19.9815 36.9636 19.7388 37.1677C19.496 37.3719 19.2597 37.5697 19.0042 37.7548C19.2213 37.5314 19.4641 37.3273 19.7004 37.1167C19.9368 36.9061 20.1604 36.7147 20.4414 36.5297Z" fill="white"/>
<path d="M23.4054 33.8816C23.4086 33.9049 23.4086 33.9285 23.4054 33.9518C23.3849 34.0053 23.3494 34.0518 23.3032 34.0858L21.8659 35.3109C21.8076 35.3629 21.7374 35.4002 21.6615 35.4193C21.5136 35.4689 21.3563 35.4841 21.2016 35.464C21.1223 35.4578 21.0446 35.4383 20.9716 35.4066L18.8508 34.5771C18.7974 34.5582 18.7477 34.5301 18.7039 34.4941C18.655 34.4643 18.6169 34.4195 18.5953 34.3665C18.5851 34.3354 18.5851 34.3019 18.5953 34.2708C18.5928 34.2475 18.5928 34.2239 18.5953 34.2006C18.616 34.1489 18.6488 34.1029 18.6911 34.0666L20.1348 32.8415C20.1909 32.7897 20.2589 32.7524 20.3328 32.733C20.4829 32.6832 20.6423 32.6679 20.7992 32.6884C20.8764 32.6946 20.952 32.714 21.0227 32.7458L23.1435 33.5753C23.1982 33.593 23.2498 33.6188 23.2968 33.6519C23.3431 33.6874 23.3803 33.7333 23.4054 33.7859C23.412 33.8174 23.412 33.85 23.4054 33.8816Z" fill="#ABB4D3"/>
<path d="M23.4054 33.8752V34.0858C23.4084 34.1048 23.4084 34.1242 23.4054 34.1432C23.3979 34.1844 23.3778 34.2223 23.3479 34.2517L23.3096 34.29L21.8659 35.5151C21.8083 35.5683 21.7379 35.6057 21.6615 35.6236C21.5134 35.6722 21.3568 35.6896 21.2016 35.6746C21.1255 35.6622 21.0507 35.643 20.978 35.6172V35.4066C21.0507 35.4325 21.1255 35.4517 21.2016 35.464C21.3564 35.4813 21.513 35.4661 21.6615 35.4194C21.7374 35.3968 21.8072 35.3576 21.8659 35.3045L23.3096 34.0858C23.3522 34.0472 23.385 33.9991 23.4054 33.9454C23.409 33.9222 23.409 33.8985 23.4054 33.8752Z" fill="#E2E0FC"/>
<path d="M20.9651 35.4066V35.6172L18.838 34.7877C18.7821 34.7629 18.7287 34.733 18.6783 34.6984C18.6398 34.6677 18.6092 34.6283 18.5888 34.5835C18.5696 34.5528 18.5586 34.5176 18.5569 34.4814V34.2709C18.5509 34.3025 18.5509 34.335 18.5569 34.3666C18.5802 34.4186 18.6179 34.4628 18.6655 34.4942C18.7092 34.5302 18.759 34.5583 18.8124 34.5771L20.9651 35.4066Z" fill="#767A9B"/>
<path d="M23.2968 34.0858C23.0732 34.3091 22.8305 34.5133 22.5941 34.7239C22.3578 34.9345 22.1087 35.1323 21.8531 35.3109C22.0767 35.0876 22.3195 34.8834 22.5558 34.6728C22.7922 34.4623 23.0349 34.2709 23.2968 34.0858Z" fill="white"/>
<path d="M21.8915 40.4346C21.895 40.4579 21.895 40.4815 21.8915 40.5048C21.871 40.5601 21.8357 40.6087 21.7893 40.6452L20.352 41.8639C20.2923 41.9155 20.2227 41.9546 20.1476 41.9787C19.999 42.0251 19.8424 42.0403 19.6876 42.0234C19.6094 42.011 19.5325 41.9918 19.4577 41.966L17.3369 41.1365C17.2834 41.1176 17.2337 41.0895 17.19 41.0535C17.1424 41.0222 17.1047 40.9779 17.0814 40.9259C17.0727 40.8946 17.0727 40.8615 17.0814 40.8302C17.0778 40.807 17.0778 40.7833 17.0814 40.76C17.1018 40.7047 17.1372 40.6561 17.1836 40.6196L18.6209 39.4009C18.6782 39.3493 18.7456 39.3102 18.8189 39.2861C18.9697 39.2397 19.1283 39.2245 19.2852 39.2414C19.3613 39.2538 19.4361 39.273 19.5088 39.2988L21.6296 40.1283C21.6845 40.1482 21.7362 40.1762 21.7829 40.2113C21.8305 40.2427 21.8681 40.2869 21.8915 40.3389C21.8975 40.3705 21.8975 40.403 21.8915 40.4346Z" fill="#ABB4D3"/>
<path d="M21.8915 40.4346V40.6388C21.8951 40.6599 21.8951 40.6814 21.8915 40.7026C21.8839 40.7419 21.8637 40.7777 21.834 40.8047L21.7765 40.8621L20.3264 42.1127C20.2697 42.1535 20.2073 42.1858 20.1412 42.2084C19.991 42.2578 19.8317 42.2731 19.6749 42.2531C19.5982 42.2437 19.523 42.2244 19.4513 42.1956V41.9851C19.522 42.0169 19.5976 42.0363 19.6749 42.0425C19.8317 42.0625 19.991 42.0473 20.1412 41.9978C20.2151 41.9784 20.2831 41.9412 20.3392 41.8894L21.7829 40.6643C21.8239 40.6268 21.8565 40.5812 21.8787 40.5303C21.8817 40.507 21.8817 40.4834 21.8787 40.4601L21.8915 40.4346Z" fill="#E2E0FC"/>
<path d="M19.4513 41.9597V42.1702L17.3241 41.3407C17.2669 41.3188 17.2131 41.2887 17.1644 41.2514C17.1279 41.2213 17.0976 41.1845 17.075 41.1429C17.0655 41.1074 17.0655 41.07 17.075 41.0345V40.8367C17.0684 40.8661 17.0684 40.8966 17.075 40.926C17.0982 40.9798 17.1358 41.0261 17.1836 41.06C17.229 41.0918 17.2784 41.1175 17.3305 41.1366L19.4513 41.9597Z" fill="#767A9B"/>
<path d="M21.7829 40.6388C21.5593 40.8621 21.3166 41.0663 21.0802 41.2769C20.8439 41.4874 20.6011 41.6789 20.3392 41.8639C20.5628 41.6406 20.8056 41.4364 21.0419 41.2258C21.2783 41.0153 21.521 40.8366 21.7829 40.6388Z" fill="white"/>
<path d="M24.7724 37.9908C24.7749 38.0141 24.7749 38.0376 24.7724 38.0609C24.7525 38.1131 24.7195 38.1592 24.6766 38.1949L23.2393 39.42C23.1698 39.4842 23.0869 39.5322 22.9966 39.5604C22.8465 39.6103 22.6871 39.6255 22.5302 39.6051C22.453 39.5989 22.3774 39.5794 22.3067 39.5476L20.1859 38.7182C20.131 38.6981 20.0794 38.6702 20.0326 38.6352C19.9866 38.602 19.9493 38.5583 19.924 38.5076C19.9174 38.476 19.9174 38.4434 19.924 38.4119C19.921 38.3886 19.921 38.365 19.924 38.3417C19.9421 38.2886 19.9754 38.2421 20.0198 38.2077L21.4571 36.9826C21.5175 36.932 21.5868 36.8931 21.6615 36.8677C21.8127 36.8232 21.9714 36.8102 22.1278 36.8295C22.2043 36.8366 22.2794 36.8538 22.3514 36.8805L24.4722 37.71L24.6255 37.7929C24.67 37.8277 24.7069 37.8711 24.7341 37.9206C24.7504 37.9419 24.7633 37.9655 24.7724 37.9908Z" fill="#ABB4D3"/>
<path d="M24.7724 37.9844V38.1949C24.7754 38.214 24.7754 38.2333 24.7724 38.2524C24.7596 38.2916 24.7402 38.3283 24.7149 38.3608L24.6702 38.3991L23.2201 39.6242C23.1617 39.6763 23.0916 39.7135 23.0157 39.7327C22.8678 39.7822 22.7105 39.7975 22.5558 39.7774C22.4766 39.7703 22.399 39.751 22.3258 39.7199V39.5157C22.4002 39.5418 22.4774 39.559 22.5558 39.5668C22.7017 39.5937 22.8515 39.5916 22.9965 39.5604C23.0717 39.5362 23.1412 39.4972 23.201 39.4456L24.6382 38.2205C24.6844 38.1865 24.7199 38.14 24.7404 38.0865C24.7436 38.0632 24.7436 38.0396 24.7404 38.0163L24.7724 37.9844Z" fill="#E2E0FC"/>
<path d="M22.3578 39.5159V39.7264L20.205 38.9224C20.1461 38.9042 20.0917 38.8737 20.0453 38.8331C20.0055 38.8048 19.9727 38.7676 19.9495 38.7246C19.9437 38.6909 19.9437 38.6563 19.9495 38.6225V38.412C19.9408 38.4433 19.9408 38.4764 19.9495 38.5077C19.9729 38.5597 20.0105 38.6039 20.0581 38.6353C20.1032 38.6693 20.1526 38.6972 20.205 38.7183L22.3578 39.5159Z" fill="#767A9B"/>
<path d="M24.6574 38.1886C24.4338 38.4183 24.1974 38.6225 23.9611 38.8267C23.7247 39.0309 23.4756 39.2287 23.2201 39.4137C23.4437 39.1904 23.68 38.9862 23.9228 38.7756C24.1655 38.5651 24.4019 38.3736 24.6574 38.1886Z" fill="white"/>
<path d="M27.6469 35.5406C27.6499 35.5617 27.6499 35.5832 27.6469 35.6044C27.6311 35.6603 27.5974 35.7096 27.5511 35.7447L26.1138 36.9698C26.0514 37.0159 25.9825 37.0524 25.9094 37.0783C25.7587 37.125 25.5999 37.1402 25.4431 37.123C25.367 37.1106 25.2921 37.0914 25.2195 37.0656L23.0987 36.2361C23.0453 36.2172 22.9955 36.1891 22.9518 36.1531C22.9023 36.1221 22.8625 36.0779 22.8368 36.0255C22.8308 35.9939 22.8308 35.9614 22.8368 35.9298C22.8332 35.9065 22.8332 35.8829 22.8368 35.8596C22.8556 35.8069 22.8888 35.7605 22.9326 35.7256L24.3763 34.5005C24.4336 34.4489 24.501 34.4098 24.5743 34.3857C24.725 34.339 24.8838 34.3238 25.0406 34.341C25.1167 34.3534 25.1916 34.3726 25.2642 34.3984L27.385 35.2279L27.5383 35.3109C27.5843 35.344 27.6216 35.3878 27.6469 35.4385C27.6536 35.4722 27.6536 35.5069 27.6469 35.5406Z" fill="#ABB4D3"/>
<path d="M27.6469 35.5406V35.732C27.65 35.751 27.65 35.7704 27.6469 35.7894C27.6356 35.8292 27.616 35.8662 27.5894 35.8979L27.5447 35.9426L26.1074 37.1613C26.047 37.2119 25.9777 37.2508 25.903 37.2761C25.7523 37.3228 25.5936 37.338 25.4367 37.3208C25.3606 37.3085 25.2858 37.2892 25.2131 37.2634V37.0528C25.2858 37.0787 25.3606 37.0979 25.4367 37.1102C25.5936 37.1275 25.7523 37.1123 25.903 37.0656C25.9762 37.0397 26.045 37.0032 26.1074 36.9571L27.5383 35.732C27.5847 35.6968 27.6183 35.6476 27.6342 35.5916C27.6371 35.5705 27.6371 35.549 27.6342 35.5278L27.6469 35.5406Z" fill="#E2E0FC"/>
<path d="M25.2068 37.0656V37.2634L23.086 36.4276C23.0277 36.408 22.9735 36.3777 22.9263 36.3382C22.8865 36.3099 22.8537 36.2728 22.8305 36.2298C22.8239 36.1939 22.8239 36.1572 22.8305 36.1213V35.9171C22.8245 35.9487 22.8245 35.9812 22.8305 36.0128C22.8559 36.0635 22.8931 36.1073 22.9391 36.1404C22.9902 36.1404 23.0413 36.1979 23.0924 36.2362L25.2068 37.0656Z" fill="#767A9B"/>
<path d="M27.5384 35.7321C27.3148 35.9554 27.0784 36.1596 26.8421 36.3701C26.6057 36.5807 26.3566 36.7785 26.1011 36.9635C26.3247 36.7402 26.561 36.5296 26.7974 36.3255C27.0337 36.1213 27.2828 35.9299 27.5384 35.7321Z" fill="white"/>
<path d="M13.4338 51.9901L12.1626 50.9947L12.1434 50.982L12.2265 50.9501L13.4338 51.9901Z" fill="#EF4141"/>
<path d="M14.7626 51.4541L13.485 50.4587L13.4658 50.446L13.5553 50.4141L14.7626 51.4541Z" fill="#EF4141"/>
<path d="M16.0848 50.9181L14.8072 49.9291L14.7944 49.91L14.8775 49.8781L16.0848 50.9181Z" fill="#EF4141"/>
<path d="M17.4072 50.3822L16.136 49.3868L16.1168 49.3741L16.1999 49.3422L17.4072 50.3822Z" fill="#EF4141"/>
<path d="M18.7358 49.8462L17.4583 48.8508L17.4391 48.8381L17.5285 48.8062L18.7358 49.8462Z" fill="#EF4141"/>
<path d="M20.0582 49.3102L18.7806 48.3148L18.7678 48.3021L18.8509 48.2638L20.0582 49.3102Z" fill="#EF4141"/>
<path d="M21.3804 48.7742L20.1093 47.7788L20.0901 47.7661L20.1795 47.7278L21.3804 48.7742Z" fill="#EF4141"/>
<path d="M22.7091 48.2382L21.4315 47.2428L21.4124 47.2301L21.5018 47.1918L22.7091 48.2382Z" fill="#EF4141"/>
<path d="M24.0314 47.7022L22.7538 46.7068L22.7346 46.694L22.824 46.6558L24.0314 47.7022Z" fill="#EF4141"/>
<path d="M25.3601 47.1663L24.0825 46.1709L24.0634 46.1582L24.1464 46.1199L25.3601 47.1663Z" fill="#EF4141"/>
<path d="M26.6824 46.6303L25.4048 45.6349L25.3856 45.6221L25.4751 45.5839L26.6824 46.6303Z" fill="#EF4141"/>
<path d="M28.0047 46.0943L26.7271 45.0989L26.7144 45.0861L26.7974 45.0479L28.0047 46.0943Z" fill="#EF4141"/>
<path d="M29.3334 45.5584L28.0558 44.563L28.0366 44.5502L28.1261 44.512L29.3334 45.5584Z" fill="#EF4141"/>
<path d="M30.6556 45.0224L29.3781 44.027L29.3589 44.0079L29.4483 43.976L30.6556 45.0224Z" fill="#EF4141"/>
<path d="M31.978 44.4864L30.7004 43.491L30.6876 43.4782L30.7707 43.4399L31.978 44.4864Z" fill="#EF4141"/>
<path d="M33.3066 43.9504L32.0291 42.955L32.0099 42.9422L32.0993 42.9039L33.3066 43.9504Z" fill="#EF4141"/>
<path d="M34.629 43.408L33.3514 42.4126L33.3323 42.3998L33.4217 42.3679L34.629 43.408Z" fill="#EF4141"/>
<path d="M35.9512 42.8721L34.6737 41.8831L34.6609 41.8639L34.7439 41.832L35.9512 42.8721Z" fill="#EF4141"/>
<path d="M37.2799 42.3425L36.0023 41.3471L35.9832 41.3279L36.0726 41.296L37.2799 42.3425Z" fill="#EF4141"/>
<path d="M38.6023 41.8001L37.3247 40.8047L37.3119 40.7919L37.3949 40.76L38.6023 41.8001Z" fill="#EF4141"/>
<path d="M39.9245 41.2642L38.6533 40.2688L38.6342 40.256L38.7236 40.2241L39.9245 41.2642Z" fill="#EF4141"/>
<path d="M41.2533 40.7282L39.9757 39.7328L39.9565 39.72L40.046 39.6881L41.2533 40.7282Z" fill="#EF4141"/>
</g>
<defs>
<clipPath id="clip0_247_2427">
<rect width="44" height="54" fill="white"/>
</clipPath>
</defs>
</svg>
