<svg width="230" height="189" viewBox="0 0 230 189" fill="none" xmlns="http://www.w3.org/2000/svg">
<g clip-path="url(#clip0_266_3537)">
<path d="M14.5959 63.4015C12.1174 61.8467 9.31474 60.8824 6.4043 60.5832C5.06959 60.4457 3.60312 60.4801 2.53192 61.2935C2.40682 61.3643 2.30338 61.4678 2.23273 61.593C2.16208 61.7181 2.12688 61.8602 2.13093 62.0038C2.19411 62.2049 2.32856 62.376 2.509 62.485C5.84292 65.0284 10.8839 65.3492 14.5959 63.4015Z" fill="#E0E0E0"/>
<path d="M14.3898 63.1667C12.4913 61.776 10.72 60.2194 9.09678 58.5153C7.4699 56.7983 6.3257 54.6818 5.78005 52.3802C5.67186 52.0389 5.63938 51.6781 5.68489 51.3229C5.7304 50.9677 5.8528 50.6268 6.04355 50.3237C10.2596 53.6175 13.5706 57.8565 14.3898 63.1667Z" fill="#E0E0E0"/>
<path d="M14.5556 63.3672C14.1608 61.0667 14.1939 58.713 14.653 56.4244C15.1249 54.1186 16.4456 52.0742 18.3535 50.696C19.081 52.4146 18.766 54.3622 18.2562 56.1437C17.458 58.8994 16.2179 61.5072 14.5843 63.8656" fill="#E0E0E0"/>
<path d="M18.6918 70.7799C16.177 71.0835 13.9945 72.4068 12.1213 74.1024C10.2354 75.815 8.92327 78.0673 8.36353 80.5525C10.821 80.4036 12.9119 78.6679 14.4241 76.7202C15.9364 74.7726 16.9905 72.6359 18.6574 70.8143" fill="#E0E0E0"/>
<path d="M19.5852 71.9656C18.5968 69.4565 18.2505 66.7403 18.5776 64.0635C18.9047 61.3866 19.8949 58.8338 21.4584 56.6365C22.8905 61.7233 22.3635 67.4688 19.5852 71.9656Z" fill="#E0E0E0"/>
<path d="M25.0501 78.4786C22.7558 78.3372 20.4706 78.8732 18.4785 80.02C16.4864 81.1668 14.8752 82.8738 13.8454 84.9288C13.7079 85.2038 13.5876 85.5589 13.7709 85.8052C13.8677 85.9 13.986 85.9698 14.1157 86.0087C14.2454 86.0476 14.3827 86.0545 14.5156 86.0286C16.721 85.8854 18.6801 84.5564 20.2955 83.0442C21.9109 81.5319 23.3144 79.779 25.1016 78.4615" fill="#E0E0E0"/>
<path d="M24.8784 78.1121C23.6996 74.3238 23.626 70.2778 24.6664 66.4491C25.0789 64.954 25.7663 63.373 27.1525 62.6684C27.2665 62.5961 27.4043 62.5714 27.5363 62.5996C27.6475 62.6615 27.7328 62.7611 27.7769 62.8803C28.2385 63.9319 28.4352 65.0805 28.3498 66.2257C28.2671 67.3664 28.0928 68.4985 27.8285 69.6112C27.3931 71.6791 27.1583 73.9017 26.0241 75.689C25.7544 76.1175 25.5133 76.5634 25.3023 77.0237C25.0846 77.4762 25.0846 77.6366 24.8898 77.9975" fill="#E0E0E0"/>
<path d="M39.3368 80.2661C38.2656 76.1932 39.4056 71.2496 41.9719 67.91C42.1609 67.6636 42.413 67.4001 42.7223 67.4288C43.192 67.4746 43.2951 68.1047 43.2951 68.5745C43.0988 72.7641 41.7271 76.8138 39.3368 80.2603" fill="#E0E0E0"/>
<path d="M40.6716 81.1596C43.2011 81.7552 45.8297 81.7953 48.3762 81.2771C50.9228 80.7589 53.3266 79.6947 55.4222 78.1579C52.9534 76.9191 50.1319 76.573 47.4368 77.1783C44.7674 77.7913 42.3329 78.9828 40.6716 81.1882" fill="#E0E0E0"/>
<path d="M41.7428 78.4444C44.5153 73.9247 49.8313 70.9975 55.13 70.7053C54.5171 72.8592 52.747 74.5319 50.7478 75.5458C48.7486 76.5597 46.5203 77.0008 44.3206 77.4247C43.467 77.5908 42.2927 77.7741 41.7428 78.4444Z" fill="#E0E0E0"/>
<path d="M39.6118 65.3036C40.4536 62.7558 41.0295 60.1277 41.3303 57.4614C41.5365 54.792 41.1584 52.0023 39.7722 49.7052C37.1772 54.7175 36.908 60.5891 39.543 65.5728" fill="#E0E0E0"/>
<path d="M48.3358 60.8697C51.3604 55.3647 57.5413 50.9654 63.8024 50.3524C61.3908 56.3558 54.8089 61.0015 48.3358 60.8697Z" fill="#E0E0E0"/>
<path d="M46.4286 61.9522C50.9483 62.6396 54.792 65.521 59.031 67.2739C59.9195 67.7111 60.9069 67.9086 61.8952 67.8467C62.3509 67.8411 62.7939 67.6958 63.1645 67.4306C63.5352 67.1654 63.8155 66.7929 63.9679 66.3634C64.1202 65.9338 64.1372 65.4679 64.0165 65.0284C63.8958 64.589 63.6433 64.1971 63.2929 63.9056C62.695 63.3526 61.9916 62.9259 61.225 62.6511C56.6423 60.7378 51.693 60.6862 46.8525 61.8491" fill="#E0E0E0"/>
<path d="M43.8164 65.1201C44.8361 65.4122 45.1855 65.9392 45.9989 66.6324C48.7667 68.9831 52.0409 70.6613 55.5653 71.5358C55.9319 71.6275 56.4074 71.6619 56.5907 71.3296C56.774 70.9974 56.5449 70.6938 56.3444 70.436C54.8057 68.6398 52.8138 67.2887 50.5759 66.5235C48.3762 65.7044 46.4686 64.7191 43.8393 64.931" fill="#E0E0E0"/>
<path d="M40.8661 45.9816C42.7174 47.6897 44.9056 48.9916 47.2901 49.8035C49.6746 50.6154 52.2026 50.9195 54.7116 50.696C54.9438 50.6965 55.1689 50.6154 55.3474 50.4669C55.6911 50.0888 55.273 49.5045 54.8662 49.1838C50.7991 46.0102 45.867 44.6927 40.8661 45.9816Z" fill="#E0E0E0"/>
<path d="M44.3606 44.6813C46.8114 42.8748 49.6546 41.6737 52.6583 41.1759C55.6619 40.6781 58.7406 40.8978 61.6431 41.8171C59.3818 43.9104 56.4829 45.1834 53.4114 45.4317C50.3738 45.7127 47.3105 45.4587 44.3606 44.6813Z" fill="#E0E0E0"/>
<path d="M42.9629 35.9055C42.5677 31.844 42.8254 28.6361 42.5448 24.5518C42.5448 24.2253 42.4531 23.83 42.1438 23.7155C41.7199 23.5494 41.3647 24.0706 41.2272 24.506C40.634 26.3982 40.4805 28.4009 40.7783 30.3615C41.0761 32.322 41.8174 34.1888 42.9457 35.8195" fill="#E0E0E0"/>
<path d="M42.6764 36.358C45.3342 34.6347 47.6239 32.4015 49.413 29.7875C50.7419 27.9716 51.8647 25.7777 51.5611 23.5551C50.6251 23.5814 49.706 23.8107 48.8673 24.2271C48.0286 24.6435 47.2903 25.237 46.7034 25.9667C45.5433 27.4393 44.7007 29.1361 44.2288 30.9504C43.6903 32.7376 43.3122 34.5764 42.6764 36.3351" fill="#E0E0E0"/>
<path d="M49.2927 34.5191C55.3591 32.2764 60.9754 28.9668 65.8764 24.7465C63.8943 23.9503 61.6316 24.4257 59.6496 25.2277C55.1535 26.926 51.4374 30.2161 49.2068 34.4733" fill="#E0E0E0"/>
<path d="M44.5379 38.5805C47.5969 38.9128 50.7017 39.1534 53.7377 38.6264C56.7738 38.0994 59.5406 36.9422 62.3303 35.7622C62.5697 35.692 62.7741 35.5346 62.9031 35.3211C62.9458 35.1917 62.9483 35.0525 62.9105 34.9217C62.8727 34.7909 62.7962 34.6745 62.6912 34.5879C62.4766 34.4182 62.2256 34.3005 61.9579 34.2442C58.9276 33.3964 55.6567 33.7916 52.678 34.817C49.8364 35.787 47.1043 37.0523 44.5265 38.592" fill="#E0E0E0"/>
<path d="M27.0723 46.1191C24.9872 41.9088 25.1246 36.9938 26.9234 32.6517C28.1951 34.5822 28.3497 37.0454 28.1149 39.3482C27.88 41.651 27.1869 44.0168 27.141 46.3311" fill="#E0E0E0"/>
<path d="M18.7375 41.9144C16.1251 41.8805 13.5343 42.3917 11.1306 43.4156C8.72686 44.4394 6.56309 45.9533 4.77747 47.8605C7.40938 48.1796 10.0759 47.6859 12.4191 46.4456C14.7446 45.2077 16.9401 43.7396 18.9724 42.0634" fill="#E0E0E0"/>
<path d="M13.1294 40.0413C10.586 39.835 8.12856 39.52 5.68255 40.2704C4.44455 40.6174 3.296 41.2274 2.31531 42.0588C1.33462 42.8902 0.544873 43.9234 0 45.088C2.40601 45.2809 4.81967 44.8238 6.98862 43.7647C9.14249 42.7092 11.1976 41.4631 13.1294 40.0413Z" fill="#E0E0E0"/>
<path d="M21.43 40.1273C19.1386 38.6265 16.7842 37.097 14.1148 36.4726C11.4454 35.8482 8.35208 36.3122 6.49036 38.3228C8.64995 39.5888 11.2735 39.7378 13.7768 39.7378C16.2801 39.7378 19.3563 39.7091 21.7164 40.5455" fill="#E0E0E0"/>
<path d="M21.4472 40.2476C17.5233 36.3981 16.0396 29.484 17.6149 24.2081C20.7118 28.9493 22.0663 34.6186 21.4472 40.2476Z" fill="#E0E0E0"/>
<path d="M32.222 29.3406C32.961 27.6221 33.4823 25.8177 34.1468 24.0705C34.7528 22.2949 35.681 20.6462 36.8849 19.2071C38.1127 17.7655 39.8567 16.8626 41.7426 16.6924C41.1408 19.3449 39.9917 21.8425 38.3691 24.0255C36.7465 26.2084 34.6859 28.0285 32.3194 29.3693" fill="#E0E0E0"/>
<path d="M30.2744 31.6148C29.0485 29.9307 27.6336 27.6451 25.9781 26.3848C24.3226 25.1246 22.1572 24.3684 20.1351 24.8496C21.1823 26.6884 22.6442 28.2574 24.4043 29.4318C26.1645 30.6063 28.1745 31.3538 30.2744 31.6148Z" fill="#E0E0E0"/>
<path d="M30.664 29.484C29.7859 27.4742 29.1364 25.372 28.7278 23.2171C28.3274 21.046 28.6726 18.8032 29.7074 16.8529C31.8613 20.9201 32.5716 25.2851 30.7729 29.5298" fill="#E0E0E0"/>
<path d="M32.2451 16.8528C33.4595 12.8429 37.1543 9.84701 41.1413 8.48938C41.6344 8.28772 42.1687 8.20718 42.6994 8.25452C42.9632 8.2839 43.2125 8.39028 43.4162 8.5604C43.62 8.73052 43.7691 8.95684 43.8451 9.21116C43.9883 9.89856 43.4212 10.5115 42.8884 10.9698C39.7743 13.6293 36.1537 15.6306 32.2451 16.8528Z" fill="#E0E0E0"/>
<path d="M32.2851 13.5533C32.4397 10.9527 32.6058 8.3176 33.4307 5.8544C34.2556 3.3912 35.9226 1.07693 38.2941 0C38.7008 2.6236 37.5437 5.23573 36.146 7.49844C34.7483 9.76115 33.0641 11.8921 32.222 14.4126" fill="#E0E0E0"/>
<path d="M32.2221 15.3405C31.2139 12.4019 31.1108 8.67269 29.3579 6.11211C28.1263 4.31913 26.1557 3.10471 25.096 1.20862C24.4561 3.02726 24.5464 5.02321 25.348 6.7766C26.1448 8.51678 27.2446 10.1015 28.596 11.4567C29.8964 12.8487 31.0134 13.897 32.2221 15.3634" fill="#E0E0E0"/>
<path d="M32.245 101.885C32.1648 101.885 32.0961 82.2824 32.0903 58.1029C32.0846 33.9234 32.1476 14.3209 32.2221 14.3209C32.2965 14.3209 32.371 33.9177 32.3767 58.1029C32.3825 82.2881 32.3195 101.885 32.245 101.885Z" fill="#E0E0E0"/>
<path d="M49.3728 43.1632C49.1368 43.2759 48.8915 43.3679 48.6396 43.4382L46.6117 44.1084C44.8932 44.6812 42.5503 45.5348 40.0012 46.5773C37.4521 47.6199 35.092 48.5422 33.7344 49.7165C33.1932 50.1656 32.7638 50.7343 32.4798 51.3777C32.2851 51.8417 32.2507 52.1224 32.2221 52.1167C32.2119 52.0483 32.2119 51.9788 32.2221 51.9104C32.2531 51.7157 32.301 51.524 32.3653 51.3376C32.6229 50.6561 33.0438 50.0483 33.5911 49.5675C34.4088 48.8641 35.3256 48.285 36.3121 47.849C37.3948 47.3392 38.6035 46.8122 39.8809 46.2852C42.4358 45.2369 44.8073 44.4235 46.5373 43.885C47.4023 43.6158 48.1068 43.421 48.5938 43.3121C48.8471 43.2336 49.1084 43.1836 49.3728 43.1632Z" fill="#E0E0E0"/>
<path d="M54.9925 29.3694C54.9302 29.4478 54.8612 29.5207 54.7863 29.5871L54.1561 30.1599L51.8075 32.2909L43.9883 39.2737C40.9408 41.989 38.3 44.5839 36.4726 46.5373C35.5618 47.5111 34.84 48.3246 34.3474 48.886L33.7746 49.5333C33.7124 49.6137 33.6413 49.6867 33.5626 49.7509C33.5626 49.7509 33.6142 49.6593 33.7287 49.4989C33.8433 49.3385 34.0209 49.1094 34.2558 48.8172C34.7255 48.2444 35.4014 47.3966 36.3237 46.3998C38.6756 43.8249 41.1613 41.3755 43.7706 39.0618C46.8353 36.3523 49.6193 33.9063 51.6471 32.1877L54.053 30.1198L54.7175 29.547C54.7991 29.4735 54.8919 29.4136 54.9925 29.3694Z" fill="#E0E0E0"/>
<path d="M40.6715 42.0348C40.5913 42.0004 41.2443 40.5282 41.863 38.6665C42.4817 36.8048 42.8082 35.2295 42.8884 35.2295C42.8248 36.4328 42.5695 37.6182 42.1322 38.741C41.862 39.543 41.5465 40.3291 41.1871 41.0953C41.0627 41.4323 40.8889 41.7489 40.6715 42.0348Z" fill="#E0E0E0"/>
<path d="M32.2623 53.8982C32.0852 53.7251 31.9277 53.533 31.7926 53.3254L30.5839 51.7787C29.5757 50.4727 28.178 48.6682 26.6084 46.6919C25.0388 44.7156 23.601 42.9628 22.5527 41.6911L21.3211 40.1673C21.1627 39.9896 21.0208 39.7979 20.8972 39.5945C21.0871 39.7432 21.2583 39.9144 21.407 40.1043C21.7221 40.4423 22.1689 40.9406 22.7074 41.5708C23.79 42.8196 25.2622 44.5724 26.8318 46.5487C28.4014 48.525 29.7762 50.3581 30.7443 51.7043C31.2312 52.3745 31.6207 52.9244 31.89 53.3082C32.0352 53.4908 32.16 53.6886 32.2623 53.8982Z" fill="#E0E0E0"/>
<path d="M28.5046 49.0807C27.7454 48.2406 27.2027 47.2279 26.9235 46.1306C26.6312 45.1702 26.511 44.1656 26.5684 43.1633H26.6944C26.6371 43.3867 26.597 43.507 26.5741 43.5013C26.5512 43.4955 26.5741 43.3752 26.5741 43.1404H26.7001C26.7644 44.1105 26.9334 45.0708 27.2042 46.0046C27.5583 47.0617 27.993 48.0901 28.5046 49.0807Z" fill="#E0E0E0"/>
<path d="M23.6583 42.9628C23.3182 42.7064 22.949 42.4911 22.5584 42.3212C21.5683 42.0303 20.5286 41.9484 19.5052 42.0806C18.4698 42.1589 17.4427 42.3237 16.4348 42.5733C16.0211 42.7063 15.5979 42.8078 15.1688 42.8769C15.5483 42.6573 15.9572 42.4934 16.3832 42.39C17.3885 42.0793 18.4267 41.887 19.4766 41.8171C20.5387 41.6745 21.6195 41.7905 22.6272 42.1551C23.054 42.2968 23.4185 42.5823 23.6583 42.9628Z" fill="#E0E0E0"/>
<path d="M22.5069 41.5019C22.5069 41.542 21.8654 41.2441 20.8228 40.889C18.0961 39.9547 15.176 39.7319 12.3391 40.2417C11.2564 40.4364 10.6206 40.6369 10.5862 40.5911C10.7217 40.504 10.8708 40.4401 11.0273 40.4021C11.4435 40.2562 11.8682 40.1357 12.299 40.0412C13.7261 39.7316 15.1905 39.6294 16.6468 39.7376C18.1011 39.8494 19.5312 40.1737 20.8915 40.7C21.3054 40.8627 21.7073 41.0541 22.0945 41.2728C22.2422 41.3292 22.3811 41.4063 22.5069 41.5019Z" fill="#E0E0E0"/>
<path d="M32.2219 35.2466C31.7236 33.8533 31.3142 32.4298 30.9961 30.9847C30.5843 29.5617 30.2667 28.1131 30.0452 26.6483C30.5436 28.0493 30.9531 29.4805 31.271 30.9331C31.6784 32.3495 31.9961 33.7902 32.2219 35.2466Z" fill="#E0E0E0"/>
<path d="M32.3024 35.2466C31.9051 34.3665 31.4476 33.5147 30.9333 32.6975C30.3596 31.9242 29.6876 31.229 28.9341 30.6295C29.2189 30.6999 29.4836 30.8351 29.7074 31.0248C30.2745 31.4424 30.7682 31.9516 31.1681 32.5313C31.7788 33.3207 32.17 34.2574 32.3024 35.2466Z" fill="#E0E0E0"/>
<path d="M32.245 91.4364C32.2106 91.4364 32.1533 90.9609 31.9356 90.1303C31.6109 88.9595 31.1715 87.8236 30.6238 86.7391C29.2719 83.9666 26.803 80.4379 23.6753 76.9436C22.1229 75.1735 20.6164 73.5065 19.3389 71.8969C18.1919 70.4899 17.1558 68.996 16.2399 67.4287C15.6223 66.3692 15.099 65.2574 14.676 64.1063C14.5271 63.6996 14.424 63.3788 14.3667 63.1611C14.3258 63.0523 14.2988 62.9387 14.2865 62.8231C14.2865 62.8231 14.4526 63.2699 14.7791 64.0719C15.2413 65.1957 15.787 66.2834 16.4117 67.3256C17.3488 68.8679 18.394 70.3419 19.5394 71.7365C20.8226 73.3232 22.3406 74.9845 23.8873 76.7603C27.0264 80.2832 29.4839 83.8348 30.8071 86.6474C31.339 87.7459 31.7519 88.8981 32.0387 90.0845C32.1304 90.5141 32.1934 90.8406 32.2163 91.0697C32.2373 91.1908 32.2469 91.3135 32.245 91.4364Z" fill="#E0E0E0"/>
<path d="M47.723 73.9475C47.4649 74.1191 47.195 74.2722 46.9153 74.4058C46.1795 74.8176 45.4749 75.2828 44.8072 75.7978C43.8212 76.5631 42.8979 77.4059 42.0461 78.3183C41.0723 79.3436 40.0756 80.5294 39.0559 81.8068C37.0166 84.3674 35.1091 86.6301 33.9691 88.4346C33.3963 89.3339 32.9667 90.0901 32.6917 90.6171C32.4167 91.1441 32.2621 91.442 32.2449 91.4362C32.2277 91.4305 32.2449 91.3503 32.3194 91.2071C32.3938 91.0639 32.4626 90.8405 32.5886 90.5713C32.9481 89.8002 33.3517 89.0504 33.7973 88.3257C34.9086 86.4755 36.799 84.1841 38.8325 81.6293C39.8579 80.3518 40.8661 79.1603 41.8571 78.135C42.7253 77.2162 43.67 76.373 44.6812 75.6145C45.3661 75.1081 46.0946 74.6634 46.858 74.2855C47.1215 74.148 47.3449 74.0678 47.4881 74.0048C47.5633 73.9747 47.6424 73.9554 47.723 73.9475Z" fill="#E0E0E0"/>
<path d="M48.0266 79.6244C47.4606 79.7486 46.8862 79.831 46.3081 79.8708C44.9308 80.0138 43.5695 80.2823 42.241 80.6727C40.9277 81.0987 39.6959 81.7436 38.5977 82.5803C37.7556 83.2333 37.3604 83.7661 37.326 83.726C37.2916 83.6859 37.3948 83.5713 37.5781 83.3307C37.8445 82.996 38.1439 82.689 38.4717 82.4142C39.5559 81.5096 40.8047 80.823 42.1493 80.392C43.4956 79.9911 44.8832 79.7451 46.2852 79.6588C46.8633 79.5921 47.4464 79.5806 48.0266 79.6244Z" fill="#E0E0E0"/>
<path d="M37.8074 83.1129C37.7157 83.0614 38.489 81.8813 39.0905 80.2946C39.692 78.7078 39.7837 77.2872 39.8868 77.3044C39.9372 77.6097 39.9372 77.9213 39.8868 78.2266C39.7997 78.9649 39.6307 79.6911 39.3827 80.3919C39.1177 81.0872 38.7818 81.7533 38.3802 82.3797C38.2301 82.6534 38.0366 82.901 37.8074 83.1129Z" fill="#E0E0E0"/>
<path d="M52.7355 58.7216C52.649 58.7787 52.5569 58.8267 52.4606 58.8648L51.6586 59.2314C51.3034 59.386 50.8738 59.5751 50.3926 59.8042C49.9114 60.0334 49.3443 60.3083 48.7543 60.6635L47.8206 61.1962C47.4941 61.3795 47.1733 61.6029 46.8296 61.8149C46.1422 62.2331 45.449 62.7486 44.7158 63.2756C43.1479 64.4615 41.6698 65.7615 40.2935 67.1652C38.9344 68.5961 37.6859 70.1281 36.5586 71.7479C36.0545 72.4983 35.5676 73.2086 35.1723 73.9132C34.9661 74.2626 34.7599 74.5892 34.5995 74.9214L34.1011 75.8723C33.7689 76.4738 33.5283 77.0466 33.2934 77.5393C33.0585 78.0319 32.881 78.4673 32.7206 78.8224C32.5602 79.1776 32.4685 79.4239 32.3826 79.6416C32.3464 79.7396 32.3004 79.8336 32.2451 79.9223C32.2566 79.8195 32.2836 79.719 32.3253 79.6244C32.4055 79.401 32.4972 79.126 32.6175 78.7823C32.7378 78.4386 32.9039 77.9746 33.1273 77.4763C33.3507 76.9779 33.5741 76.3936 33.9006 75.7577C34.0553 75.4484 34.2157 75.1276 34.3875 74.7954C34.5594 74.4631 34.7656 74.1252 34.9604 73.77C35.3499 73.0597 35.8368 72.3379 36.3352 71.576C38.5738 68.2955 41.3534 65.419 44.5554 63.0694C45.3001 62.5481 45.9989 62.0383 46.7035 61.6258C47.0472 61.4139 47.3738 61.1962 47.7003 61.0129L48.6512 60.4916C49.224 60.1479 49.7969 59.9188 50.3181 59.6667C50.7365 59.4513 51.1668 59.26 51.607 59.0939L52.4376 58.7731C52.5343 58.7432 52.6344 58.7259 52.7355 58.7216Z" fill="#E0E0E0"/>
<path d="M40.4882 66.9303C40.5973 66.5324 40.8325 66.1807 41.1584 65.9278C41.9119 65.2705 42.8738 64.9012 43.8736 64.8853C44.8567 64.886 45.83 65.0807 46.7378 65.4581C47.1209 65.5794 47.4839 65.7571 47.8148 65.9851C47.423 65.909 47.0394 65.7958 46.6691 65.6471C45.7745 65.342 44.836 65.1853 43.8908 65.1831C42.9512 65.204 42.0424 65.523 41.2959 66.0939C41.0046 66.3506 40.7345 66.6303 40.4882 66.9303Z" fill="#E0E0E0"/>
<path d="M38.6549 68.8206C39.0159 68.0201 39.2738 67.177 39.4225 66.3116C39.4792 65.4352 39.4214 64.5552 39.2507 63.6937C39.285 63.6937 39.4397 63.9458 39.5714 64.4212C39.7364 65.0487 39.783 65.7014 39.7089 66.346C39.6345 66.9875 39.4402 67.6093 39.1361 68.179C38.8955 68.6144 38.6835 68.8378 38.6549 68.8206Z" fill="#E0E0E0"/>
<path d="M18.703 94.2432C19.1269 101.736 21.3839 109.355 24.8553 117.059H39.9553C43.2663 109.429 45.3686 101.822 45.7409 94.2432H18.703Z" fill="#E0E0E0"/>
<path d="M43.295 106.364C43.295 106.445 38.3227 106.508 32.1934 106.508C26.064 106.508 21.0861 106.445 21.0861 106.364C21.0861 106.284 26.0583 106.227 32.1934 106.227C38.3285 106.227 43.295 106.29 43.295 106.364Z" fill="#FAFAFA"/>
<path d="M42.9628 109.08C42.9628 109.16 38.3056 109.223 32.5543 109.223C26.803 109.223 22.1459 109.16 22.1459 109.08C22.1459 109 26.803 108.937 32.5543 108.937C38.3056 108.937 42.9628 109.005 42.9628 109.08Z" fill="#FAFAFA"/>
<path d="M25.1017 99.1638C25.2379 100.318 25.2839 101.48 25.2392 102.641C25.2839 103.802 25.2379 104.964 25.1017 106.118C24.9583 104.965 24.9104 103.802 24.9585 102.641C24.9104 101.48 24.9583 100.317 25.1017 99.1638Z" fill="#FAFAFA"/>
<path d="M33.1903 99.1638C33.334 100.359 33.3819 101.564 33.3336 102.767C33.3818 103.968 33.3339 105.171 33.1903 106.364C33.0468 105.171 32.9989 103.968 33.0471 102.767C32.9988 101.564 33.0467 100.359 33.1903 99.1638Z" fill="#FAFAFA"/>
<path d="M40.7859 99.101C40.9295 100.319 40.9774 101.547 40.9291 102.773C40.9774 104.001 40.9295 105.23 40.7859 106.45C40.6423 105.23 40.5944 104.001 40.6427 102.773C40.5945 101.547 40.6424 100.319 40.7859 99.101Z" fill="#FAFAFA"/>
<path d="M45.2542 99.1638C45.2542 99.2383 39.4227 99.3013 32.2279 99.3013C25.033 99.3013 19.2073 99.2383 19.2073 99.1638C19.2073 99.0894 25.033 99.0206 32.2279 99.0206C39.4227 99.0206 45.2542 99.1008 45.2542 99.1638Z" fill="#FAFAFA"/>
<path d="M82.7064 113.903C81.6106 113.904 80.5254 113.688 79.5128 113.27C78.5002 112.851 77.5801 112.237 76.805 111.462C76.0299 110.687 75.415 109.768 74.9955 108.755C74.576 107.743 74.3601 106.658 74.3601 105.562" fill="#E0E0E0"/>
<path d="M74.6294 117.752C73.2906 117.753 71.9648 117.49 70.7278 116.978C69.4907 116.467 68.3666 115.716 67.4197 114.77C66.4728 113.823 65.7216 112.7 65.2091 111.463C64.6966 110.226 64.4329 108.9 64.4329 107.562V103.053" fill="#E0E0E0"/>
<path d="M161.741 117.89H109.91H75.4312C73.0319 118.033 70.6539 117.367 68.6774 116C66.7024 114.6 65.2829 112.55 64.6676 110.208C64.3759 109.038 64.2563 107.832 64.3124 106.628V102.893H74.6407" fill="#263238"/>
<path d="M74.6408 103.202H64.4329L64.5818 103.053V106.639C64.5253 107.817 64.6411 108.996 64.9255 110.139C65.5288 112.42 66.9186 114.415 68.8494 115.77C70.7753 117.104 73.0933 117.751 75.4313 117.609H109.91H161.741" fill="#263238"/>
<path d="M90.9724 93.9969C89.6841 93.9969 88.4485 93.4852 87.5375 92.5742C86.6265 91.6632 86.1147 90.4276 86.1147 89.1393" fill="#455A64"/>
<path d="M79.3839 34.588C79.0751 33.6675 78.4952 32.862 77.7203 32.2772C76.9453 31.6924 76.0116 31.3557 75.0418 31.3113C75.5401 29.9022 74.572 28.2639 73.1972 27.6738C72.492 27.4193 71.7413 27.3153 70.9934 27.3685C70.2455 27.4218 69.5171 27.6312 68.8551 27.9832C67.8985 28.4357 67.0106 29.0716 65.9909 29.3064C64.639 29.61 63.2356 29.1861 61.8436 29.1403C60.4146 29.1105 59.0052 29.4762 57.7709 30.197C56.5367 30.9177 55.5256 31.9655 54.8492 33.2246C54.3852 34.1068 54.0988 35.0692 53.589 35.9227C53.1765 36.6044 52.6381 37.2001 52.2314 37.8875C51.671 38.891 51.4169 40.0366 51.5004 41.1829C51.5839 42.3292 52.0013 43.426 52.7011 44.3377L72.2463 39.8466C73.0493 40.4027 74.006 40.694 74.9827 40.6797C75.9593 40.6654 76.9071 40.3463 77.6935 39.7669C78.4799 39.1875 79.0656 38.3769 79.3686 37.4483C79.6717 36.5198 79.677 35.5197 79.3839 34.588Z" fill="#263238"/>
<path d="M124.369 106.49L105.54 104.623L104.451 114.401L125.715 113.668L124.369 106.49Z" fill="#FFBF9D"/>
<path d="M138.672 112.219C138.554 112.39 138.387 112.522 138.193 112.598C137.999 112.673 137.787 112.689 137.584 112.643C137.497 112.622 137.412 112.591 137.332 112.551C136.759 112.265 137.017 111.073 137.017 111.073L134.262 110.162C134.262 110.162 130.2 111.955 128.642 113.324C127.084 114.694 123.945 112.883 123.945 112.883L123.733 106.668L129.69 102.779C129.69 102.779 129.324 103.008 129.822 102.206C130.32 101.404 131.907 101.971 131.907 101.971C132.234 101.576 133.328 101.593 133.328 101.593L137.813 102.842C138.27 102.967 138.692 103.194 139.049 103.506C139.406 103.817 139.689 104.205 139.875 104.64L141.33 108.009C141.33 108.009 142.001 110.374 141.754 110.873C141.651 111.074 141.476 111.23 141.265 111.31C141.053 111.39 140.82 111.39 140.609 111.308C140.609 111.308 140.15 112.723 139.767 112.712C139.379 112.63 139.01 112.476 138.678 112.259L138.672 112.219Z" fill="#FFBF9D"/>
<path d="M129.799 112.505C129.906 112.46 130.007 112.404 130.103 112.339L130.962 111.847C132.043 111.255 133.156 110.723 134.296 110.254H134.227L136.983 111.182L136.902 111.05C136.86 111.281 136.841 111.515 136.845 111.749C136.841 112.01 136.917 112.266 137.063 112.482C137.151 112.593 137.271 112.673 137.406 112.712C137.531 112.766 137.666 112.796 137.802 112.797C138.082 112.8 138.354 112.702 138.569 112.522C138.622 112.476 138.672 112.426 138.718 112.374L138.753 112.333L138.581 112.368L138.667 112.419C138.776 112.482 138.89 112.545 139.01 112.603C139.13 112.665 139.255 112.719 139.383 112.763L139.589 112.82C139.677 112.846 139.77 112.846 139.858 112.82C140.001 112.745 140.119 112.63 140.196 112.488C140.272 112.371 140.339 112.248 140.397 112.122C140.516 111.871 140.619 111.612 140.706 111.348L140.523 111.44C140.708 111.512 140.91 111.532 141.106 111.498C141.302 111.463 141.484 111.376 141.634 111.245C141.789 111.104 141.891 110.914 141.92 110.707C141.944 110.516 141.944 110.324 141.92 110.134C141.821 109.404 141.667 108.682 141.462 107.974C141.216 107.401 140.952 106.794 140.689 106.175L140.202 105.03C140.052 104.64 139.86 104.267 139.629 103.918C139.383 103.578 139.072 103.289 138.713 103.071C138.353 102.875 137.967 102.732 137.567 102.647L133.334 101.501H133.299C133.035 101.499 132.772 101.526 132.514 101.581C132.239 101.619 131.982 101.744 131.781 101.936L131.947 101.908C131.732 101.764 131.485 101.676 131.227 101.65C130.969 101.624 130.709 101.661 130.469 101.759C130.044 101.978 129.718 102.351 129.559 102.801L129.604 102.75C127.886 103.855 126.5 104.761 125.503 105.414L124.392 106.147C124.256 106.227 124.13 106.321 124.014 106.428C124.157 106.364 124.294 106.289 124.426 106.204L125.572 105.511L129.725 102.933H129.753V102.893C129.897 102.504 130.181 102.183 130.55 101.994C130.754 101.916 130.973 101.888 131.191 101.911C131.408 101.935 131.616 102.011 131.798 102.131L131.89 102.194L131.965 102.108C132.125 101.966 132.325 101.874 132.537 101.845C132.779 101.801 133.025 101.778 133.271 101.776H133.236L137.458 102.962C137.83 103.039 138.188 103.174 138.518 103.363C138.844 103.559 139.127 103.821 139.348 104.13C139.561 104.463 139.735 104.819 139.87 105.19C140.036 105.568 140.196 105.946 140.362 106.336L141.136 108.129C141.337 108.82 141.488 109.524 141.588 110.237C141.608 110.402 141.608 110.57 141.588 110.735C141.571 110.878 141.502 111.008 141.393 111.102C141.282 111.197 141.147 111.26 141.003 111.284C140.859 111.308 140.71 111.293 140.574 111.239L140.437 111.194L140.391 111.331C140.31 111.583 140.214 111.829 140.105 112.07C140.022 112.291 139.886 112.487 139.709 112.643C139.672 112.654 139.632 112.654 139.595 112.643C139.536 112.636 139.478 112.62 139.423 112.597C139.304 112.559 139.189 112.511 139.079 112.454L138.753 112.282L138.672 112.236L138.495 112.27V112.299C138.461 112.343 138.423 112.384 138.38 112.419C138.22 112.556 138.018 112.635 137.807 112.643C137.701 112.64 137.596 112.617 137.498 112.574C137.405 112.55 137.321 112.498 137.258 112.425C137.069 112.043 137.024 111.606 137.132 111.194V111.09L137.04 111.056L134.273 110.168H134.239H134.204C133.064 110.654 131.958 111.217 130.893 111.852C130.521 112.081 130.24 112.265 130.057 112.391C129.968 112.421 129.882 112.46 129.799 112.505Z" fill="#FF9A6C"/>
<path d="M132.434 103.684C132.867 103.97 133.337 104.196 133.832 104.354C135.033 104.802 136.286 105.095 137.561 105.225L137.424 105.099C137.469 105.333 137.51 105.585 137.573 105.838C137.898 107.257 138.493 108.601 139.325 109.796C139.577 110.156 139.852 110.499 140.15 110.821C140.368 111.045 140.494 111.159 140.511 111.142C140.528 111.125 140.093 110.604 139.503 109.676C138.742 108.475 138.19 107.154 137.87 105.769C137.813 105.522 137.767 105.276 137.727 105.047V104.932H137.613C136.359 104.81 135.123 104.555 133.924 104.171C132.99 103.873 132.451 103.644 132.434 103.684Z" fill="#FF9A6C"/>
<path d="M136.335 107.035C136.461 108.958 137.335 110.755 138.77 112.041C138.839 111.978 138.002 111.033 137.338 109.641C136.673 108.249 136.444 107.018 136.335 107.035Z" fill="#FF9A6C"/>
<path d="M123.332 110.907C123.332 110.907 123.372 110.947 123.464 111.016C123.599 111.106 123.74 111.187 123.887 111.257C124.441 111.53 125.042 111.697 125.658 111.749C126.602 111.834 127.551 111.652 128.396 111.222C129.472 110.671 130.324 109.764 130.807 108.656L130.624 108.736C131.681 109.115 132.786 109.345 133.906 109.418C134.322 109.441 134.739 109.441 135.155 109.418C135.572 109.421 135.986 109.355 136.381 109.223C136.602 109.148 136.787 108.995 136.902 108.793C136.949 108.687 136.973 108.572 136.973 108.455C136.973 108.339 136.949 108.224 136.902 108.117C136.821 107.903 136.658 107.73 136.45 107.636L135.946 107.424C134.611 106.851 133.379 106.427 132.343 106.09C131.306 105.752 130.446 105.517 129.856 105.373C129.551 105.282 129.239 105.217 128.923 105.179C129.214 105.305 129.515 105.409 129.822 105.488C130.395 105.671 131.243 105.935 132.274 106.296C133.305 106.657 134.514 107.115 135.837 107.682L136.335 107.9C136.471 107.964 136.576 108.079 136.627 108.22C136.685 108.36 136.685 108.516 136.627 108.656C136.546 108.794 136.415 108.897 136.261 108.942C135.891 109.062 135.504 109.12 135.115 109.114C134.709 109.137 134.301 109.137 133.895 109.114C132.803 109.045 131.726 108.828 130.693 108.467L130.561 108.421L130.509 108.547C130.057 109.598 129.261 110.465 128.252 111.004C127.451 111.431 126.547 111.629 125.64 111.577C125.05 111.541 124.469 111.407 123.922 111.182C123.73 111.08 123.533 110.989 123.332 110.907Z" fill="#FF9A6C"/>
<path d="M63.2929 82.2995C61.0591 82.2486 58.9341 81.3249 57.373 79.7264C55.8119 78.1278 54.9389 75.9815 54.941 73.7471L54.5858 45.3859C54.2535 37.7671 58.2863 31.2253 65.6988 31.0649H66.3805C73.2832 31.3571 78.8054 37.0511 79.0803 44.1486C79.3266 50.7476 79.5959 57.129 79.4126 60.6577C79.0345 67.9614 71.8053 68.6775 71.8053 68.6775C71.8053 68.6775 71.8053 71.4042 71.8053 73.5523C71.8235 74.6819 71.6176 75.8038 71.1994 76.8533C70.7813 77.9028 70.1592 78.859 69.3692 79.6665C68.5793 80.4741 67.637 81.117 66.597 81.5582C65.557 81.9993 64.4398 82.2299 63.3101 82.2365L63.2929 82.2995Z" fill="#FFBF9D"/>
<path d="M71.8051 68.7863C68.5117 68.6362 65.3349 67.5228 62.6683 65.5841C62.6683 65.5841 64.6733 71.1693 71.7879 70.8141L71.8051 68.7863Z" fill="#FF9A6C"/>
<path d="M76.4567 50.7018C76.4522 50.9698 76.343 51.2254 76.1524 51.4138C75.9618 51.6022 75.705 51.7086 75.437 51.71C75.3057 51.7131 75.1751 51.6899 75.0529 51.6417C74.9307 51.5936 74.8194 51.5215 74.7255 51.4297C74.6315 51.3379 74.5569 51.2282 74.506 51.1072C74.455 50.9861 74.4288 50.8561 74.4288 50.7248C74.4333 50.4563 74.5423 50.2001 74.7328 50.0107C74.9232 49.8214 75.18 49.7138 75.4485 49.7108C75.5803 49.7078 75.7113 49.7312 75.8339 49.7797C75.9565 49.8282 76.0681 49.9008 76.1621 49.9932C76.2561 50.0856 76.3306 50.1959 76.3812 50.3177C76.4318 50.4394 76.4575 50.57 76.4567 50.7018Z" fill="#263238"/>
<path d="M77.4362 47.3679C77.3044 47.4997 76.5597 46.881 75.4656 46.8352C74.3715 46.7893 73.5523 47.3221 73.4378 47.1789C73.3232 47.0357 73.5237 46.8753 73.8846 46.606C74.3653 46.2879 74.9358 46.1332 75.5114 46.1649C76.0794 46.181 76.6265 46.3821 77.0695 46.7378C77.3961 47.0586 77.4992 47.3106 77.4362 47.3679Z" fill="#263238"/>
<path d="M66.5466 50.7018C66.5407 50.9703 66.4302 51.2259 66.2387 51.4142C66.0472 51.6025 65.7898 51.7086 65.5213 51.71C65.3902 51.7123 65.2599 51.6886 65.1381 51.6401C65.0162 51.5917 64.9052 51.5196 64.8114 51.4279C64.7176 51.3363 64.643 51.227 64.5918 51.1062C64.5405 50.9855 64.5138 50.8559 64.5131 50.7248C64.5204 50.4572 64.6303 50.2026 64.8201 50.0139C65.0099 49.8251 65.2651 49.7166 65.5327 49.7108C65.6648 49.7078 65.7961 49.7312 65.919 49.7796C66.0419 49.828 66.1539 49.9005 66.2483 49.9929C66.3428 50.0852 66.4178 50.1955 66.4691 50.3172C66.5203 50.439 66.5467 50.5698 66.5466 50.7018Z" fill="#263238"/>
<path d="M66.7242 47.1731C66.5924 47.3048 65.842 46.6861 64.7536 46.6403C63.6652 46.5945 62.8404 47.1272 62.7258 46.984C62.6112 46.8408 62.806 46.6804 63.1669 46.4112C63.6502 46.0941 64.2222 45.9396 64.7995 45.9701C65.367 45.9882 65.9135 46.1891 66.3576 46.5429C66.6841 46.8637 66.7872 47.1158 66.7242 47.1731Z" fill="#263238"/>
<path d="M70.2931 55.9661C70.8759 55.8072 71.4764 55.7225 72.0804 55.7141C72.361 55.7141 72.6532 55.6511 72.6532 55.4563C72.6897 55.1608 72.6358 54.8612 72.4985 54.5971C72.2637 53.8925 72.0231 53.1535 71.7653 52.3802C70.7456 49.2238 70.0468 46.6518 70.1384 46.5888C70.2301 46.5258 71.1925 49.0749 72.2121 52.2312L72.9167 54.4653C73.0797 54.8247 73.1141 55.2292 73.0141 55.611C72.9712 55.71 72.9059 55.7977 72.8234 55.8673C72.7409 55.9368 72.6434 55.9864 72.5386 56.012C72.3828 56.0478 72.223 56.0633 72.0632 56.0578C71.4717 56.1083 70.8762 56.0775 70.2931 55.9661Z" fill="#263238"/>
<path d="M67.2168 43.6731C67.0564 43.9538 66.0081 43.6101 64.7192 43.5242C63.4303 43.4383 62.3476 43.5987 62.2274 43.3008C62.1758 43.1576 62.4049 42.9055 62.8689 42.6936C63.4776 42.4346 64.1403 42.3284 64.7994 42.3842C65.4589 42.422 66.0996 42.6185 66.6668 42.9571C67.0965 43.2607 67.2855 43.5356 67.2168 43.6731Z" fill="#263238"/>
<path d="M77.6194 44.0683C77.3845 44.3146 76.5024 44.0282 75.4312 43.9823C74.36 43.9365 73.4549 44.1026 73.2544 43.8277C73.1627 43.6959 73.3117 43.4439 73.7126 43.2147C74.2653 42.9303 74.8856 42.8034 75.5056 42.8481C76.1202 42.8777 76.7148 43.0759 77.2241 43.421C77.6079 43.6787 77.7225 43.9422 77.6194 44.0683Z" fill="#263238"/>
<path d="M54.9466 50.8221C54.8263 50.7648 50.1233 49.1036 50.0775 54.1331C50.0316 59.1626 54.9237 58.143 54.9351 58.0055C54.9466 57.868 54.9466 50.8221 54.9466 50.8221Z" fill="#FFBF9D"/>
<path d="M53.4685 56.0979C53.4685 56.0979 53.3825 56.1552 53.2393 56.224C53.1386 56.266 53.0305 56.2877 52.9214 56.2877C52.8122 56.2877 52.7042 56.266 52.6035 56.224C52.0936 56.0235 51.6697 55.1814 51.6526 54.282C51.6415 53.8527 51.7256 53.4262 51.8989 53.0333C52.0535 52.6724 52.2827 52.4146 52.5462 52.3745C52.6443 52.3482 52.7486 52.3581 52.84 52.4022C52.9315 52.4464 53.0041 52.5219 53.0446 52.6151C53.1076 52.7583 53.0732 52.8557 53.1018 52.8671C53.1305 52.8786 53.2049 52.7812 53.1648 52.575C53.1397 52.4528 53.0753 52.3422 52.9815 52.2599C52.8479 52.157 52.6795 52.1098 52.5118 52.1282C52.3091 52.1677 52.1202 52.2592 51.9635 52.3938C51.8068 52.5284 51.6878 52.7013 51.6182 52.8958C51.408 53.3291 51.3039 53.8063 51.3146 54.2878C51.3146 55.296 51.8301 56.2411 52.529 56.4588C52.6596 56.5007 52.7982 56.511 52.9336 56.4891C53.069 56.4672 53.1973 56.4137 53.3081 56.3328C53.457 56.2182 53.4856 56.1037 53.4685 56.0979Z" fill="#FF9A6C"/>
<path d="M58.4293 38.3343C58.5437 37.6944 58.8303 37.0976 59.2582 36.6082C59.6861 36.1187 60.2392 35.755 60.8581 35.5561C61.9273 35.1961 63.0874 35.2123 64.1462 35.6019C66.8844 36.5986 71.5587 38.088 72.7846 37.1314C74.5432 35.7566 74.9614 34.84 74.9614 34.84L75.9295 35.8883C76.7143 35.4415 74.3542 32.8179 72.418 31.9186C69.4965 30.5495 65.0341 29.7074 62.336 30.4922C59.0881 31.4374 56.39 33.0986 54.7574 36.1346C53.1845 39.2417 52.4444 42.7036 52.6093 46.1822C52.6379 47.242 52.4431 50.2723 53.4685 50.5071C54.259 50.6904 55.273 51.0399 55.2157 52.5693C55.1768 53.1238 55.3579 53.6712 55.7198 54.0931C56.6077 55.0726 57.6961 54.1561 58.2002 53.2396C59.2714 51.2805 59.3917 48.9376 59.4833 46.6978C59.6359 45.105 59.5334 43.498 59.1797 41.9375C58.8229 40.949 58.5713 39.9256 58.4293 38.8843C58.4094 38.7015 58.4094 38.5171 58.4293 38.3343Z" fill="#263238"/>
<path d="M70.459 58.6757C70.459 58.7502 70.2642 58.9392 69.8117 59.0366C69.2113 59.1532 68.5892 59.0559 68.0531 58.7617C67.5173 58.4685 67.0971 58.0019 66.8616 57.4384C66.6954 57.0088 66.7183 56.7166 66.7985 56.6994C66.8787 56.6823 67.3313 57.6446 68.3567 58.206C69.382 58.7674 70.459 58.5039 70.459 58.6757Z" fill="#263238"/>
<path d="M75.5402 125.406L52.2715 120.296L37.3377 83.2334C37.3377 83.2334 17.3571 87.6442 14.0576 98.8318C11.1934 108.484 5.31605 151.143 18.6975 177.448C20.4045 180.759 22.9927 183.534 26.1766 185.468C29.3606 187.402 33.0168 188.419 36.7419 188.406H138.547C144.755 188.407 150.747 186.12 155.375 181.981C160.004 177.843 162.945 172.144 163.637 165.974C164.21 160.819 164.611 155.932 164.53 152.753L148.182 140.202L75.5402 125.406Z" fill="#455A64"/>
<g opacity="0.3">
<path opacity="0.3" d="M137.773 138.3C144.939 147.66 153.658 156.058 164.089 161.563L164.582 148.858L145.323 135.155L137.773 138.3Z" fill="black"/>
</g>
<path d="M60.9157 76.0269C60.9157 76.6971 66.2087 78.8911 68.5974 77.923C72.2407 76.4737 71.7881 73.6152 71.7881 73.6152L73.8103 75.7462L94.0715 106.616L109.131 116.561L85.0264 124.197L59.7585 95.1597L60.9157 76.0269Z" fill="#F5F5F5"/>
<path d="M54.5284 65.6643L53.9957 66.6553L51.5897 71.1464L41.5823 77.5278L62.1643 101.965L71.5589 124.174L94.0714 131.22C94.0714 131.22 83.3593 114.745 80.0311 106.33C76.7029 97.9151 76.365 98.3103 73.3289 92.1351C71.2662 87.7725 69.4307 83.306 67.8297 78.7536L54.5284 65.6643Z" fill="#FF725E"/>
<path d="M102.75 109.721L107.166 113.84L108.415 116.389L91.9977 108.747L80.1457 92.1352C80.1457 92.1352 75.9239 82.7693 74.4746 79.4125C73.6776 77.5264 72.7867 75.6815 71.8052 73.8846V71.0948L77.7971 76.491L82.7922 77.9804L91.127 91.1556L102.75 109.721Z" fill="#FF725E"/>
<path d="M97.6918 94.2088C97.6918 94.2088 95.6984 89.9526 94.0715 86.4182C90.4054 78.4557 81.7612 77.6996 81.7612 77.6996L91.3162 104.199L103.025 112.499C103.025 112.499 106.353 113.645 106.771 112.499C106.771 112.499 109.206 103.712 109.131 103.678C109.057 103.643 100.82 101.174 100.82 101.174L97.4971 93.7276" fill="#FF725E"/>
<path d="M115.295 85.9255L103.924 104.875L115.833 104.52L126.333 86.9681C126.426 86.8146 126.476 86.6392 126.479 86.4599C126.481 86.2805 126.435 86.1039 126.347 85.948C126.258 85.7922 126.129 85.6628 125.974 85.5733C125.819 85.4837 125.642 85.4372 125.463 85.4386H116.166C115.991 85.4379 115.819 85.4823 115.666 85.5676C115.514 85.6529 115.386 85.7762 115.295 85.9255Z" fill="#263238"/>
<path d="M71.5587 107.361L100.023 103.97L104.829 95.5951L108.575 93.5329C108.886 93.3625 109.239 93.2839 109.593 93.3062C109.947 93.3285 110.288 93.4508 110.575 93.6589L110.93 93.9167L113.708 93.5672C114.182 93.5098 114.662 93.6062 115.077 93.8422L117.048 94.9879C117.191 95.0713 117.31 95.1908 117.392 95.3346C117.475 95.4784 117.518 95.6413 117.517 95.807C117.518 95.9486 117.487 96.0884 117.426 96.2163C117.366 96.3441 117.277 96.4568 117.167 96.5458C117.057 96.6349 116.929 96.6981 116.791 96.7309C116.653 96.7636 116.51 96.7651 116.372 96.735L114.458 96.3799L111.526 97.3365C111.526 97.3365 113.416 97.537 113.657 98.9748C113.897 100.413 112.94 100.436 112.94 100.436C112.94 100.436 114.928 101.581 113.513 103.3C113.513 103.3 115.175 104.4 113.313 106.502C112.058 107.923 103.002 112.545 103.002 112.545L71.5358 124.243L71.5587 107.361Z" fill="#FFBF9D"/>
<path d="M113.468 103.283C113.468 103.283 113.685 103.283 113.932 103.54C114.095 103.731 114.209 103.96 114.262 104.206C114.315 104.453 114.306 104.708 114.235 104.95C113.982 105.619 113.56 106.211 113.009 106.668C112.392 107.275 111.723 107.827 111.01 108.318C109.711 109.201 108.337 109.968 106.903 110.609C106.327 110.902 105.727 111.145 105.11 111.337C105.659 110.989 106.234 110.683 106.828 110.42C108.214 109.735 109.553 108.96 110.838 108.1C111.539 107.617 112.201 107.08 112.82 106.496C113.351 106.065 113.768 105.51 114.035 104.881C114.104 104.669 114.124 104.443 114.091 104.223C114.058 104.002 113.974 103.792 113.846 103.609C113.645 103.363 113.456 103.311 113.468 103.283Z" fill="#FF9A6C"/>
<path d="M110.798 93.9911C110.364 94.2604 109.881 94.4432 109.378 94.5295C108.899 94.7126 108.389 94.7983 107.877 94.7816C108.311 94.511 108.793 94.3281 109.297 94.2431C109.777 94.0641 110.287 93.9785 110.798 93.9911Z" fill="#FF9A6C"/>
<path d="M114.465 96.3512C113.848 96.7147 113.182 96.9886 112.488 97.1646C111.825 97.4386 111.127 97.618 110.415 97.6974C111.033 97.3367 111.698 97.0629 112.391 96.8839C113.055 96.6131 113.752 96.4339 114.465 96.3512Z" fill="#FF9A6C"/>
<path d="M111.05 100.149C110.964 100.149 110.924 99.8914 110.827 99.6164C110.729 99.3414 110.615 99.118 110.678 99.0436C110.741 98.9691 110.993 99.1581 111.113 99.5076C111.233 99.857 111.13 100.166 111.05 100.149Z" fill="#FF9A6C"/>
<path d="M112.024 103.437C111.938 103.437 111.973 103.013 111.852 102.543C111.732 102.074 111.526 101.73 111.589 101.673C111.652 101.616 112.013 101.925 112.162 102.475C112.311 103.025 112.099 103.466 112.024 103.437Z" fill="#FF9A6C"/>
<path d="M42.3901 77.0181C41.4392 77.5909 33.3908 83.0844 34.5651 92.0894C35.7394 101.094 53.549 121.442 57.2839 121.843L71.5704 124.197V107.361L64.6964 106.966L55.7028 89.3627L42.3901 77.0181Z" fill="#FF725E"/>
<path d="M71.5589 106.548C71.3919 106.586 71.2205 106.604 71.0491 106.599L69.6056 106.656L64.4844 106.765H64.4156L64.3698 106.702L60.7495 101.839C58.5899 98.9174 56.6537 96.2709 55.2617 94.3404L53.6291 92.0491C53.4157 91.7763 53.2241 91.4871 53.0563 91.1841C53.2993 91.4287 53.5216 91.6931 53.7208 91.9746L55.4393 94.2087C56.8771 96.1048 58.8477 98.7341 61.0015 101.656L64.5932 106.548L64.4787 106.485H69.5998H71.0434C71.2169 106.488 71.3896 106.509 71.5589 106.548Z" fill="#263238"/>
<path d="M68.0817 81.0049C67.9747 80.8437 67.8826 80.6731 67.8067 80.4951C67.6177 80.1113 67.3828 79.6187 67.0964 79.0172H67.2511C66.7336 79.7749 66.2722 80.5694 65.8705 81.3944C65.3654 82.4965 64.7655 83.5525 64.0776 84.5508L63.963 84.7054L63.8427 84.5565C62.9147 83.4108 61.855 82.1964 60.7207 80.9591C58.2232 78.2438 55.8402 75.9009 54.1388 74.1824L52.1282 72.1775C51.8704 71.9375 51.6345 71.6748 51.4236 71.3927C51.7022 71.6059 51.9663 71.8375 52.2141 72.0858L54.2935 74.0564C56.012 75.7348 58.4466 78.0663 60.9499 80.7815C62.0955 82.0246 63.1496 83.2504 64.0718 84.4076H63.8312C64.5172 83.427 65.1225 82.3925 65.6414 81.3142C66.06 80.4854 66.5487 79.694 67.1021 78.9484L67.1938 78.8224L67.2511 78.9656L67.8869 80.4722C67.9709 80.6422 68.0362 80.8208 68.0817 81.0049Z" fill="#263238"/>
<path d="M77.8315 76.6972C78.0217 76.9544 78.1687 77.2407 78.2669 77.545C78.496 78.1179 78.7366 78.937 79.0116 79.9166L79.2064 80.6097L78.7653 80.0369C78.1236 79.2458 77.4207 78.5065 76.663 77.8257C75.9985 77.2128 75.3512 76.6514 74.7611 76.1416L75.0017 76.0442C74.9189 76.985 74.8902 77.9299 74.9158 78.874C74.9375 79.2483 74.889 79.6232 74.7726 79.9796C74.7382 79.9796 74.7726 79.5672 74.7325 78.874C74.658 77.9207 74.658 76.9631 74.7325 76.0098L74.7611 75.7406L74.9731 75.9182C75.5459 76.4223 76.2333 76.9779 76.9036 77.5909C77.6741 78.2893 78.3797 79.0562 79.0116 79.8822L78.7596 80.0082C78.5132 79.0115 78.3127 78.1866 78.1294 77.6195C78.0064 77.3203 77.9068 77.0119 77.8315 76.6972Z" fill="#263238"/>
<path d="M98.528 104.148C98.281 103.962 98.0526 103.753 97.8463 103.523L96.0877 101.73C95.3488 100.957 94.4723 100.092 93.5099 99.0207C93.0689 98.4479 92.6793 97.8407 92.2211 97.2335C91.755 96.5862 91.3557 95.8934 91.0296 95.1655C90.3479 93.6819 89.8323 92.2211 89.3683 90.8979C88.9043 89.5746 88.5033 88.3774 88.1253 87.3921C87.7472 86.4068 87.4092 85.6163 87.1457 85.1008C86.9891 84.8358 86.8513 84.5601 86.7333 84.2759C86.7333 84.2759 86.7963 84.3332 86.8879 84.4649C86.9796 84.5967 87.1171 84.78 87.2546 85.0378C87.6647 85.7773 88.0263 86.5427 88.3372 87.3291C88.7439 88.3144 89.1736 89.5059 89.649 90.8234C90.1245 92.1409 90.6515 93.5902 91.3217 95.051C91.6389 95.7596 92.0225 96.4367 92.4674 97.0731C92.9314 97.6803 93.3209 98.3161 93.7391 98.8603C94.6384 99.8857 95.5378 100.814 96.2424 101.598C96.947 102.383 97.4969 102.973 97.9323 103.46C98.1509 103.671 98.3502 103.901 98.528 104.148Z" fill="#263238"/>
<path d="M106.794 113.657L160.818 112.139C161.675 112.11 162.527 112.269 163.316 112.603C165.281 113.439 168.815 115.581 171.238 120.731C174.755 128.178 191.133 159.684 191.133 159.684L174.566 168.174L154.248 130.487L91.6539 125.148L92.3814 120.147L106.794 113.657Z" fill="#263238"/>
<path d="M169.646 161.54L178.279 176.354L178.851 180.1C179.019 181.201 179.618 182.19 180.515 182.849C181.412 183.509 182.534 183.785 183.635 183.617L209.911 179.607C210.221 179.566 210.518 179.454 210.778 179.28C211.039 179.106 211.255 178.874 211.412 178.603C211.569 178.332 211.661 178.028 211.682 177.716C211.702 177.403 211.651 177.09 211.532 176.801C211.419 176.544 211.247 176.318 211.03 176.141C210.813 175.964 210.557 175.84 210.283 175.781C208.083 175.208 191.127 168.999 191.127 168.999L184.058 154.832L169.646 161.54Z" fill="#E0E0E0"/>
<path d="M176.881 164.977C176.158 164.248 175.507 163.45 174.939 162.594C174.283 161.801 173.708 160.945 173.22 160.039C173.942 160.768 174.591 161.566 175.157 162.422C175.813 163.216 176.39 164.072 176.881 164.977Z" fill="#263238"/>
<path d="M182.036 162.886C180.663 161.342 179.613 159.539 178.949 157.582C179.023 157.548 179.63 158.779 180.484 160.24C181.337 161.701 182.105 162.835 182.036 162.886Z" fill="#263238"/>
<path d="M185.64 183.136C185.582 183.136 185.445 182.621 185.067 181.853C184.564 180.848 183.844 179.967 182.959 179.274C182.075 178.58 181.047 178.092 179.951 177.843C179.109 177.643 178.565 177.631 178.565 177.574C179.038 177.466 179.53 177.466 180.003 177.574C181.161 177.769 182.252 178.251 183.176 178.977C184.1 179.702 184.826 180.648 185.29 181.727C185.508 182.166 185.627 182.647 185.64 183.136Z" fill="#263238"/>
<path d="M203.357 180.587C203.141 180.297 202.997 179.959 202.939 179.602C202.731 178.748 202.775 177.853 203.065 177.024C203.366 176.208 203.832 175.463 204.434 174.836C204.887 174.36 205.219 174.12 205.248 174.154C205.276 174.188 205.019 174.492 204.618 174.996C204.1 175.642 203.687 176.365 203.392 177.138C203.128 177.916 203.055 178.745 203.18 179.556C203.266 179.894 203.326 180.239 203.357 180.587Z" fill="#263238"/>
<path d="M90.2449 121.023C90.2449 121.023 146.005 115.438 148.709 115.662C153.71 116.074 162.932 123.956 179.298 134.943C187.777 140.702 195.647 147.311 202.785 154.666L197.555 166.604C197.555 166.604 160.893 153.24 155.136 148.434C150.359 144.424 141.64 138.753 141.64 138.753L120.136 138.97L104.148 140.379C100.205 140.729 96.2369 140.077 92.6135 138.482C88.9901 136.888 85.8285 134.403 83.4224 131.26L77.2072 123.16L90.2449 121.023Z" fill="#263238"/>
<path d="M141.37 138.627C141.37 138.627 141.462 138.678 141.628 138.793L142.379 139.314C143.049 139.778 144.017 140.46 145.243 141.342C147.758 143.135 151.452 145.713 155.972 149.138C156.259 149.35 156.545 149.597 156.831 149.78L157.754 150.353C158.418 150.685 159.083 151.046 159.787 151.378L161.947 152.381L164.238 153.383C167.331 154.723 170.669 156.119 174.251 157.57C181.4 160.475 189.42 163.637 198.076 166.959L197.887 167.045L202.624 155.016L202.658 155.182L196.151 148.548C194.627 147.219 192.983 145.816 191.31 144.424C181.335 136.2 170.9 128.55 160.056 121.51C158.588 120.253 157.004 119.139 155.325 118.182C153.732 117.252 152.034 116.516 150.267 115.988C149.831 115.868 149.396 115.776 148.966 115.673L147.666 115.473L146.366 115.404H140.064L123.229 115.369L112.299 115.329H109.406H108.661H108.409C108.493 115.324 108.578 115.324 108.661 115.329H109.406H112.299L123.229 115.284H140.064H145.065H146.36L147.683 115.352L149.012 115.553C149.448 115.656 149.889 115.753 150.33 115.868C152.119 116.402 153.84 117.144 155.457 118.079C157.152 119.046 158.754 120.17 160.24 121.436C171.104 128.467 181.554 136.118 191.54 144.349C193.218 145.741 194.856 147.156 196.386 148.48C198.62 150.771 200.825 153.011 202.893 155.119L202.962 155.193L202.928 155.291C201.289 159.432 199.691 163.471 198.173 167.32L198.121 167.463L197.984 167.406C189.323 163.889 181.303 160.715 174.143 157.794C170.574 156.333 167.228 154.93 164.135 153.566L161.844 152.558L159.684 151.544C158.985 151.212 158.315 150.845 157.651 150.507L156.705 149.935C156.396 149.74 156.133 149.493 155.846 149.281C151.349 145.844 147.672 143.238 145.174 141.422L142.31 139.348L141.577 138.81C141.451 138.667 141.37 138.627 141.37 138.627Z" fill="#455A64"/>
<path d="M185.702 163.579L201.169 169.657L203.741 172.441C204.116 172.846 204.566 173.173 205.067 173.404C205.568 173.634 206.11 173.764 206.661 173.785C207.212 173.806 207.762 173.719 208.279 173.528C208.796 173.336 209.271 173.045 209.676 172.67L229.186 154.62C229.421 154.412 229.605 154.153 229.723 153.863C229.842 153.572 229.892 153.258 229.87 152.946C229.848 152.633 229.754 152.329 229.596 152.058C229.437 151.787 229.219 151.557 228.957 151.384C228.72 151.236 228.451 151.146 228.172 151.121C227.894 151.096 227.613 151.137 227.353 151.241C225.217 152.008 207.682 156.345 207.682 156.345L195.91 146.973L185.702 163.579Z" fill="#E0E0E0"/>
<path d="M185.702 163.579C185.753 163.479 185.808 163.382 185.868 163.287L186.384 162.428C186.848 161.655 187.53 160.538 188.395 159.106C190.165 156.207 192.702 152.031 195.842 146.916L195.905 146.807L196.008 146.887L207.768 156.236L207.648 156.207L218.108 153.572L223.636 152.14C224.569 151.888 225.514 151.636 226.454 151.361C226.689 151.298 226.918 151.223 227.153 151.149C227.396 151.056 227.65 150.996 227.909 150.971C228.178 150.955 228.447 150.996 228.699 151.089C228.952 151.183 229.182 151.328 229.375 151.515C229.744 151.891 229.967 152.385 230.005 152.91C230.043 153.434 229.893 153.955 229.582 154.38C229.429 154.589 229.254 154.781 229.06 154.953L228.522 155.445L227.462 156.425C226.059 157.731 224.667 159.014 223.303 160.274L215.438 167.538L211.778 170.917L210.025 172.533C209.742 172.812 209.431 173.061 209.097 173.278C208.282 173.779 207.323 173.995 206.372 173.891C205.421 173.787 204.532 173.37 203.844 172.705C202.864 171.679 201.971 170.683 201.089 169.737H201.129L189.81 165.223L186.745 164.015L185.96 163.694L185.702 163.579L185.989 163.683L186.796 163.992L189.895 165.178L201.192 169.56C202.074 170.494 202.985 171.502 203.953 172.504C204.467 172.999 205.103 173.348 205.796 173.518C206.489 173.688 207.215 173.672 207.9 173.472C208.256 173.369 208.597 173.219 208.914 173.026C209.232 172.816 209.528 172.574 209.796 172.304L211.549 170.683L215.203 167.291L223.057 160.016L227.21 156.167L228.27 155.187C228.63 154.877 228.971 154.544 229.289 154.191C229.563 153.824 229.695 153.372 229.664 152.916C229.632 152.46 229.439 152.03 229.118 151.705C228.954 151.546 228.759 151.422 228.545 151.343C228.331 151.263 228.103 151.228 227.875 151.241C227.643 151.262 227.415 151.316 227.199 151.401C226.958 151.475 226.723 151.556 226.488 151.619C225.537 151.894 224.598 152.146 223.664 152.398L218.125 153.83L207.665 156.448H207.596L207.545 156.402L195.813 147.013L195.979 146.984C192.834 152.054 190.251 156.178 188.486 159.048L186.413 162.365L185.84 163.236L185.702 163.579Z" fill="#263238"/>
<path d="M211.045 171.158C211.01 171.204 210.598 170.843 209.836 170.425C208.854 169.88 207.765 169.554 206.645 169.468C205.525 169.398 204.402 169.566 203.351 169.961C202.544 170.27 202.086 170.568 202.051 170.534C202.393 170.189 202.805 169.923 203.26 169.755C204.328 169.265 205.502 169.053 206.675 169.136C207.847 169.219 208.979 169.595 209.968 170.23C210.389 170.459 210.756 170.776 211.045 171.158Z" fill="#263238"/>
<path d="M224.289 159.134C223.948 159.019 223.641 158.823 223.395 158.561C222.742 157.971 222.276 157.202 222.055 156.35C221.845 155.507 221.814 154.629 221.963 153.772C221.989 153.416 222.089 153.069 222.255 152.753C222.284 153.103 222.268 153.455 222.209 153.801C222.137 154.627 222.199 155.458 222.393 156.264C222.596 157.054 222.989 157.781 223.538 158.384C223.979 158.842 224.323 159.088 224.289 159.134Z" fill="#263238"/>
<path d="M131.89 138.627C130.693 132.956 128.247 127.17 123.406 123.951C119.734 121.527 115.192 120.926 110.804 120.387L19.4764 109.131C18.663 123.532 24.821 141.451 31.1107 154.431C32.0846 156.442 33.2131 158.504 35.0805 159.736C37.3719 161.237 40.2819 161.225 43.0086 161.156C73.7413 160.372 104.485 159.065 135.046 155.703C133.311 150.164 133.082 144.281 131.89 138.627Z" fill="#455A64"/>
<path d="M53.0676 113.261C52.7073 113.269 52.347 113.246 51.9907 113.193L49.0692 112.878C46.606 112.597 43.2091 112.173 39.4627 111.658C35.7163 111.142 32.3251 110.621 29.8849 110.191C28.659 109.979 27.6737 109.796 27.0207 109.618C26.6583 109.581 26.2999 109.512 25.9495 109.412C26.3096 109.429 26.6678 109.475 27.0207 109.549L29.9192 109.991C32.371 110.363 35.7564 110.844 39.5085 111.36L49.0978 112.677L52.0078 113.095C52.3642 113.128 52.7182 113.184 53.0676 113.261Z" fill="#263238"/>
<path d="M53.5374 188.406C53.5014 188.35 53.4707 188.291 53.4457 188.229C53.3827 188.097 53.2968 187.925 53.1937 187.702L52.2657 185.662C52.0652 185.215 51.8418 184.717 51.5955 184.179C51.3491 183.64 51.1429 183.033 50.8851 182.386C50.3925 181.091 49.7738 179.636 49.2526 177.975C48.97 177.142 48.6797 176.275 48.3818 175.374C48.084 174.475 47.8376 173.512 47.5512 172.51C46.9497 170.545 46.4857 168.403 45.9587 166.157C43.8434 156.367 43.1469 146.324 43.8908 136.335C44.1027 134.044 44.2689 131.85 44.5897 129.822C44.7443 128.808 44.8532 127.823 45.0193 126.883C45.1854 125.944 45.363 125.05 45.5234 124.197C45.8155 122.478 46.228 120.949 46.5373 119.614C46.7034 118.944 46.8409 118.314 46.9956 117.741L47.4538 116.183C47.7231 115.266 47.9408 114.545 48.0897 114.029L48.2673 113.456C48.2811 113.392 48.3042 113.33 48.336 113.273C48.3317 113.339 48.3182 113.405 48.2959 113.468L48.1527 114.04C48.0152 114.556 47.8205 115.278 47.5799 116.206C47.4462 116.675 47.303 117.197 47.1502 117.77C47.007 118.342 46.8753 118.973 46.7206 119.649C46.4285 121 46.0275 122.513 45.7525 124.231C45.6036 125.09 45.4375 125.984 45.2713 126.918C45.1052 127.852 45.0078 128.843 44.8646 129.851C44.5496 131.879 44.3949 134.061 44.1887 136.352C43.4803 146.329 44.1744 156.356 46.2509 166.14C46.7722 168.386 47.2247 170.522 47.8147 172.481C48.0954 173.467 48.3303 174.429 48.6224 175.346C48.9146 176.262 49.1953 177.11 49.4702 177.94C49.9801 179.607 50.5815 181.062 51.0627 182.357C51.309 183.004 51.521 183.612 51.7444 184.161L52.386 185.651L53.2739 187.679L53.4973 188.217C53.5172 188.279 53.5306 188.342 53.5374 188.406Z" fill="#263238"/>
<path d="M52.5694 159.386C51.3745 159.491 50.1726 159.491 48.9777 159.386C47.777 159.383 46.579 159.273 45.3975 159.06C46.5922 158.951 47.7944 158.951 48.9892 159.06C50.19 159.06 51.3883 159.169 52.5694 159.386Z" fill="#263238"/>
<path d="M51.7388 163.557C50.4638 163.445 49.2166 163.12 48.0498 162.594C46.8445 162.162 45.7211 161.528 44.7273 160.721C44.7789 160.635 46.2339 161.517 48.1643 162.296C50.0948 163.075 51.756 163.459 51.7388 163.557Z" fill="#263238"/>
<path d="M43.736 134.88C43.0207 135.326 42.2008 135.575 41.3587 135.602C40.5255 135.736 39.6718 135.647 38.884 135.344C38.884 135.253 39.9953 135.419 41.3301 135.281C42.6648 135.144 43.7016 134.789 43.736 134.88Z" fill="#263238"/>
<path d="M45.5636 133.5C44.6773 133.691 43.7525 133.576 42.94 133.173C42.0867 132.868 41.3606 132.285 40.8778 131.518C41.5641 132.043 42.2965 132.505 43.066 132.898C43.8783 133.175 44.7143 133.377 45.5636 133.5Z" fill="#263238"/>
<path d="M77.7283 35.367C77.4987 34.7735 77.1312 34.2431 76.6561 33.8198C76.1809 33.3964 75.6119 33.0923 74.9959 32.9324C73.7543 32.6299 72.453 32.6795 71.2381 33.0756L59.3689 35.7909C61.0874 36.9365 64.6218 38.0135 66.6497 38.2254C69.6112 38.5405 71.6964 38.5691 73.4664 37.5552C73.8273 38.7696 75.4771 39.3081 76.5827 38.7009C77.118 38.3525 77.5216 37.8351 77.7292 37.2311C77.9368 36.627 77.9365 35.9709 77.7283 35.367Z" fill="#263238"/>
<path d="M196.311 159.879C195.091 159.674 193.9 159.328 192.76 158.848C191.586 158.461 190.463 157.936 189.414 157.284C189.449 157.21 190.967 157.857 192.851 158.567C194.736 159.278 196.334 159.822 196.311 159.879Z" fill="#263238"/>
<path d="M198.929 154.798C197.888 154.376 196.871 153.898 195.882 153.366C194.85 152.924 193.843 152.429 192.863 151.882C193.959 152.155 195.018 152.563 196.014 153.096C197.051 153.544 198.03 154.115 198.929 154.798Z" fill="#263238"/>
<path d="M104.382 118.858L128.315 119.15L157.204 113.422C157.659 113.332 158.076 113.105 158.397 112.769C158.718 112.434 158.927 112.008 158.997 111.549L162.926 85.5303C162.971 85.2316 162.944 84.9267 162.849 84.6403C162.753 84.3539 162.591 84.0941 162.376 83.882C162.161 83.6699 161.899 83.5115 161.612 83.4196C161.324 83.3278 161.019 83.3051 160.721 83.3535L131.18 88.1596C130.771 88.2239 130.394 88.4198 130.107 88.7175C129.819 89.0152 129.637 89.3986 129.587 89.8094L126.299 116.286L104.422 116.183C104.245 116.181 104.068 116.215 103.904 116.282C103.739 116.349 103.589 116.448 103.463 116.573C103.337 116.698 103.237 116.847 103.168 117.011C103.1 117.175 103.065 117.351 103.065 117.529C103.071 117.878 103.211 118.211 103.456 118.458C103.702 118.706 104.034 118.849 104.382 118.858Z" fill="#E0E0E0"/>
<path d="M104.382 118.858C104.227 118.868 104.072 118.841 103.93 118.778C103.713 118.701 103.519 118.569 103.367 118.396C103.216 118.222 103.112 118.012 103.065 117.787C102.993 117.45 103.05 117.098 103.225 116.801C103.332 116.624 103.475 116.472 103.647 116.356C103.818 116.241 104.012 116.164 104.216 116.131C105.093 116.131 106.09 116.131 107.218 116.131L126.299 116.171L126.196 116.269C127.136 108.65 128.253 99.6564 129.49 89.6375C129.56 89.3041 129.712 88.9934 129.932 88.7333C130.152 88.4733 130.433 88.2722 130.75 88.1481C131.064 88.0484 131.386 87.9794 131.713 87.9419L132.663 87.7872L136.519 87.1571L144.464 85.8625L152.69 84.5221L156.894 83.8347L159.02 83.491L160.085 83.3191C160.45 83.237 160.823 83.1967 161.196 83.1988C161.606 83.2335 161.995 83.3886 162.316 83.6445C162.638 83.9004 162.876 84.2456 163.001 84.6366C163.109 85.0212 163.121 85.4265 163.035 85.8167L162.863 86.9623C162.642 88.4403 162.42 89.9106 162.199 91.3732C161.76 94.2947 161.324 97.1684 160.893 99.9944C160.461 102.82 160.043 105.578 159.638 108.266L159.329 110.288C159.277 110.621 159.232 110.959 159.18 111.291C159.149 111.641 159.056 111.982 158.905 112.299C158.743 112.615 158.514 112.892 158.232 113.109C157.951 113.325 157.625 113.477 157.278 113.553L155.342 113.937L128.316 119.247L110.775 118.984L106.038 118.898H104.806H104.388C104.388 118.898 104.531 118.898 104.806 118.898H106.038L110.781 118.927L128.321 119.099L155.319 113.714L157.25 113.33C157.555 113.261 157.842 113.126 158.09 112.934C158.337 112.742 158.539 112.498 158.682 112.219C158.821 111.93 158.905 111.617 158.928 111.296L159.083 110.294C159.18 109.624 159.283 108.948 159.386 108.272C159.791 105.557 160.207 102.786 160.635 99.96C161.063 97.134 161.496 94.2698 161.935 91.3675C162.153 89.9067 162.377 88.4403 162.6 86.9566L162.766 85.8453C162.858 85.5 162.858 85.1366 162.766 84.7913C162.659 84.4571 162.456 84.1619 162.182 83.9428C161.907 83.7236 161.575 83.5904 161.225 83.5597C160.876 83.5652 160.529 83.6055 160.188 83.68L159.123 83.8518L156.998 84.1955L152.793 84.8829L144.561 86.2177L136.616 87.5065L132.761 88.1309L131.753 88.2169C131.444 88.2526 131.139 88.3159 130.842 88.4059C130.568 88.5141 130.325 88.6884 130.135 88.9133C129.945 89.1383 129.814 89.4068 129.753 89.6948C128.493 99.6736 127.359 108.69 126.402 116.292V116.389H126.305L107.224 116.246C106.078 116.246 105.087 116.211 104.234 116.246C104.041 116.273 103.857 116.343 103.694 116.45C103.532 116.557 103.395 116.698 103.294 116.864C103.129 117.146 103.07 117.477 103.128 117.798C103.173 118.016 103.271 118.219 103.414 118.389C103.557 118.559 103.74 118.691 103.947 118.772C104.088 118.817 104.235 118.846 104.382 118.858Z" fill="#263238"/>
<path d="M132.148 88.9846C132.234 88.9846 131.438 95.9045 130.378 104.417C129.318 112.929 128.396 119.82 128.316 119.809C128.235 119.798 129.026 112.889 130.086 104.377C131.145 95.8644 132.068 88.9732 132.148 88.9846Z" fill="#263238"/>
<path d="M144.991 99.731C144.389 100.986 144.722 102.395 145.73 102.876C146.738 103.357 148.021 102.733 148.645 101.478C149.27 100.224 148.915 98.8202 147.907 98.3333C146.898 97.8464 145.592 98.4765 144.991 99.731Z" fill="white"/>
<path d="M155.863 44.1085H100.762C100.003 44.1085 99.274 44.4103 98.7369 44.9474C98.1997 45.4846 97.8979 46.2131 97.8979 46.9727V72.0802C97.8979 72.8398 98.1997 73.5683 98.7369 74.1055C99.274 74.6426 100.003 74.9444 100.762 74.9444H123.876L128.785 81.2456L132.881 74.9444H155.863C156.623 74.9444 157.352 74.6426 157.889 74.1055C158.426 73.5683 158.728 72.8398 158.728 72.0802V46.9727C158.728 46.2131 158.426 45.4846 157.889 44.9474C157.352 44.4103 156.623 44.1085 155.863 44.1085Z" fill="white"/>
<path d="M155.864 44.1085C155.864 44.1085 155.955 44.1085 156.139 44.1085C156.407 44.1313 156.671 44.1911 156.923 44.286C157.337 44.4437 157.708 44.6969 158.006 45.025C158.425 45.4746 158.688 46.047 158.756 46.6576C158.808 49.39 158.796 53.3655 158.814 58.4008C158.814 60.9212 158.814 63.6995 158.814 66.7184C158.814 68.2249 158.814 69.7945 158.814 71.4156C158.831 71.8328 158.812 72.2506 158.756 72.6644C158.624 73.3152 158.278 73.9033 157.774 74.3358C157.27 74.7684 156.636 75.0208 155.972 75.0532H132.853L132.967 74.9901L128.889 81.3429L128.78 81.509L128.66 81.3486L123.745 75.0474L123.859 75.099H101.622C101.221 75.099 100.843 75.099 100.419 75.099C100.004 75.0531 99.604 74.9204 99.2443 74.7094C98.8876 74.5011 98.5775 74.2217 98.3332 73.8887C98.0888 73.5557 97.9154 73.176 97.8237 72.7733C97.7523 72.3765 97.7254 71.973 97.7435 71.5703V70.4246C97.7435 67.3198 97.7435 64.2647 97.7435 61.2592V52.3459C97.7435 50.9023 97.7435 49.4702 97.7435 48.0496V46.9727C97.7428 46.4196 97.8948 45.8772 98.1829 45.4051C98.471 44.933 98.8839 44.5497 99.3761 44.2975C99.6968 44.1294 100.047 44.0244 100.407 43.9882C100.768 43.9538 101.106 43.9882 101.45 43.9882H115.095H128.774L148.589 44.0397H153.979H155.377H155.852C155.852 44.0397 155.692 44.0397 155.377 44.0397H153.979H148.589L128.774 44.0856H115.095H107.47H101.461C101.117 44.0856 100.768 44.0856 100.447 44.0856C100.121 44.1231 99.8046 44.2201 99.5135 44.372C98.9197 44.681 98.4592 45.1964 98.2189 45.8213C98.0977 46.1336 98.0355 46.4658 98.0356 46.8008V52.1511C98.0356 55.0497 98.0356 58.0036 98.0356 61.0129V71.3641C98.0164 71.7473 98.0395 72.1315 98.1044 72.5098C98.232 73.0582 98.5252 73.5542 98.9444 73.9303C99.3635 74.3064 99.8882 74.5444 100.447 74.6121C100.814 74.6464 101.226 74.6121 101.593 74.6121H123.934L123.974 74.6636L128.883 80.9648H128.654C130.069 78.7823 131.461 76.6456 132.75 74.6636L132.79 74.6006H132.899H156.007C156.42 74.5801 156.823 74.4663 157.186 74.268C157.549 74.0696 157.863 73.7916 158.103 73.4549C158.341 73.1312 158.505 72.7599 158.585 72.3665C158.641 71.9682 158.66 71.5655 158.642 71.1636C158.642 69.5425 158.642 67.9729 158.642 66.4663C158.642 63.4475 158.642 60.6692 158.642 58.1487C158.642 53.1192 158.688 49.1265 158.642 46.417C158.577 45.8232 158.329 45.2644 157.932 44.8188C157.642 44.494 157.281 44.241 156.877 44.0798C156.54 44.0392 156.198 44.0488 155.864 44.1085Z" fill="#263238"/>
<path d="M113.691 49.6134H108.203C107.798 49.6134 107.47 49.9417 107.47 50.3466V54.2648C107.47 54.6698 107.798 54.9981 108.203 54.9981H113.691C114.096 54.9981 114.424 54.6698 114.424 54.2648V50.3466C114.424 49.9417 114.096 49.6134 113.691 49.6134Z" fill="#FF725E"/>
<path d="M107.584 49.7509L110.231 52.5807C110.373 52.7707 110.575 52.9078 110.804 52.9702C110.947 52.9933 111.094 52.9784 111.229 52.9272C111.365 52.8759 111.485 52.79 111.577 52.6781C112.058 52.1797 112.522 51.6756 112.992 51.1715L114.321 49.7509C114.384 49.6878 114.287 49.5847 114.224 49.6535L111.703 52.3458C111.587 52.4943 111.452 52.6272 111.302 52.7411C110.924 52.9817 110.603 52.7411 110.351 52.4776L108.902 50.9825L107.693 49.6535C107.63 49.5847 107.527 49.6878 107.59 49.7509H107.584Z" fill="white"/>
<path d="M107.556 54.9581L109.681 52.5464L109.979 52.2027C110.042 52.134 109.939 52.0309 109.882 52.1053L107.756 54.517L107.453 54.8607C107.395 54.9294 107.493 55.0268 107.556 54.9581Z" fill="white"/>
<path d="M114.315 54.7232L112.328 52.4318L112.041 52.0996C111.978 52.0308 111.881 52.1339 111.938 52.2027C112.603 52.9665 113.265 53.7303 113.926 54.494L114.218 54.8263C114.275 54.895 114.378 54.7919 114.315 54.7232Z" fill="white"/>
<path d="M119.557 54.1388V52.3515L118.675 53.8467H118.366L117.495 52.4146V54.1617H116.859V51.1658H117.432L118.543 53.0103L119.637 51.1658H120.21V54.1388H119.557Z" fill="#263238"/>
<path d="M123.085 53.1822H121.367C121.402 53.3246 121.488 53.4494 121.608 53.5336C121.728 53.6179 121.874 53.6558 122.02 53.6405C122.126 53.6444 122.231 53.6266 122.33 53.5882C122.428 53.5497 122.518 53.4915 122.593 53.4171L122.948 53.8009C122.827 53.9278 122.68 54.0269 122.516 54.0912C122.353 54.1555 122.178 54.1835 122.003 54.1732C121.838 54.1891 121.672 54.1705 121.514 54.1185C121.357 54.0666 121.212 53.9824 121.089 53.8713C120.967 53.7603 120.868 53.6248 120.8 53.4736C120.733 53.3224 120.698 53.1588 120.697 52.9932C120.692 52.8339 120.721 52.6754 120.782 52.5279C120.842 52.3804 120.933 52.2471 121.047 52.1366C121.162 52.0261 121.299 51.9407 121.449 51.886C121.598 51.8313 121.758 51.8084 121.917 51.8189C122.075 51.8124 122.232 51.8387 122.379 51.8959C122.526 51.9532 122.66 52.0402 122.772 52.1515C122.883 52.2629 122.971 52.3961 123.029 52.5429C123.087 52.6897 123.114 52.8469 123.108 53.0046C123.097 53.0562 123.085 53.1249 123.085 53.1822ZM121.367 52.7927H122.513C122.513 52.6408 122.452 52.4951 122.345 52.3876C122.237 52.2802 122.092 52.2198 121.94 52.2198C121.788 52.2198 121.642 52.2802 121.535 52.3876C121.427 52.4951 121.367 52.6408 121.367 52.7927Z" fill="#263238"/>
<path d="M123.315 53.9269L123.538 53.4457C123.777 53.5903 124.05 53.6675 124.329 53.6691C124.638 53.6691 124.753 53.5889 124.753 53.4629C124.753 53.0848 123.372 53.4629 123.372 52.5578C123.372 52.1224 123.762 51.8188 124.426 51.8188C124.732 51.8111 125.036 51.8801 125.308 52.0193L125.085 52.489C124.884 52.375 124.657 52.3158 124.426 52.3172C124.134 52.3172 124.002 52.4146 124.002 52.5291C124.002 52.9244 125.383 52.5291 125.383 53.4457C125.383 53.8696 124.988 54.1732 124.306 54.1732C123.96 54.1788 123.618 54.0939 123.315 53.9269Z" fill="#263238"/>
<path d="M125.572 53.9269L125.789 53.4457C126.03 53.5897 126.305 53.6669 126.586 53.6691C126.889 53.6691 127.004 53.5889 127.004 53.4629C127.004 53.0848 125.623 53.4629 125.623 52.5578C125.623 52.1224 126.018 51.8188 126.683 51.8188C126.989 51.8111 127.292 51.8801 127.565 52.0193L127.342 52.489C127.141 52.3758 126.914 52.3166 126.683 52.3172C126.385 52.3172 126.259 52.4146 126.259 52.5291C126.259 52.9244 127.64 52.5291 127.64 53.4457C127.64 53.8696 127.244 54.1732 126.557 54.1732C126.213 54.1783 125.873 54.0934 125.572 53.9269Z" fill="#263238"/>
<path d="M130.068 52.8327V54.1388H129.461V53.8466C129.383 53.9568 129.278 54.0445 129.155 54.1008C129.032 54.1572 128.897 54.1801 128.762 54.1674C128.224 54.1674 127.909 53.8695 127.909 53.4743C127.909 53.079 128.195 52.7869 128.888 52.7869H129.415C129.415 52.5062 129.244 52.3401 128.888 52.3401C128.652 52.3384 128.421 52.4127 128.23 52.552L127.995 52.088C128.288 51.9001 128.632 51.8043 128.98 51.813C129.662 51.8188 130.068 52.1281 130.068 52.8327ZM129.404 53.4055V53.1707H128.951C128.642 53.1707 128.545 53.2852 128.545 53.4342C128.545 53.5831 128.682 53.7149 128.917 53.7149C129.019 53.7228 129.121 53.6982 129.209 53.6448C129.296 53.5913 129.364 53.5116 129.404 53.417V53.4055Z" fill="#263238"/>
<path d="M133.047 51.8532V53.755C133.063 53.9263 133.039 54.0989 132.979 54.2599C132.918 54.421 132.822 54.5663 132.698 54.6852C132.573 54.804 132.424 54.8934 132.26 54.9465C132.097 54.9997 131.923 55.0153 131.753 54.9923C131.348 55.0132 130.947 54.9049 130.607 54.683L130.871 54.2018C131.105 54.3741 131.388 54.4665 131.678 54.4653C132.148 54.4653 132.349 54.2533 132.349 53.8409V53.7435C132.255 53.8389 132.142 53.9133 132.018 53.9617C131.893 54.0101 131.76 54.0314 131.627 54.0242C131.475 54.0351 131.323 54.0147 131.18 53.9643C131.037 53.9138 130.905 53.8344 130.794 53.7309C130.683 53.6274 130.594 53.5022 130.534 53.3629C130.473 53.2236 130.442 53.0734 130.442 52.9215C130.442 52.7696 130.473 52.6194 130.534 52.4801C130.594 52.3408 130.683 52.2156 130.794 52.1121C130.905 52.0086 131.037 51.9292 131.18 51.8787C131.323 51.8283 131.475 51.8079 131.627 51.8188C131.77 51.8095 131.913 51.8343 132.044 51.891C132.176 51.9478 132.292 52.0349 132.383 52.1453V51.8532H133.047ZM132.394 52.9244C132.4 52.8043 132.37 52.6854 132.307 52.5828C132.245 52.4801 132.153 52.3986 132.044 52.3487C131.934 52.2987 131.813 52.2826 131.694 52.3025C131.576 52.3224 131.466 52.3773 131.379 52.4602C131.292 52.543 131.232 52.6501 131.206 52.7674C131.18 52.8848 131.19 53.0072 131.235 53.1188C131.28 53.2304 131.356 53.326 131.456 53.3935C131.555 53.4609 131.673 53.4971 131.793 53.4972C131.87 53.5011 131.948 53.4891 132.021 53.4621C132.094 53.4351 132.16 53.3935 132.217 53.3399C132.273 53.2863 132.318 53.2218 132.348 53.1504C132.379 53.079 132.394 53.0021 132.394 52.9244Z" fill="#263238"/>
<path d="M135.889 53.1822H134.17C134.206 53.324 134.292 53.4481 134.412 53.5321C134.532 53.6162 134.677 53.6546 134.823 53.6405C134.929 53.6451 135.034 53.6276 135.133 53.5891C135.232 53.5507 135.321 53.4921 135.396 53.4171L135.751 53.8009C135.63 53.9278 135.483 54.0269 135.319 54.0912C135.156 54.1555 134.981 54.1835 134.806 54.1732C134.639 54.1944 134.469 54.1797 134.308 54.13C134.146 54.0803 133.998 53.9969 133.871 53.8852C133.745 53.7735 133.644 53.6362 133.575 53.4824C133.506 53.3286 133.471 53.1618 133.471 52.9932C133.467 52.8339 133.496 52.6754 133.556 52.5279C133.617 52.3804 133.707 52.2471 133.822 52.1366C133.937 52.0261 134.073 51.9407 134.223 51.886C134.373 51.8313 134.532 51.8084 134.691 51.8189C134.848 51.8133 135.005 51.8401 135.152 51.8977C135.298 51.9553 135.431 52.0424 135.542 52.1537C135.653 52.2649 135.741 52.3979 135.798 52.5443C135.856 52.6907 135.883 52.8474 135.877 53.0046C135.9 53.0562 135.894 53.1249 135.889 53.1822ZM134.17 52.7927H135.316C135.316 52.6408 135.255 52.4951 135.148 52.3876C135.04 52.2802 134.895 52.2198 134.743 52.2198C134.591 52.2198 134.445 52.2802 134.338 52.3876C134.23 52.4951 134.17 52.6408 134.17 52.7927Z" fill="#263238"/>
<path d="M136.118 53.9269L136.341 53.4457C136.582 53.5897 136.857 53.6669 137.137 53.6691C137.441 53.6691 137.556 53.5889 137.556 53.4629C137.556 53.0848 136.175 53.4629 136.175 52.5578C136.175 52.1224 136.565 51.8188 137.235 51.8188C137.539 51.8111 137.841 51.8801 138.111 52.0193L137.894 52.489C137.692 52.3763 137.466 52.3171 137.235 52.3172C136.937 52.3172 136.811 52.4146 136.811 52.5291C136.811 52.9244 138.191 52.5291 138.191 53.4457C138.191 53.8696 137.796 54.1732 137.109 54.1732C136.763 54.1775 136.422 54.0926 136.118 53.9269Z" fill="#263238"/>
<path d="M139.658 52.6495C139.639 52.3245 139.719 52.0014 139.886 51.7221C140.053 51.4428 140.301 51.2201 140.596 51.0828C140.891 50.9455 141.221 50.8999 141.542 50.9519C141.863 51.004 142.162 51.1512 142.399 51.3747C142.635 51.5981 142.8 51.8875 142.87 52.2053C142.941 52.5231 142.914 52.8548 142.794 53.1574C142.674 53.4601 142.466 53.7198 142.197 53.9029C141.928 54.086 141.61 54.1842 141.285 54.1847C141.075 54.1973 140.866 54.1668 140.669 54.0953C140.472 54.0238 140.292 53.9127 140.139 53.7688C139.987 53.625 139.866 53.4515 139.783 53.259C139.7 53.0665 139.657 52.8591 139.658 52.6495ZM142.213 52.6495C142.209 52.4654 142.151 52.2864 142.047 52.135C141.942 51.9836 141.794 51.8666 141.623 51.7987C141.452 51.7309 141.264 51.7151 141.084 51.7535C140.904 51.792 140.739 51.8828 140.611 52.0146C140.482 52.1464 140.395 52.3133 140.361 52.4943C140.327 52.6753 140.348 52.8624 140.42 53.0319C140.492 53.2014 140.612 53.3458 140.766 53.447C140.92 53.5482 141.1 53.6016 141.285 53.6005C141.409 53.6038 141.533 53.5813 141.649 53.5344C141.765 53.4874 141.869 53.4171 141.956 53.3278C142.044 53.2385 142.111 53.1322 142.155 53.0155C142.199 52.8987 142.219 52.7742 142.213 52.6495Z" fill="#263238"/>
<path d="M144 51.7215H143.049V51.1487H145.638V51.7215H144.687V54.1389H144V51.7215Z" fill="#263238"/>
<path d="M148.588 52.2427C148.588 52.9072 148.09 53.3139 147.294 53.3139H146.721V54.1388H146.034V51.1658H147.317C148.09 51.1658 148.588 51.5553 148.588 52.2427ZM147.89 52.2427C147.89 51.9162 147.678 51.7214 147.259 51.7214H146.687V52.7583H147.259C147.678 52.7583 147.89 52.5635 147.89 52.2427Z" fill="#263238"/>
<path d="M112.698 66.8922L112.814 63.6852L110.103 65.4054L109.403 64.1809L112.26 62.694L109.403 61.2071L110.103 59.9826L112.814 61.7027L112.698 58.4957H114.097L113.981 61.7027L116.692 59.9826L117.392 61.2071L114.534 62.694L117.392 64.1809L116.692 65.4054L113.981 63.6852L114.097 66.8922H112.698ZM122.96 66.8922L123.077 63.6852L120.365 65.4054L119.666 64.1809L122.523 62.694L119.666 61.2071L120.365 59.9826L123.077 61.7027L122.96 58.4957H124.36L124.243 61.7027L126.954 59.9826L127.654 61.2071L124.797 62.694L127.654 64.1809L126.954 65.4054L124.243 63.6852L124.36 66.8922H122.96ZM133.222 66.8922L133.339 63.6852L130.628 65.4054L129.928 64.1809L132.785 62.694L129.928 61.2071L130.628 59.9826L133.339 61.7027L133.222 58.4957H134.622L134.505 61.7027L137.217 59.9826L137.916 61.2071L135.059 62.694L137.916 64.1809L137.217 65.4054L134.505 63.6852L134.622 66.8922H133.222ZM143.485 66.8922L143.601 63.6852L140.89 65.4054L140.19 64.1809L143.048 62.694L140.19 61.2071L140.89 59.9826L143.601 61.7027L143.485 58.4957H144.884L144.768 61.7027L147.479 59.9826L148.179 61.2071L145.322 62.694L148.179 64.1809L147.479 65.4054L144.768 63.6852L144.884 66.8922H143.485Z" fill="black"/>
</g>
<defs>
<clipPath id="clip0_266_3537">
<rect width="230" height="188.406" fill="white"/>
</clipPath>
</defs>
</svg>
