<svg width="47" height="47" viewBox="0 0 47 47" fill="none" xmlns="http://www.w3.org/2000/svg">
<rect width="47" height="47" rx="6" fill="#212529"/>
<path d="M29.3534 22.5731L18.3884 17.0906C18.2404 17.022 18.0777 16.9916 17.915 17.002C17.7523 17.0124 17.5948 17.0633 17.4568 17.1502C17.3189 17.237 17.2048 17.357 17.125 17.4991C17.0452 17.6413 17.0023 17.8012 17 17.9642V28.9245C16.9987 29.0918 17.0405 29.2567 17.1214 29.4031C17.2024 29.5496 17.3197 29.6727 17.4622 29.7605C17.6046 29.8483 17.7673 29.8979 17.9345 29.9045C18.1017 29.9111 18.2678 29.8744 18.4167 29.7981L29.3534 24.3156C29.5154 24.2342 29.6516 24.1095 29.7468 23.9552C29.8419 23.8009 29.8923 23.6232 29.8923 23.442C29.8923 23.2607 29.8419 23.083 29.7468 22.9287C29.6516 22.7744 29.5154 22.6497 29.3534 22.5683V22.5731Z" fill="white"/>
</svg>
