<svg width="53" height="48" viewBox="0 0 53 48" fill="none" xmlns="http://www.w3.org/2000/svg">
<g clip-path="url(#clip0_247_2344)">
<path d="M41.9084 23.2531C41.9347 23.3497 41.9664 23.4447 42.0034 23.5377C42.3122 24.4982 42.5734 25.3994 42.7991 26.348C43.0247 27.2966 43.2028 28.1622 43.3453 29.0871C43.4878 30.012 43.5591 30.6879 43.6185 31.4586L44.236 31.0199C44.8427 30.5654 45.4144 30.066 45.946 29.5258C46.3692 29.1124 46.7658 28.6728 47.1336 28.2096C46.8743 27.9532 46.6578 27.6569 46.4923 27.3322C46.2963 26.9643 46.1752 26.5613 46.1361 26.1464C46.0982 25.7479 46.1345 25.3459 46.2429 24.9606C46.3425 24.5964 46.5031 24.2516 46.718 23.9409C46.9466 23.6157 47.2323 23.3345 47.5611 23.1108C47.8948 22.8443 48.2783 22.6468 48.6893 22.5298H48.8674C48.8429 22.1301 48.7833 21.7333 48.6893 21.344C48.5431 20.7817 48.336 20.237 48.0718 19.7195C47.7852 19.1625 47.4515 18.6309 47.0742 18.1306C46.6582 17.5945 46.2016 17.091 45.7085 16.6247C45.1523 16.1283 44.5609 15.6725 43.9391 15.261L43.6066 15.0239C43.6066 15.3322 43.6066 15.6405 43.5235 15.9488C43.4285 16.85 43.286 17.8341 43.096 18.759C42.9059 19.6839 42.6684 20.7037 42.3953 21.6523C42.2528 22.1741 42.0905 22.7077 41.9084 23.2531ZM35.6857 11.4903C36.5728 12.6757 37.3973 13.9066 38.1558 15.178C39.1352 16.8139 40.004 18.5134 40.7565 20.265C40.9227 19.6365 41.0653 19.0199 41.1959 18.3796C41.374 17.4428 41.5046 16.6247 41.5996 15.7235C41.5996 15.0713 41.6946 14.4666 41.7065 13.8618C40.9932 13.4683 40.2599 13.1121 39.5096 12.7946C38.6272 12.4376 37.7275 12.125 36.8139 11.8579L35.6857 11.4903ZM27.3729 3.40331L28.1685 3.94877C28.893 4.48236 29.6767 5.13454 30.3893 5.72742C31.1018 6.32031 31.8618 7.11477 32.5387 7.77881C32.9068 8.17011 33.2869 8.57327 33.655 8.96458C34.2963 9.09501 34.9257 9.2373 35.5551 9.39145C36.517 9.64047 37.3839 9.90133 38.2983 10.2096C39.2127 10.5179 39.9965 10.8381 40.8396 11.2175C41.1246 11.3361 41.3859 11.4666 41.659 11.597C41.659 11.3361 41.659 11.0871 41.5759 10.8381C41.4902 10.0882 41.3432 9.34665 41.1365 8.6207C40.9626 7.95259 40.728 7.30168 40.4359 6.67604C40.1769 6.10659 39.8585 5.56604 39.4858 5.06339C39.141 4.58845 38.7425 4.15476 38.2983 3.7709C37.9314 3.45165 37.5336 3.16963 37.1107 2.929C36.7325 2.70786 36.3351 2.52133 35.9232 2.37169C35.3791 2.1733 34.8128 2.0419 34.2369 1.98039C33.6171 1.91473 32.9922 1.91473 32.3724 1.98039C31.6813 2.04982 30.9977 2.18077 30.3299 2.37169C29.6005 2.55512 28.886 2.79294 28.1923 3.08315L27.3729 3.40331ZM27.3729 43.1029L28.026 43.3994C28.6927 43.6892 29.3792 43.9309 30.0805 44.1227C30.7304 44.2992 31.3937 44.4221 32.0637 44.4903C32.6798 44.549 33.3001 44.549 33.9163 44.4903C34.4942 44.4513 35.0669 44.356 35.6263 44.2057C36.1539 44.0355 36.6631 43.8131 37.1464 43.5417C37.6245 43.2632 38.0705 42.9332 38.4764 42.5575C38.9191 42.1633 39.3174 41.7219 39.664 41.2413C40.0185 40.7313 40.3209 40.1871 40.5665 39.6168C40.8436 39.0039 41.07 38.3693 41.2434 37.7195C41.3924 37.011 41.4994 36.2944 41.564 35.5733C41.564 35.344 41.5878 35.1069 41.6353 34.8618L40.8159 35.2531C39.9727 35.6207 39.1771 35.9409 38.2745 36.2492C37.372 36.5575 36.4932 36.8183 35.5313 37.0673C34.9019 37.2215 34.2844 37.3756 33.6431 37.4942C32.9425 38.2768 32.2181 39.0239 31.458 39.759C30.698 40.4942 30.0805 41.016 29.3561 41.6088C28.7205 42.1398 28.0586 42.6384 27.3729 43.1029ZM18.2051 10.7907L17.7301 11.3598C16.4136 12.945 15.2225 14.63 14.1674 16.3994C13.107 18.2042 12.186 20.0871 11.4123 22.0318C11.2461 22.4349 11.0917 22.8381 10.9492 23.2175C10.7473 23.7749 10.5692 24.3322 10.4029 24.8658C10.2367 25.3994 10.1417 25.7551 10.0229 26.2175C9.90415 26.68 9.76165 27.2492 9.66665 27.7472C9.50039 28.6958 9.35788 29.6444 9.26288 30.5693C9.18035 31.2582 9.13279 31.9508 9.12038 32.6444L9.35788 32.7749C10.1491 33.1926 10.9617 33.5686 11.7923 33.9013C12.6355 34.2452 13.6093 34.5772 14.5237 34.85L15.1531 35.0278C15.8894 35.2294 16.6731 35.4191 17.4332 35.5733L18.2051 35.7274C18.9532 35.8579 19.7133 35.9764 20.4614 36.0713C22.5414 36.3229 24.6376 36.4141 26.7316 36.344C28.7245 36.2936 30.7101 36.0834 32.6693 35.7156H32.8356C33.8331 35.5258 34.7594 35.3124 35.6976 35.0515C36.6357 34.7907 37.467 34.5298 38.3339 34.1978C39.168 33.8953 39.9847 33.547 40.7802 33.1543C41.1128 33.0001 41.4215 32.8341 41.7184 32.6681C41.7184 32.0634 41.7184 31.4824 41.6115 30.8183C41.5165 29.9171 41.3859 29.0871 41.2078 28.1503C41.0771 27.51 40.9346 26.8934 40.7684 26.265C40.6971 25.9804 40.614 25.6958 40.5309 25.3994C40.3171 24.676 40.1033 23.9883 39.8421 23.2768C39.7708 23.0515 39.6758 22.8144 39.5927 22.5772C38.8615 20.6592 37.9841 18.8 36.9682 17.016C35.9322 15.2082 34.7569 13.4837 33.4531 11.8579C33.1919 11.514 32.9068 11.182 32.6218 10.85C32.3368 10.5179 31.8499 9.96062 31.4343 9.5456C31.0187 9.13058 30.793 8.88157 30.4486 8.54956C30.0686 8.17011 29.6767 7.80252 29.2611 7.47051C28.5604 6.84205 27.7767 6.21359 27.0641 5.69185C26.5073 5.26666 25.9286 4.87087 25.3303 4.50608C24.8078 4.81438 24.309 5.15825 23.7746 5.5377C23.0439 6.05615 22.3422 6.61431 21.6727 7.20964C21.1858 7.63651 20.7227 8.06339 20.2595 8.52584L19.6182 9.17801C19.1789 9.67604 18.692 10.2096 18.2051 10.7907ZM20.3426 38.0634C20.7227 38.4428 21.1145 38.8104 21.5302 39.1424C22.2308 39.7709 23.0146 40.3994 23.7271 40.933C24.4397 41.4666 24.9147 41.7393 25.461 42.1187C26.0429 41.763 26.6485 41.3717 27.1948 40.933C27.741 40.4942 28.6911 39.7472 29.3917 39.1424C29.7599 38.8104 30.1517 38.4428 30.5793 38.0634C29.2667 38.2248 27.9469 38.3198 26.6247 38.348C24.5253 38.3969 22.4252 38.2859 20.3426 38.016V38.0634ZM9.17975 34.9211C9.17975 35.1701 9.17975 35.4073 9.25101 35.6326C9.33192 36.3531 9.46689 37.0666 9.65477 37.7669C9.82422 38.4164 10.0466 39.051 10.3198 39.6642C10.57 40.2322 10.8722 40.776 11.2223 41.2887L11.4005 41.5021C11.7032 41.3203 12.0314 41.1844 12.3742 41.099C12.7863 41.0224 13.2091 41.0224 13.6212 41.099C14.0097 41.1581 14.3865 41.2781 14.7374 41.4547C15.074 41.6379 15.3788 41.8741 15.64 42.1543C15.9196 42.4617 16.1446 42.8146 16.305 43.1978C16.4613 43.5944 16.5418 44.0167 16.5425 44.4428C16.5483 44.4782 16.5483 44.5142 16.5425 44.5496H16.9225C17.5386 44.6085 18.159 44.6085 18.7751 44.5496C19.4451 44.4814 20.1084 44.3584 20.7583 44.182C21.4634 43.9903 22.154 43.7486 22.8246 43.4586L23.4659 43.1622C22.9909 42.842 22.5159 42.51 22.0527 42.1543C21.3283 41.597 20.5445 40.9685 19.8439 40.2926C19.1432 39.6167 18.3951 38.8934 17.7182 38.1701L17.1838 37.5772C16.2219 37.3756 15.2243 37.1385 14.3099 36.8776C13.3955 36.6168 12.3861 36.2847 11.5311 35.9527C10.6761 35.6207 9.90415 35.2413 9.17975 34.8737V34.9211ZM10.0823 43.0199C9.92665 42.8404 9.7838 42.6502 9.65477 42.4507C9.25945 41.8888 8.91377 41.2937 8.62161 40.6721C8.32117 40.0202 8.07105 39.3463 7.87346 38.6563C7.65417 37.9308 7.49139 37.1894 7.38656 36.4389C7.24838 35.619 7.16112 34.7913 7.12531 33.9606C7.11903 33.8975 7.11903 33.834 7.12531 33.7709L6.68591 33.4982C6.01392 33.0656 5.3676 32.5944 4.75022 32.0871C4.17018 31.606 3.62271 31.0871 3.11141 30.5337C2.63077 30.0071 2.18641 29.4485 1.78137 28.8618C1.40712 28.2871 1.0776 27.6845 0.795707 27.0594C0.538703 26.4541 0.336025 25.8271 0.190061 25.1859C-0.0718522 23.9182 -0.0678087 22.6101 0.201936 21.344C0.346541 20.6948 0.549237 20.0598 0.807582 19.4468C1.08702 18.8243 1.41666 18.2255 1.79324 17.6563C2.19814 17.0658 2.6425 16.5032 3.12329 15.9725C3.63381 15.4225 4.17711 14.9038 4.75022 14.4191C5.38006 13.9228 6.03828 13.4636 6.72154 13.0436C6.86405 12.9488 7.00655 12.8539 7.16093 12.7709C7.16093 12.344 7.16093 11.929 7.23218 11.5021C7.29811 10.7053 7.41312 9.91329 7.57657 9.13058C7.57657 9.05944 7.57657 8.98829 7.57657 8.91715L7.29156 8.69185C6.99194 8.41245 6.74285 8.08351 6.55529 7.71952C6.35925 7.35164 6.23816 6.94862 6.19902 6.53375C6.1612 6.13529 6.19743 5.73329 6.3059 5.34798C6.40544 4.98371 6.56605 4.63892 6.78092 4.32821C7.0085 4.00616 7.28966 3.72542 7.6122 3.49817C7.97064 3.24942 8.3739 3.07225 8.79974 2.97643C9.2158 2.89948 9.64248 2.89948 10.0585 2.97643C10.2646 2.92545 10.4757 2.89761 10.6879 2.89343C11.0522 2.52206 11.4497 2.18469 11.8755 1.88553C12.3896 1.49095 12.9474 1.15674 13.538 0.889478C14.1068 0.625091 14.6992 0.414679 15.3075 0.261019C15.963 0.112905 16.6309 0.025577 17.3025 0.000149778C17.9973 -0.013036 18.692 0.0266042 19.3807 0.118727C20.1069 0.224123 20.825 0.378628 21.5302 0.581177C22.2883 0.793163 23.0304 1.05865 23.7509 1.37564C24.3358 1.62503 24.9067 1.90608 25.461 2.21754C26.1142 1.83654 26.7882 1.49213 27.4798 1.18592C28.2173 0.890295 28.9754 0.648552 29.748 0.4626C30.4721 0.268471 31.2108 0.133637 31.9568 0.0594383C32.6599 -0.00552033 33.3675 -0.00552033 34.0706 0.0594383C34.7425 0.114339 35.407 0.237506 36.0538 0.427027C36.6825 0.610514 37.2881 0.86513 37.8589 1.18592C38.4362 1.48852 38.9779 1.85442 39.4739 2.27683C39.9704 2.70554 40.4275 3.17779 40.8396 3.6879C41.2554 4.22492 41.6248 4.79613 41.944 5.39541C42.2539 6.01385 42.5236 6.65153 42.7516 7.3045C42.9926 8.01843 43.187 8.74724 43.3335 9.48632C43.482 10.2698 43.5812 11.0619 43.6303 11.8579C43.6303 12.1543 43.6303 12.4507 43.6303 12.759C44.1945 13.0951 44.7415 13.4592 45.2691 13.85C45.9272 14.3267 46.5502 14.8498 47.1336 15.4152C47.6961 15.93 48.2164 16.4891 48.6893 17.0871C49.1195 17.6523 49.4971 18.2556 49.8174 18.8895C50.123 19.4928 50.3695 20.1242 50.5537 20.7749C50.7306 21.4056 50.8381 22.0537 50.8744 22.7077L51.0762 22.8025C51.4173 22.9788 51.7232 23.2159 51.9788 23.5021C52.2648 23.8046 52.4906 24.1587 52.6438 24.5456C52.7932 24.9235 52.8737 25.3251 52.8813 25.7314C52.8802 26.326 52.7248 26.9103 52.43 27.427C52.2328 27.7567 51.9843 28.0529 51.6938 28.3045C51.369 28.573 50.9991 28.7817 50.6012 28.9211C50.2016 29.0627 49.7777 29.1232 49.3543 29.099C49.2041 29.1112 49.0532 29.1112 48.903 29.099C48.5338 29.5873 48.1374 30.0544 47.7155 30.4982C47.2071 31.0544 46.6594 31.5735 46.0767 32.0515C45.4537 32.5624 44.7993 33.0336 44.1172 33.4626C43.9747 33.5575 43.8322 33.6523 43.6778 33.7353C43.6778 34.4112 43.6185 35.0515 43.5472 35.7037C43.4596 36.504 43.3127 37.2966 43.1078 38.0752C42.9273 38.8098 42.685 39.5277 42.3834 40.2215C42.1156 40.8783 41.7814 41.506 41.3859 42.095C41.0184 42.6634 40.5926 43.192 40.1152 43.6721C39.6517 44.1147 39.1466 44.5118 38.607 44.8579C38.0665 45.2148 37.4892 45.5129 36.8851 45.7472C36.2706 45.9834 35.6341 46.1581 34.985 46.2689C34.3181 46.3809 33.6424 46.4325 32.9662 46.4231C32.2661 46.4148 31.5676 46.3554 30.8761 46.2452C30.1496 46.1053 29.4319 45.9232 28.7267 45.6998C27.9773 45.4473 27.2436 45.1504 26.5297 44.8104C26.1735 44.6444 25.8053 44.4547 25.4372 44.2531L24.9859 44.4903C24.2557 44.8731 23.5021 45.2098 22.7296 45.4982C21.9916 45.7739 21.2332 45.9919 20.4614 46.1503C19.743 46.3122 19.0119 46.4114 18.2763 46.4468C17.5822 46.4871 16.8857 46.4553 16.1981 46.3519H15.9131C15.7648 46.5638 15.5891 46.7551 15.3906 46.9211C15.0681 47.1957 14.6978 47.4087 14.2981 47.5496C13.9144 47.6725 13.5134 47.7326 13.1105 47.7274C12.6846 47.7018 12.2665 47.6014 11.8755 47.431C11.5265 47.285 11.2052 47.0805 10.9254 46.8262C10.6161 46.5529 10.3621 46.2228 10.1773 45.8539C9.79039 45.0997 9.70138 44.2279 9.92791 43.4112C9.96925 43.2616 10.0208 43.115 10.0823 42.9725V43.0199ZM9.12038 13.8618C9.12038 14.4666 9.12038 15.0476 9.23913 15.7235C9.32402 16.6157 9.45882 17.5024 9.64289 18.3796C9.76165 19.0199 9.90415 19.6365 10.0704 20.265L10.2129 19.9448C11.0566 18.0334 12.0327 16.183 13.1343 14.4073C13.7755 13.3994 14.4406 12.4152 15.1412 11.4903C14.3931 11.6918 13.6924 11.9053 12.968 12.1662C12.123 12.4569 11.2944 12.7933 10.486 13.1741C9.99916 13.3994 9.54789 13.6247 9.12038 13.8618ZM9.17975 11.6326C9.90415 11.2768 10.7236 10.9211 11.5548 10.6128C12.3861 10.3045 13.3718 9.96062 14.2506 9.6879C15.1293 9.41517 16.1625 9.18987 17.1244 9.00015C17.6469 8.40726 18.1576 7.81438 18.7157 7.3045C19.2739 6.79462 20.0695 5.98829 20.8058 5.37169C21.5421 4.75509 22.2071 4.18592 22.9552 3.71161L23.4065 3.40331L22.7652 3.10687C22.1084 2.81973 21.4341 2.57419 20.7464 2.37169C20.0961 2.19948 19.4329 2.08051 18.7632 2.01596C18.1468 1.96284 17.527 1.96284 16.9107 2.01596C16.3331 2.07122 15.7635 2.19053 15.2125 2.37169C14.6795 2.53258 14.1658 2.75127 13.6805 3.02387C13.2903 3.25218 12.9208 3.51404 12.5761 3.80647L12.2674 4.09106C12.4646 4.34369 12.6245 4.6232 12.7424 4.9211C12.8918 5.29903 12.9722 5.70062 12.9799 6.10687C12.9788 6.70154 12.8233 7.28577 12.5286 7.80252C12.3351 8.13482 12.0861 8.4316 11.7923 8.67999C11.4631 8.94547 11.0891 9.15025 10.6879 9.28473C10.3098 9.43129 9.90581 9.49986 9.50039 9.48632C9.41726 9.88948 9.33413 10.3045 9.27476 10.7551C9.21538 11.2057 9.2035 11.3361 9.17975 11.6326ZM7.22031 15.0239C6.8878 15.2452 6.56716 15.4824 6.2584 15.7353C5.66868 16.188 5.12027 16.692 4.61959 17.2413C4.151 17.7346 3.72958 18.2705 3.3608 18.842C3.01381 19.3487 2.72688 19.8938 2.50577 20.4666C2.07412 21.5133 1.89121 22.6457 1.97137 23.7749C2.01669 24.3296 2.12018 24.878 2.28013 25.4112C2.46185 25.9717 2.69232 26.5153 2.96891 27.0357C3.28526 27.5873 3.64252 28.1145 4.0377 28.6128C4.4782 29.1425 4.95431 29.6417 5.46275 30.1069C6.01667 30.6047 6.60388 31.0642 7.22031 31.4824V31.3519C7.29156 30.4745 7.41032 29.4903 7.5647 28.5772C7.71908 27.6642 7.94471 26.6444 8.19409 25.7077C8.44348 24.7709 8.65724 24.0713 8.93037 23.2531C8.81161 22.9092 8.69286 22.5535 8.58598 22.1978C8.30097 21.2373 8.06346 20.348 7.84971 19.3994C7.63595 18.4507 7.49344 17.597 7.37469 16.6721C7.30344 16.1029 7.25594 15.5575 7.22031 15.0239Z" fill="#767A9B"/>
<path d="M40.5189 25.3756C40.602 25.6721 40.6851 25.9566 40.7564 26.2412C40.1767 27.5943 39.5266 28.9163 38.8088 30.2017C37.8753 31.8773 36.8319 33.4895 35.6856 35.0278C34.7474 35.2887 33.8211 35.5021 32.8236 35.6918H32.6573C32.9305 35.3598 33.2155 35.0278 33.4768 34.6839C34.778 33.0463 35.9493 31.3098 36.98 29.4902C37.9959 27.7062 38.8733 25.847 39.6045 23.929C39.6876 23.6918 39.7826 23.4665 39.8539 23.2294C40.0914 23.9645 40.3051 24.6523 40.5189 25.3756Z" fill="#767A9B"/>
<path d="M32.6217 10.7906C32.0636 10.6721 31.4936 10.589 30.876 10.5179C28.8026 10.2339 26.7102 10.111 24.6177 10.1503C22.5885 10.1693 20.5637 10.3437 18.5612 10.6721L18.205 10.7432C18.6918 10.1622 19.1787 9.62857 19.7013 9.09498L20.3425 8.4428C22.3953 8.19907 24.4631 8.10396 26.5296 8.15822C27.8676 8.15822 29.1858 8.25308 30.4841 8.4428C30.8285 8.77482 31.1492 9.10683 31.4698 9.43885C31.7904 9.77087 32.2417 10.34 32.6217 10.7906Z" fill="#767A9B"/>
<path d="M18.205 35.7274L17.4331 35.5732C16.673 35.4191 15.8893 35.2293 15.153 35.0278C14.0839 33.6102 13.108 32.1249 12.2316 30.5811C11.4286 29.181 10.707 27.736 10.0703 26.2531C10.1891 25.7906 10.3197 25.34 10.4503 24.9013C10.581 24.4625 10.7947 23.8104 10.9966 23.2531C11.0797 23.4902 11.1629 23.7155 11.2579 23.9527C11.9849 25.8704 12.8583 27.7297 13.8704 29.5139C14.9244 31.3329 16.1153 33.0691 17.4331 34.7076C17.635 35.0515 17.92 35.3835 18.205 35.7274Z" fill="#767A9B"/>
<path d="M13.2292 48C15.2033 48 16.8037 46.4021 16.8037 44.4309C16.8037 42.4597 15.2033 40.8617 13.2292 40.8617C11.255 40.8617 9.65466 42.4597 9.65466 44.4309C9.65466 46.4021 11.255 48 13.2292 48Z" fill="#EF4141"/>
<path d="M9.6547 9.48624C11.6288 9.48624 13.2292 7.88827 13.2292 5.91707C13.2292 3.94587 11.6288 2.3479 9.6547 2.3479C7.68056 2.3479 6.0802 3.94587 6.0802 5.91707C6.0802 7.88827 7.68056 9.48624 9.6547 9.48624Z" fill="#EF4141"/>
<path d="M49.4255 29.3004C51.3996 29.3004 53 27.7025 53 25.7313C53 23.7601 51.3996 22.1621 49.4255 22.1621C47.4513 22.1621 45.851 23.7601 45.851 25.7313C45.851 27.7025 47.4513 29.3004 49.4255 29.3004Z" fill="#EF4141"/>
<path d="M30.306 23.8696C30.3036 24.8354 30.0147 25.7787 29.4756 26.5806C28.9366 27.3824 28.1716 28.0067 27.2774 28.3747C26.3832 28.7426 25.3998 28.8377 24.4515 28.6478C23.5032 28.458 22.6325 27.9918 21.9495 27.3081C21.2664 26.6244 20.8016 25.7539 20.6138 24.8065C20.426 23.8592 20.5235 22.8775 20.8942 21.9855C21.2649 21.0935 21.892 20.3312 22.6963 19.7949C23.5006 19.2586 24.4461 18.9724 25.4133 18.9724C26.712 18.9756 27.9564 19.4929 28.8737 20.411C29.7909 21.329 30.306 22.5729 30.306 23.8696Z" fill="#509DEA"/>
<path d="M14.0367 47.8815C13.7701 47.9574 13.4945 47.9973 13.2173 48C12.2724 48 11.3663 47.6252 10.6981 46.9581C10.03 46.291 9.65466 45.3862 9.65466 44.4427C9.65466 43.4993 10.03 42.5944 10.6981 41.9273C11.3663 41.2602 12.2724 40.8854 13.2173 40.8854C13.494 40.8843 13.7696 40.9202 14.0367 40.9921C13.2664 41.1849 12.5826 41.6292 12.0941 42.2543C11.6055 42.8795 11.3402 43.6497 11.3402 44.4427C11.3402 45.2357 11.6055 46.0059 12.0941 46.6311C12.5826 47.2563 13.2664 47.7005 14.0367 47.8933V47.8815Z" fill="#AD2042"/>
<path d="M10.4859 9.4032C10.2158 9.45487 9.94156 9.48264 9.66651 9.48621C8.72164 9.48621 7.81547 9.11142 7.14735 8.44429C6.47923 7.77717 6.10388 6.87235 6.10388 5.92889C6.10388 4.98544 6.47923 4.08062 7.14735 3.41349C7.81547 2.74637 8.72164 2.37158 9.66651 2.37158C9.9423 2.37314 10.2171 2.40495 10.4859 2.46644C9.68683 2.63529 8.97012 3.07318 8.45583 3.70675C7.94153 4.34033 7.66088 5.13112 7.66088 5.94668C7.66088 6.76224 7.94153 7.55303 8.45583 8.18661C8.97012 8.82018 9.68683 9.25807 10.4859 9.42692V9.4032Z" fill="#AD2042"/>
<path d="M50.2329 29.1819C49.9704 29.2577 49.6987 29.2976 49.4254 29.3004C48.4806 29.3004 47.5744 28.9257 46.9063 28.2585C46.2381 27.5914 45.8628 26.6866 45.8628 25.7431C45.8628 24.7997 46.2381 23.8949 46.9063 23.2277C47.5744 22.5606 48.4806 22.1858 49.4254 22.1858C49.6982 22.1848 49.9698 22.2207 50.2329 22.2925C49.4626 22.4853 48.7789 22.9296 48.2903 23.5547C47.8018 24.1799 47.5364 24.9501 47.5364 25.7431C47.5364 26.5361 47.8018 27.3063 48.2903 27.9315C48.7789 28.5567 49.4626 29.0009 50.2329 29.1937V29.1819Z" fill="#AD2042"/>
<path d="M26.2446 28.672C25.9749 28.7256 25.7002 28.7495 25.4252 28.7431C24.1308 28.7431 22.8893 28.2297 21.974 27.3157C21.0587 26.4018 20.5444 25.1622 20.5444 23.8696C20.5444 22.5771 21.0587 21.3375 21.974 20.4235C22.8893 19.5096 24.1308 18.9961 25.4252 18.9961C25.6999 18.9957 25.9741 19.0195 26.2446 19.0672C25.0989 19.2476 24.0552 19.8304 23.3015 20.7108C22.5479 21.5913 22.1338 22.7114 22.1338 23.8696C22.1338 25.0278 22.5479 26.148 23.3015 27.0284C24.0552 27.9088 25.0989 28.4917 26.2446 28.672Z" fill="#2F63CC"/>
</g>
<defs>
<clipPath id="clip0_247_2344">
<rect width="53" height="48" fill="white"/>
</clipPath>
</defs>
</svg>
