<svg width="138" height="96" viewBox="0 0 138 96" fill="none" xmlns="http://www.w3.org/2000/svg">
<path d="M120.722 82.1762H17.2776L35.8469 71.2789H102.437L120.722 82.1762Z" fill="#D0F0E4"/>
<path d="M76.5872 28.9014H57.9766V18.207C57.9766 17.4828 58.5672 16.8959 59.2958 16.8959H75.268C75.9966 16.8959 76.5872 17.4828 76.5872 18.207V28.9014Z" fill="white" stroke="#66B0F0" stroke-width="0.242229" stroke-miterlimit="10"/>
<path d="M75.1824 28.2049H59.4587C59.0447 28.2049 58.708 27.8703 58.708 27.4589V18.2923C58.708 17.8808 59.0447 17.5462 59.4587 17.5462H75.1824C75.5964 17.5462 75.9332 17.8808 75.9332 18.2923V27.4616C75.9332 27.8731 75.5964 28.2049 75.1824 28.2049Z" fill="#66B0F0"/>
<path d="M79.8496 31.4112C80.5617 31.872 80.3961 32.7744 79.5543 32.7744H54.2009C53.4916 32.7744 53.2487 31.8226 53.9442 31.3865L79.8496 31.4112Z" fill="#66B0F0" stroke="#66B0F0" stroke-width="0.242229" stroke-miterlimit="10"/>
<path d="M79.5543 32.1463H54.201C53.7483 32.1463 53.5689 31.6169 53.9443 31.3865L57.9822 28.9015H76.5349L79.8469 31.4112C80.1781 31.6608 79.9849 32.1463 79.5543 32.1463Z" fill="white" stroke="#66B0F0" stroke-width="0.242229" stroke-miterlimit="10"/>
<path d="M76.6287 31.3976H57.1265C56.7787 31.3976 56.6408 30.9889 56.9278 30.8133L59.7319 28.9016H74.3047L76.8522 30.8325C77.1089 31.0245 76.9599 31.3976 76.6287 31.3976Z" fill="white" stroke="#66B0F0" stroke-width="0.242229" stroke-miterlimit="10"/>
<path d="M73.0432 28.9017L75.5935 31.3977" stroke="#66B0F0" stroke-width="0.242229" stroke-miterlimit="10"/>
<path d="M71.6908 28.9017L73.9374 31.3977" stroke="#66B0F0" stroke-width="0.242229" stroke-miterlimit="10"/>
<path d="M70.4266 28.9017L72.3752 31.3977" stroke="#66B0F0" stroke-width="0.242229" stroke-miterlimit="10"/>
<path d="M69.0135 28.9017L70.6613 31.3977" stroke="#66B0F0" stroke-width="0.242229" stroke-miterlimit="10"/>
<path d="M67.8407 28.9016L68.6439 31.3976" stroke="#66B0F0" stroke-width="0.242229" stroke-miterlimit="10"/>
<path d="M60.916 28.9016L58.3657 31.3976" stroke="#66B0F0" stroke-width="0.242229" stroke-miterlimit="10"/>
<path d="M62.2684 28.9017L60.0217 31.3977" stroke="#66B0F0" stroke-width="0.242229" stroke-miterlimit="10"/>
<path d="M63.5324 28.9017L61.5839 31.3977" stroke="#66B0F0" stroke-width="0.242229" stroke-miterlimit="10"/>
<path d="M64.9455 28.9017L63.2977 31.3977" stroke="#66B0F0" stroke-width="0.242229" stroke-miterlimit="10"/>
<path d="M66.1186 28.9017L65.3154 31.3977" stroke="#66B0F0" stroke-width="0.242229" stroke-miterlimit="10"/>
<path d="M66.9135 31.4278V28.9016" stroke="#66B0F0" stroke-width="0.242229" stroke-miterlimit="10"/>
<path d="M58.3657 29.8342H75.5384" stroke="#66B0F0" stroke-width="0.242229" stroke-miterlimit="10"/>
<path d="M73.8741 28.2048H59.9113L60.1624 26.4356C60.317 25.3467 61.1036 24.4526 62.1662 24.1508L65.5693 23.4487H68.2161L71.6192 24.1508C72.6845 24.4498 73.4711 25.3467 73.6229 26.4356L73.8741 28.2048Z" fill="#FFCF2D"/>
<path d="M67.8352 25.4701L66.8278 24.458C66.8058 24.436 66.8058 24.4004 66.8278 24.3812C66.8499 24.3592 66.8858 24.3592 66.9051 24.3812L67.8297 25.311L69.2649 23.6954C69.2842 23.6735 69.3201 23.6708 69.3422 23.69C69.3643 23.7092 69.367 23.7448 69.3477 23.7668L67.8352 25.4701Z" fill="white"/>
<path d="M65.964 25.4701L64.4515 23.7668C64.4322 23.7448 64.4322 23.7092 64.457 23.69C64.4791 23.6708 64.515 23.6708 64.5343 23.6955L65.9695 25.311L66.8941 24.3812C66.9162 24.3592 66.9493 24.3592 66.9714 24.3812C66.9934 24.4031 66.9934 24.436 66.9714 24.458L65.964 25.4701Z" fill="white"/>
<path d="M66.9161 26.1312C66.7837 26.1312 66.676 26.0242 66.676 25.8926C66.676 25.7609 66.7837 25.6539 66.9161 25.6539C67.0486 25.6539 67.1563 25.7609 67.1563 25.8926C67.1563 26.0242 67.0486 26.1312 66.9161 26.1312ZM66.9161 25.7636C66.8444 25.7636 66.7864 25.8212 66.7864 25.8926C66.7864 25.9639 66.8444 26.0215 66.9161 26.0215C66.9879 26.0215 67.0459 25.9639 67.0459 25.8926C67.0459 25.8212 66.9879 25.7636 66.9161 25.7636Z" fill="white"/>
<path d="M66.9161 27.4751C66.7837 27.4751 66.676 27.3681 66.676 27.2364C66.676 27.1048 66.7837 26.9978 66.9161 26.9978C67.0486 26.9978 67.1563 27.1048 67.1563 27.2364C67.1563 27.3681 67.0486 27.4751 66.9161 27.4751ZM66.9161 27.1075C66.8444 27.1075 66.7864 27.1651 66.7864 27.2364C66.7864 27.3077 66.8444 27.3653 66.9161 27.3653C66.9879 27.3653 67.0459 27.3077 67.0459 27.2364C67.0459 27.1651 66.9879 27.1075 66.9161 27.1075Z" fill="white"/>
<path d="M65.5524 28.1474H61.0426L59.8392 24.5982L64.3491 23.3145L65.5524 28.1474Z" fill="white" stroke="#66B0F0" stroke-width="0.161486" stroke-miterlimit="10"/>
<path d="M61.2772 25.0588H61.1917C60.9736 25.0588 60.797 24.8833 60.797 24.6666V23.435C60.797 23.3473 60.8688 23.2759 60.9571 23.2759H61.3297C61.418 23.2759 61.4898 23.3473 61.4898 23.435V24.8449C61.4925 24.9628 61.3959 25.0588 61.2772 25.0588Z" fill="white"/>
<path d="M61.2772 25.0588H61.1917C60.9736 25.0588 60.797 24.8833 60.797 24.6666V23.435C60.797 23.3473 60.8688 23.2759 60.9571 23.2759H61.3297C61.418 23.2759 61.4898 23.3473 61.4898 23.435V24.8449C61.4925 24.9628 61.3959 25.0588 61.2772 25.0588Z" stroke="#66B0F0" stroke-width="0.161486" stroke-miterlimit="10" stroke-linecap="round"/>
<path d="M63.0933 25.059H63.1789C63.3969 25.059 63.5736 24.8834 63.5736 24.6668V23.4352C63.5736 23.3474 63.5018 23.2761 63.4135 23.2761H63.0381C62.9498 23.2761 62.8781 23.3474 62.8781 23.4352V24.845C62.8781 24.963 62.9747 25.059 63.0933 25.059Z" fill="white"/>
<path d="M61.97 25.2017H61.7713C61.6168 25.2017 61.4926 25.0782 61.4926 24.9246V23.438C61.4926 23.3502 61.5643 23.2789 61.6526 23.2789H62.0252C62.1136 23.2789 62.1853 23.3502 62.1853 23.438V24.9877C62.1853 25.1057 62.0887 25.2017 61.97 25.2017Z" fill="white"/>
<path d="M62.6657 25.2565H62.5001C62.3262 25.2565 62.1854 25.1166 62.1854 24.9438V23.4352C62.1854 23.3474 62.2572 23.2761 62.3455 23.2761H62.7181C62.8064 23.2761 62.8782 23.3474 62.8782 23.4352V25.0425C62.8782 25.1605 62.7816 25.2565 62.6657 25.2565Z" fill="white"/>
<path d="M63.0933 25.059H63.1789C63.3969 25.059 63.5736 24.8834 63.5736 24.6668V23.4352C63.5736 23.3474 63.5018 23.2761 63.4135 23.2761H63.0381C62.9498 23.2761 62.8781 23.3474 62.8781 23.4352V24.845C62.8781 24.963 62.9747 25.059 63.0933 25.059Z" stroke="#66B0F0" stroke-width="0.161486" stroke-miterlimit="10" stroke-linecap="round"/>
<path d="M61.97 25.2017H61.7713C61.6168 25.2017 61.4926 25.0782 61.4926 24.9246V23.438C61.4926 23.3502 61.5643 23.2789 61.6526 23.2789H62.0252C62.1136 23.2789 62.1853 23.3502 62.1853 23.438V24.9877C62.1853 25.1057 62.0887 25.2017 61.97 25.2017Z" stroke="#66B0F0" stroke-width="0.161486" stroke-miterlimit="10" stroke-linecap="round"/>
<path d="M62.6657 25.2565H62.5001C62.3262 25.2565 62.1854 25.1166 62.1854 24.9438V23.4352C62.1854 23.3474 62.2572 23.2761 62.3455 23.2761H62.7181C62.8064 23.2761 62.8782 23.3474 62.8782 23.4352V25.0425C62.8782 25.1605 62.7816 25.2565 62.6657 25.2565Z" stroke="#66B0F0" stroke-width="0.161486" stroke-miterlimit="10" stroke-linecap="round"/>
<path d="M68.2187 21.8359V23.8382C68.2187 24.1838 67.6253 24.4663 66.8939 24.4663C66.1625 24.4663 65.5691 24.1838 65.5691 23.8382V21.8359H68.2187Z" fill="white"/>
<path d="M68.2186 21.8359C68.2186 23.3473 67.2443 23.7971 66.3087 23.7175C66.3059 23.7175 66.3032 23.7175 66.3004 23.7175C65.8864 23.6791 65.5718 23.3281 65.5718 22.9166V21.8387H68.2186V21.8359Z" fill="#66B0F0"/>
<path d="M68.8341 21.3201V21.4215C68.8341 21.6465 68.6519 21.8275 68.4256 21.8275H68.2159L68.2186 21.8741C68.2186 22.5214 67.6915 23.0453 67.0401 23.0453H66.7503C66.0989 23.0453 65.5718 22.5214 65.5718 21.8741L65.5745 21.8275H65.3648C65.1385 21.8275 64.9563 21.6465 64.9563 21.4215V21.3201C64.9563 21.0951 65.1385 20.9141 65.3648 20.9141H65.6325L65.6629 20.4177C65.6629 20.3409 65.6739 20.2668 65.696 20.1982C66.4853 20.393 67.4099 19.8883 67.6583 19.7374C67.9343 19.8417 68.1303 20.105 68.1303 20.4149L68.1607 20.9114H68.4284C68.6519 20.9141 68.8341 21.0951 68.8341 21.3201Z" fill="white"/>
<path d="M68.4449 20.9143H68.1579L68.1275 20.4178C68.1275 20.1079 67.9316 19.8446 67.6556 19.7403C67.4072 19.8884 66.4826 20.3931 65.6932 20.2011C65.6711 20.2697 65.6601 20.3438 65.6601 20.4206L65.6297 20.917H65.4503C65.4503 20.917 65.0832 19.1506 65.4448 18.827C65.7125 18.5883 68.1634 19.1095 68.4339 19.4798C68.5857 19.691 68.4449 20.9143 68.4449 20.9143Z" fill="#E57281"/>
<path d="M67.7551 20.8073C67.7468 20.8073 67.7358 20.8045 67.7275 20.7963C67.7248 20.7936 67.5454 20.6482 67.2583 20.6482C67.2362 20.6482 67.2169 20.629 67.2169 20.6071C67.2169 20.5851 67.2362 20.5659 67.2583 20.5659C67.5757 20.5659 67.7717 20.725 67.78 20.7332C67.7965 20.7469 67.7993 20.7744 67.7855 20.7908C67.78 20.8018 67.7662 20.8073 67.7551 20.8073Z" fill="#66B0F0"/>
<path d="M66.7062 21.6576C66.7007 21.6576 66.6951 21.6576 66.6924 21.6549C66.6703 21.6467 66.6593 21.622 66.6675 21.6028C66.7448 21.3998 66.7255 21.1447 66.6179 20.9198C66.5544 20.7827 66.4633 20.6839 66.3833 20.6565C66.2066 20.5961 65.9582 20.6812 65.9555 20.6812C65.9334 20.6894 65.9113 20.6784 65.903 20.6565C65.8947 20.6345 65.9058 20.6126 65.9279 20.6044C65.9389 20.6016 66.2039 20.5111 66.4081 20.5797C66.5102 20.6153 66.6151 20.7278 66.6896 20.8869C66.8055 21.131 66.8249 21.4108 66.7421 21.6357C66.7393 21.6467 66.7227 21.6576 66.7062 21.6576Z" fill="#66B0F0"/>
<path d="M67.2501 22.0937C67.2528 22.1156 67.2335 22.1348 67.2114 22.1376H67.2087C67.1866 22.1376 67.17 22.1211 67.1673 22.0992C67.1645 22.0717 67.159 22.0443 67.1507 22.0196C67.032 22.0772 66.9244 22.0964 66.8361 22.0964C66.6622 22.0964 66.5573 22.0251 66.5518 22.0196C66.5325 22.0059 66.5297 21.9812 66.5408 21.962C66.5546 21.9428 66.5794 21.9401 66.5987 21.951C66.6042 21.9538 66.6926 22.0141 66.8361 22.0141C66.9134 22.0141 67.0072 21.9977 67.1148 21.9456C67.0983 21.9181 67.0817 21.9017 67.0817 21.9017C67.0652 21.8852 67.0679 21.8578 67.0845 21.8441C67.101 21.8304 67.1286 21.8304 67.1424 21.8468C67.148 21.855 67.2418 21.9593 67.2501 22.0937Z" fill="#66B0F0"/>
<path d="M67.3994 21.3096C67.4377 21.3072 67.4649 21.244 67.4601 21.1684C67.4554 21.0928 67.4205 21.0334 67.3822 21.0358C67.3439 21.0382 67.3167 21.1014 67.3215 21.177C67.3262 21.2526 67.3611 21.3119 67.3994 21.3096Z" fill="#66B0F0"/>
<path d="M66.2726 21.2988C66.3078 21.2966 66.3328 21.2384 66.3285 21.1689C66.3241 21.0993 66.292 21.0447 66.2568 21.0469C66.2216 21.0491 66.1965 21.1072 66.2009 21.1768C66.2053 21.2463 66.2374 21.3009 66.2726 21.2988Z" fill="#66B0F0"/>
<path d="M65.5002 21.4517C65.4781 21.4517 65.4588 21.4325 65.4588 21.4106C65.4588 21.2899 65.3594 21.1939 65.2407 21.1939C65.2187 21.1939 65.1993 21.1747 65.1993 21.1528C65.1993 21.1308 65.2187 21.1116 65.2407 21.1116C65.4063 21.1116 65.5416 21.246 65.5416 21.4106C65.5416 21.4353 65.5223 21.4517 65.5002 21.4517Z" fill="#66B0F0"/>
<path d="M68.2766 21.4517C68.2545 21.4517 68.2352 21.4325 68.2352 21.4106C68.2352 21.246 68.3705 21.1116 68.5361 21.1116C68.5581 21.1116 68.5775 21.1308 68.5775 21.1528C68.5775 21.1747 68.5581 21.1939 68.5361 21.1939C68.4146 21.1939 68.318 21.2927 68.318 21.4106C68.318 21.4353 68.3015 21.4517 68.2766 21.4517Z" fill="#66B0F0"/>
<path d="M118.238 82.1762L106.417 43.3319C106.183 42.5584 105.462 42.0291 104.648 42.0291H32.9018C32.0794 42.0291 31.3562 42.5694 31.1272 43.3566L19.847 82.1762" stroke="#66B0F0" stroke-width="0.242229" stroke-miterlimit="10"/>
<path d="M52.5559 28.9017H83.9371" stroke="#66B0F0" stroke-width="0.242229" stroke-miterlimit="10"/>
<path d="M63.4473 34.8038H70.8606V41.1316H63.4473C63.4473 41.1316 63.4473 34.5652 63.4473 34.8038Z" fill="#FFCF2D"/>
<path d="M91.1683 64.2042L87.7211 55.6739H93.2714L91.1683 64.2042Z" fill="#9A3B82"/>
<path d="M81.7098 44.2884C82.4495 42.8977 83.904 42.0283 85.4855 42.0283H89.7552L92.656 44.2884H81.7098Z" fill="#9A3B82"/>
<path d="M97.8973 54.275H87.1415L91.1905 64.0423C90.9089 63.587 89.2226 64.0615 87.4369 65.1504C85.6732 66.2256 84.4809 67.5203 84.7238 67.992L75.9967 52.9008C73.7335 49.0938 76.4935 44.2883 80.9426 44.2883H105.046L105.098 44.4528C106.671 49.3077 103.028 54.275 97.8973 54.275Z" fill="#3FB1B5"/>
<path d="M105.462 47.0889C105.424 47.9803 105.225 48.8415 104.888 49.6397L92.2476 44.2911H104.795L105.087 45.1414C105.291 45.6516 105.404 46.3675 105.462 47.0889Z" fill="#E6E6E6"/>
<path d="M91.1932 64.0425C91.4747 64.4979 90.2437 65.7404 88.4608 66.8293C86.675 67.9182 85.0163 68.464 84.7348 68.0087C84.4532 67.5534 85.6538 66.267 87.4396 65.1781C89.2225 64.0892 90.9089 63.5872 91.1932 64.0425Z" fill="#66B0F0"/>
<path d="M87.2326 65.1837L79.3832 51.3926C78.7677 50.3009 79.5598 48.9514 80.8212 48.9514H96.1088C98.1678 48.9514 99.7051 47.0671 99.28 45.0648" stroke="white" stroke-width="0.242229" stroke-miterlimit="10" stroke-linecap="round"/>
<path d="M84.6438 68.0389C84.3623 67.5836 85.5794 66.1354 87.4397 65.0574C89.529 63.8478 90.8814 63.4885 91.2844 64.1304" stroke="white" stroke-width="0.242229" stroke-miterlimit="10" stroke-linecap="round"/>
<path d="M91.3451 64.1907L86.217 52.0399" stroke="white" stroke-width="0.242229" stroke-miterlimit="10" stroke-linecap="round"/>
<path d="M80.6417 44.1979H93.1528" stroke="white" stroke-width="0.242229" stroke-miterlimit="10"/>
<path d="M87.7185 68.6368L86.9733 67.6274L85.9465 66.2395C86.3661 65.8884 86.8711 65.5236 87.4369 65.178C88.563 64.4923 89.6477 64.037 90.3681 63.9108L90.8676 64.901L91.4914 66.1353C91.0498 67.696 87.7185 68.6368 87.7185 68.6368Z" fill="#E57281"/>
<path d="M90.8705 64.9009C90.4069 65.4632 89.5347 66.1736 88.4611 66.8292C87.9449 67.1446 87.4399 67.4134 86.9762 67.6273L85.9495 66.2394C86.369 65.8884 86.8741 65.5236 87.4399 65.178C88.5659 64.4923 89.6506 64.0369 90.371 63.9108L90.8705 64.9009Z" fill="#9A3B82"/>
<path d="M94.9026 71.5744L87.3292 76.9806C86.6861 77.4249 85.687 77.7952 85.8194 76.1879C86.0044 73.9716 86.4984 70.6747 87.7183 68.6341C87.7708 68.6203 91.0496 67.6795 91.4912 66.1326L94.944 68.571C95.9376 69.339 95.9155 70.8366 94.9026 71.5744Z" fill="white" stroke="#FFCF2D" stroke-width="0.242229" stroke-miterlimit="10"/>
<path d="M87.3678 69.3497C87.9695 69.4622 91.3477 68.2718 91.8721 66.4368" stroke="#FFCF2D" stroke-width="0.242229" stroke-miterlimit="10" stroke-linecap="round"/>
<path d="M86.5536 76.4236C86.5536 76.4236 91.4968 69.5993 95.013 69.9833C98.8411 70.3975 83.4238 80.4034 86.5536 76.4236Z" fill="#FFCF2D"/>
<path d="M86.4128 77.3535C86.0292 77.3782 85.6235 76.9339 86.1838 76.2207C86.1838 76.2207 91.3284 69.1442 94.9909 69.5446C95.5567 69.605 95.7472 70.063 95.6147 70.458" stroke="#FFCF2D" stroke-width="0.242229" stroke-miterlimit="10" stroke-linecap="round"/>
<path d="M105.49 47.6459C103.74 47.2345 99.385 46.1511 94.417 45.0101C92.082 44.4752 90.128 42.8953 89.1206 40.7339L84.5969 31.0078L87.3348 26.696C88.1766 25.3685 89.6118 24.5237 91.1878 24.4277L93.8816 24.2631C96.5974 24.0985 98.7778 25.7826 99.6058 28.3582L105.084 44.2887C105.686 45.7808 105.49 47.6459 105.49 47.6459Z" fill="white" stroke="#FE5244" stroke-width="0.242229" stroke-miterlimit="10"/>
<path d="M86.9788 31.5535C86.9788 31.5535 88.4195 33.8026 91.7011 34.2991" stroke="#FE5244" stroke-width="0.242229" stroke-miterlimit="10"/>
<path d="M88.9218 27.4612C88.7727 27.3022 88.5105 27.346 88.4195 27.5408C88.3173 27.7602 88.5023 28.0043 88.7424 27.9687C88.988 27.933 89.0901 27.6395 88.9218 27.4612Z" fill="#FFCF2D" stroke="#FE5244" stroke-width="0.242229" stroke-miterlimit="10" stroke-linejoin="round"/>
<path d="M95.7969 32.1489C95.6479 31.9898 95.3857 32.0337 95.2946 32.2284C95.1925 32.4478 95.3774 32.6919 95.6175 32.6563C95.8631 32.6206 95.9653 32.3271 95.7969 32.1489Z" fill="#FFCF2D" stroke="#FE5244" stroke-width="0.242229" stroke-miterlimit="10" stroke-linejoin="round"/>
<path d="M97.9746 34.069C97.8256 33.9099 97.5634 33.9538 97.4723 34.1485C97.3702 34.3679 97.5551 34.612 97.7952 34.5764C98.0381 34.5435 98.1402 34.25 97.9746 34.069Z" fill="#FFCF2D" stroke="#FE5244" stroke-width="0.242229" stroke-miterlimit="10" stroke-linejoin="round"/>
<path d="M102.151 44.9333C102.002 44.7743 101.739 44.8181 101.648 45.0129C101.546 45.2323 101.731 45.4764 101.971 45.4408C102.214 45.4051 102.316 45.1144 102.151 44.9333Z" fill="#FFCF2D" stroke="#FE5244" stroke-width="0.242229" stroke-miterlimit="10" stroke-linejoin="round"/>
<path d="M99.8128 39.7414C99.6637 39.5823 99.4015 39.6262 99.3105 39.8209C99.2083 40.0404 99.3933 40.2845 99.6334 40.2488C99.879 40.2132 99.9811 39.9197 99.8128 39.7414Z" fill="#FFCF2D" stroke="#FE5244" stroke-width="0.242229" stroke-miterlimit="10" stroke-linejoin="round"/>
<path d="M100.782 36.0053C100.566 36.0327 100.448 36.2714 100.555 36.4579C100.677 36.6691 100.983 36.6608 101.093 36.4442C101.207 36.2247 101.024 35.9724 100.782 36.0053Z" fill="#FFCF2D" stroke="#FE5244" stroke-width="0.242229" stroke-miterlimit="10" stroke-linejoin="round"/>
<path d="M102.545 41.546C102.33 41.5734 102.211 41.8121 102.319 41.9986C102.44 42.2098 102.747 42.2015 102.857 41.9849C102.97 41.7654 102.791 41.5131 102.545 41.546Z" fill="#FFCF2D" stroke="#FE5244" stroke-width="0.242229" stroke-miterlimit="10" stroke-linejoin="round"/>
<path d="M95.2312 35.5693C95.0822 35.4102 94.82 35.4541 94.7289 35.6489C94.6268 35.8683 94.8117 36.1124 95.0518 36.0768C95.2947 36.0411 95.3968 35.7504 95.2312 35.5693Z" fill="#FFCF2D" stroke="#FE5244" stroke-width="0.242229" stroke-miterlimit="10" stroke-linejoin="round"/>
<path d="M93.7104 38.677C93.5613 38.5179 93.2991 38.5618 93.208 38.7565C93.1059 38.976 93.2908 39.2201 93.531 39.1844C93.7766 39.1488 93.8787 38.8553 93.7104 38.677Z" fill="#FFCF2D" stroke="#FE5244" stroke-width="0.242229" stroke-miterlimit="10" stroke-linejoin="round"/>
<path d="M90.9891 37.5908C91.1492 37.4427 91.105 37.1821 90.9091 37.0916C90.6883 36.9901 90.4426 37.1739 90.4785 37.4125C90.5144 37.6539 90.8069 37.7554 90.9891 37.5908Z" fill="#FFCF2D" stroke="#FE5244" stroke-width="0.242229" stroke-miterlimit="10" stroke-linejoin="round"/>
<path d="M93.4041 42.9394C93.5642 42.7913 93.5201 42.5307 93.3241 42.4402C93.1033 42.3387 92.8576 42.5225 92.8935 42.7611C92.9294 43.0052 93.2247 43.1067 93.4041 42.9394Z" fill="#FFCF2D" stroke="#FE5244" stroke-width="0.242229" stroke-miterlimit="10" stroke-linejoin="round"/>
<path d="M97.4696 38.3505C97.6296 38.2024 97.5855 37.9418 97.3895 37.8513C97.1687 37.7498 96.9231 37.9336 96.959 38.1722C96.9948 38.4136 97.2902 38.5178 97.4696 38.3505Z" fill="#FFCF2D" stroke="#FE5244" stroke-width="0.242229" stroke-miterlimit="10" stroke-linejoin="round"/>
<path d="M98.8579 44.0939C99.0179 43.9458 98.9738 43.6852 98.7778 43.5947C98.557 43.4932 98.3114 43.677 98.3473 43.9156C98.3804 44.1597 98.6757 44.2612 98.8579 44.0939Z" fill="#FFCF2D" stroke="#FE5244" stroke-width="0.242229" stroke-miterlimit="10" stroke-linejoin="round"/>
<path d="M90.5336 32.4616C90.3846 32.3025 90.1224 32.3464 90.0313 32.5411C89.9292 32.7606 90.1141 33.0047 90.3542 32.969C90.5998 32.9334 90.702 32.6399 90.5336 32.4616Z" fill="#FFCF2D" stroke="#FE5244" stroke-width="0.242229" stroke-miterlimit="10" stroke-linejoin="round"/>
<path d="M91.0277 25.3466C90.8787 25.1875 90.6165 25.2314 90.5254 25.4261C90.4233 25.6455 90.6082 25.8896 90.8483 25.854C91.094 25.8183 91.1961 25.5248 91.0277 25.3466Z" fill="#FFCF2D" stroke="#FE5244" stroke-width="0.242229" stroke-miterlimit="10" stroke-linejoin="round"/>
<path d="M95.7969 25.3466C95.6479 25.1875 95.3857 25.2314 95.2946 25.4261C95.1925 25.6455 95.3774 25.8896 95.6175 25.854C95.8631 25.8183 95.9653 25.5248 95.7969 25.3466Z" fill="#FFCF2D" stroke="#FE5244" stroke-width="0.242229" stroke-miterlimit="10" stroke-linejoin="round"/>
<path d="M95.8053 28.4188C95.6038 28.4984 95.5459 28.7562 95.6977 28.9126C95.866 29.0854 96.1613 29.0058 96.2165 28.7699C96.2717 28.5313 96.0344 28.3283 95.8053 28.4188Z" fill="#FFCF2D" stroke="#FE5244" stroke-width="0.242229" stroke-miterlimit="10" stroke-linejoin="round"/>
<path d="M93.095 26.6686C92.8852 26.7289 92.8052 26.9785 92.9376 27.1486C93.0894 27.3378 93.3903 27.2857 93.4676 27.0581C93.5476 26.8249 93.3296 26.6 93.095 26.6686Z" fill="#FFCF2D" stroke="#FE5244" stroke-width="0.242229" stroke-miterlimit="10" stroke-linejoin="round"/>
<path d="M92.6947 34.2664C92.4794 34.2911 92.358 34.5269 92.4629 34.7162C92.5815 34.9274 92.8879 34.9247 93.0011 34.7107C93.117 34.494 92.9403 34.239 92.6947 34.2664Z" fill="#FFCF2D" stroke="#FE5244" stroke-width="0.242229" stroke-miterlimit="10" stroke-linejoin="round"/>
<path d="M90.3293 39.9798C90.1141 40.0045 89.9926 40.2404 90.0975 40.4296C90.2162 40.6408 90.5225 40.6381 90.6357 40.4242C90.7516 40.2075 90.575 39.9524 90.3293 39.9798Z" fill="#FFCF2D" stroke="#FE5244" stroke-width="0.242229" stroke-miterlimit="10" stroke-linejoin="round"/>
<path d="M91.1243 28.9342C90.9145 28.9946 90.8344 29.2442 90.9669 29.4142C91.1187 29.6035 91.4196 29.5514 91.4969 29.3237C91.5769 29.0933 91.3616 28.8684 91.1243 28.9342Z" fill="#FFCF2D" stroke="#FE5244" stroke-width="0.242229" stroke-miterlimit="10" stroke-linejoin="round"/>
<path d="M93.4095 30.4703C93.1998 30.5306 93.1197 30.7802 93.2522 30.9503C93.404 31.1395 93.7048 31.0874 93.7821 30.8598C93.8622 30.6266 93.6469 30.4017 93.4095 30.4703Z" fill="#FFCF2D" stroke="#FE5244" stroke-width="0.242229" stroke-miterlimit="10" stroke-linejoin="round"/>
<path d="M88.4609 30.4044C88.5989 30.2371 88.5243 29.9847 88.3146 29.9217C88.0827 29.8503 87.8619 30.0643 87.9309 30.2947C87.9999 30.5306 88.3035 30.5937 88.4609 30.4044Z" fill="#FFCF2D" stroke="#FE5244" stroke-width="0.242229" stroke-miterlimit="10" stroke-linejoin="round"/>
<path d="M98.924 30.4126C99.062 30.2453 98.9875 29.9929 98.7777 29.9298C98.5459 29.8585 98.3251 30.0725 98.3941 30.3029C98.4603 30.5388 98.7667 30.6018 98.924 30.4126Z" fill="#FFCF2D" stroke="#FE5244" stroke-width="0.242229" stroke-miterlimit="10" stroke-linejoin="round"/>
<path d="M96.269 41.5322C96.407 41.3648 96.3324 41.1125 96.1227 41.0494C95.8908 40.9781 95.67 41.192 95.739 41.4224C95.8053 41.6556 96.1116 41.7187 96.269 41.5322Z" fill="#FFCF2D" stroke="#FE5244" stroke-width="0.242229" stroke-miterlimit="10" stroke-linejoin="round"/>
<path d="M94.0666 24.1725C94.0059 24.1753 93.9452 24.178 93.8817 24.1808L91.188 24.3453C90.5007 24.3865 89.8438 24.5703 89.2477 24.8747L88.4197 22.4116L92.1098 19.7236L94.0666 24.1725Z" fill="#E57281"/>
<path d="M89.2368 24.8361C90.004 24.4905 90.6168 23.8761 90.9645 23.1136L92.3059 20.165L92.1099 19.7206L88.4198 22.4086L89.2368 24.8361Z" fill="#9A3B82"/>
<path d="M92.3471 19.9704C92.3471 20.2254 92.2422 20.4558 92.0739 20.6232C91.9055 20.7905 91.6737 20.8947 91.417 20.8947H90.6056C90.2854 22.1317 89.0462 22.9793 87.7131 22.7461L87.1031 22.6392C86.4352 22.5212 85.9798 21.9013 86.0736 21.2348L86.7885 17.6773C86.9127 16.9176 87.6993 16.454 88.4307 16.7146L89.6147 17.1864C90.255 17.4058 90.6856 18.0037 90.6856 18.6757V19.0186L91.417 19.046C91.9304 19.046 92.3471 19.4602 92.3471 19.9704Z" fill="#E57281"/>
<path d="M90.9727 20.1484C90.9727 19.7945 91.2597 19.5093 91.6157 19.5093" stroke="#9A3B82" stroke-width="0.201857" stroke-miterlimit="10" stroke-linecap="round"/>
<path d="M87.186 18.426C87.186 18.426 87.7656 18.426 88.1796 18.9773" stroke="#9A3B82" stroke-width="0.201857" stroke-miterlimit="10" stroke-linecap="round"/>
<path d="M87.5712 19.4523C87.6003 19.2928 87.5632 19.1526 87.4882 19.139C87.4132 19.1255 87.3288 19.2438 87.2996 19.4033C87.2705 19.5627 87.3076 19.703 87.3826 19.7165C87.4576 19.7301 87.542 19.6118 87.5712 19.4523Z" fill="#9A3B82"/>
<path d="M91.4171 19.046C91.9304 19.046 92.3472 19.4602 92.3472 19.9704C92.3472 19.9731 92.3472 19.9786 92.3472 19.9841C92.7612 19.3505 93.7769 17.7377 93.7769 17.1919C93.7769 16.4595 92.8578 15.7272 91.9056 16.0618C91.9691 16.0152 92.0353 15.9658 92.1043 15.9137C92.4714 15.6284 92.6646 15.4145 92.695 15.2609C92.706 15.206 92.6977 15.1567 92.6701 15.1183C92.5597 14.9619 92.4383 14.8934 92.3086 14.9153C92.1181 14.9455 91.9222 15.1786 91.7262 15.6065C91.6379 15.8012 91.5689 15.9932 91.5302 16.1112C91.453 15.6531 91.0804 14.1363 89.4796 14.3695C88.9276 14.449 88.6681 14.6767 88.5964 14.9263C88.1382 14.5697 87.5255 14.2899 87.0176 14.556C86.14 15.014 86.2476 15.7656 86.7554 16.2977C86.2752 16.2895 85.9385 16.4294 85.9385 16.8326C85.9385 17.2028 86.3221 17.3811 86.8493 17.4524C87.3764 17.5238 88.0526 17.4854 88.6378 17.4195C89.0545 17.3729 89.4299 17.3153 89.67 17.2742C89.5099 17.6006 89.4464 17.8803 89.4602 18.1162C89.4851 18.6044 89.8411 18.8924 90.3434 18.9939C90.4511 19.0159 90.567 19.0296 90.6857 19.0351L91.4171 19.046ZM92.3251 15.025C92.3334 15.0223 92.3417 15.0223 92.3527 15.0223C92.43 15.0223 92.5045 15.0771 92.579 15.1814C92.5846 15.1923 92.5928 15.2088 92.5873 15.239C92.5432 15.4611 91.9774 15.8835 91.6489 16.1057C91.7786 15.7272 92.0519 15.0716 92.3251 15.025Z" fill="#FFCF2D"/>
<path d="M89.2145 15.8369C89.0241 15.8369 88.8309 15.7354 88.6901 15.5571C88.5328 15.3596 88.4804 15.1155 88.5466 14.9043C88.5549 14.8769 88.5825 14.8604 88.6101 14.8659C88.6211 14.8659 88.6322 14.8687 88.6404 14.8769C89.0572 15.1731 89.3912 15.5955 89.3415 15.7628C89.3304 15.8067 89.2946 15.8341 89.2476 15.8369C89.2366 15.8369 89.2255 15.8369 89.2145 15.8369ZM88.6349 15.0085C88.6101 15.1676 88.6598 15.3432 88.7757 15.4885C88.8999 15.6449 89.071 15.7354 89.2366 15.7244C89.2421 15.6531 89.0572 15.3267 88.6349 15.0085Z" fill="white"/>
<path d="M83.7663 40.0562H66.1023C65.6662 40.0562 65.404 39.579 65.6359 39.2142L67.9874 35.5442C68.2937 35.067 68.8209 34.779 69.3895 34.779H81.3458L83.7663 40.0562Z" fill="#E57281"/>
<path d="M69.7786 34.7817L71.1862 32.4777C71.269 32.3406 71.4208 32.2556 71.5808 32.2556C71.9424 32.2556 72.1632 32.6478 71.9755 32.955L70.8577 34.7817H69.7786Z" fill="#FE5244"/>
<path d="M83.7662 40.0562H79.7945C79.7862 40.048 79.7752 40.037 79.7669 40.0288C78.8009 39.0414 78.3897 37.5438 78.9334 36.101L79.4992 34.779H81.3456L83.7662 40.0562Z" fill="#9A3B82"/>
<path d="M68.5972 37.593H66.3837C66.2347 37.593 66.0967 37.6726 66.0221 37.8015L65.7875 38.2074C65.6302 38.4817 65.8289 38.8246 66.1491 38.8246H67.9293C68.2384 38.8246 68.5255 38.6655 68.6883 38.4022L68.8787 38.0922C69.0112 37.8728 68.8539 37.593 68.5972 37.593Z" fill="#E57281"/>
<path d="M68.0258 38.8248H65.8123C65.6632 38.8248 65.5252 38.9043 65.4507 39.0332L65.2161 39.4392C65.0588 39.7135 65.2575 40.0563 65.5777 40.0563H67.3579C67.667 40.0563 67.954 39.8972 68.1169 39.6339L68.3073 39.324C68.4426 39.1045 68.2825 38.8248 68.0258 38.8248Z" fill="#E57281"/>
<path d="M69.2292 36.345H67.0157C66.8666 36.345 66.7286 36.4246 66.6541 36.5535L66.4195 36.9594C66.2622 37.2337 66.4609 37.5766 66.7811 37.5766H68.5613C68.8704 37.5766 69.1574 37.4175 69.3203 37.1542L69.5107 36.8442C69.6459 36.6248 69.4859 36.345 69.2292 36.345Z" fill="#E57281"/>
<path d="M68.5972 37.593H66.3837C66.2347 37.593 66.0967 37.6726 66.0221 37.8015L65.7875 38.2074C65.6302 38.4817 65.8289 38.8246 66.1491 38.8246H67.9293C68.2384 38.8246 68.5255 38.6655 68.6883 38.4022L68.8787 38.0922C69.0112 37.8728 68.8539 37.593 68.5972 37.593Z" stroke="#9A3B82" stroke-width="0.201857" stroke-miterlimit="10" stroke-linecap="round"/>
<path d="M68.0258 38.8248H65.8123C65.6632 38.8248 65.5252 38.9043 65.4507 39.0332L65.2161 39.4392C65.0588 39.7135 65.2575 40.0563 65.5777 40.0563H67.3579C67.667 40.0563 67.954 39.8972 68.1169 39.6339L68.3073 39.324C68.4426 39.1045 68.2825 38.8248 68.0258 38.8248Z" stroke="#9A3B82" stroke-width="0.201857" stroke-miterlimit="10" stroke-linecap="round"/>
<path d="M69.2292 36.345H67.0157C66.8666 36.345 66.7286 36.4246 66.6541 36.5535L66.4195 36.9594C66.2622 37.2337 66.4609 37.5766 66.7811 37.5766H68.5613C68.8704 37.5766 69.1574 37.4175 69.3203 37.1542L69.5107 36.8442C69.6459 36.6248 69.4859 36.345 69.2292 36.345Z" stroke="#9A3B82" stroke-width="0.201857" stroke-miterlimit="10" stroke-linecap="round"/>
<path d="M72.4336 38.1801C71.7685 38.1801 71.1281 37.9415 70.6258 37.5054L69.7868 36.7758H69.014L68.8153 36.987C68.4592 37.3655 68.0204 37.5822 67.4988 37.5822H67.1289C66.9357 37.5822 66.817 37.3682 66.9219 37.2064L67.852 35.7582H72.4364V38.1801H72.4336Z" fill="#E57281"/>
<path d="M67.852 35.7582L66.9219 37.2064C66.817 37.3682 66.9357 37.5822 67.1289 37.5822H67.4988C68.0204 37.5822 68.4592 37.3682 68.8153 36.987L69.014 36.7758H69.7868L70.6258 37.5054C71.1254 37.9388 71.7685 38.1801 72.4336 38.1801" stroke="#9A3B82" stroke-width="0.201857" stroke-miterlimit="10" stroke-linecap="round"/>
<path d="M91.0692 34.9271L86.8547 39.6064C85.9687 40.5911 84.7019 41.1534 83.3716 41.1534C80.744 41.1534 78.9252 38.5477 79.847 36.1011L84.8537 24.411L83.1618 23.4702C82.9217 23.2837 82.8058 22.9792 82.8582 22.683L83.1452 20.7603C83.2336 20.3324 83.6724 19.9978 84.1002 19.899L86.0819 19.4547C86.2502 19.4163 86.4048 19.5589 86.3772 19.7262L86.0902 21.2101C85.977 21.9342 86.4683 22.5596 87.1969 22.683C87.7931 22.7845 88.2126 23.3797 88.1574 23.9776L86.8078 32.3434C86.805 32.3488 88.1878 34.491 91.0692 34.9271Z" fill="#E57281"/>
<path d="M87.8373 25.9662L86.2089 36.4741" stroke="#9A3B82" stroke-width="0.201857" stroke-miterlimit="10" stroke-linecap="round"/>
<path d="M84.4618 20.9001L84.4397 21.5803C84.4315 21.8601 84.5998 22.1069 84.8427 22.1755L87.3791 22.6857" stroke="#9A3B82" stroke-width="0.201857" stroke-miterlimit="10" stroke-linecap="round"/>
<path d="M89.104 22.9051L87.0754 22.6363C86.4075 22.5183 85.9521 21.8985 86.046 21.2319L86.3082 19.7426C86.333 19.6027 86.206 19.4847 86.068 19.5177L83.998 19.9977" stroke="#9A3B82" stroke-width="0.201857" stroke-miterlimit="10" stroke-linecap="round"/>
<path d="M87.9835 38.3445L93.4704 32.2773" stroke="#FE5244" stroke-width="0.242229" stroke-miterlimit="10"/>
<path d="M84.9116 24.4136H85.8804" stroke="#9A3B82" stroke-width="0.201857" stroke-miterlimit="10" stroke-linecap="round"/>
<path d="M84.4645 21.081V21.3005C84.4645 21.561 84.6549 21.775 84.8895 21.775H85.1931C85.3256 21.775 85.4305 21.657 85.4305 21.5089L85.4498 20.0771C85.4526 19.855 85.2152 19.7178 85.022 19.7645" stroke="#9A3B82" stroke-width="0.201857" stroke-miterlimit="10" stroke-linecap="round"/>
<path d="M85.4498 21.0811V21.3005C85.4498 21.5611 85.6403 21.7751 85.8749 21.7751H86.0681" stroke="#9A3B82" stroke-width="0.201857" stroke-miterlimit="10" stroke-linecap="round"/>
<path d="M103.779 55.6744L106.984 82.1759" stroke="#66B0F0" stroke-width="0.242229" stroke-miterlimit="10"/>
<path d="M89.891 55.6744L86.6866 82.1759" stroke="#66B0F0" stroke-width="0.242229" stroke-miterlimit="10"/>
<path d="M87.785 73.075H105.882" stroke="#66B0F0" stroke-width="0.242229" stroke-miterlimit="10"/>
<path d="M88.0444 55.7568H105.46C105.692 55.7568 105.88 55.5703 105.88 55.3399V54.7748C105.88 54.5444 105.692 54.3579 105.46 54.3579H88.0444C87.8126 54.3579 87.6249 54.5444 87.6249 54.7748V55.3399C87.6249 55.5703 87.8126 55.7568 88.0444 55.7568Z" fill="white" stroke="#FFCF2D" stroke-width="0.242229" stroke-miterlimit="10"/>
<path d="M59.0642 35.7012L56.398 41.154H48.3416L51.579 35.7012H59.0642Z" fill="white" stroke="#3FB1B5" stroke-width="0.201857" stroke-miterlimit="10"/>
<path d="M57.2978 37.0316C57.2978 37.0316 56.9473 36.4364 56.1055 36.59C55.4762 36.7025 54.731 37.2181 54.2728 36.9411C53.8147 36.6641 53.409 36.3185 52.8156 36.483C52.2222 36.6476 51.7833 36.963 51.7833 36.963" stroke="#3FB1B5" stroke-width="0.201857" stroke-miterlimit="10"/>
<path d="M57.0218 37.882C57.0218 37.882 56.6713 37.2868 55.8295 37.4404C55.2002 37.5529 54.455 38.0685 53.9968 37.7915C53.5387 37.5145 53.133 37.1689 52.5396 37.3334C51.9462 37.498 51.5073 37.8134 51.5073 37.8134" stroke="#3FB1B5" stroke-width="0.201857" stroke-miterlimit="10"/>
<path d="M62.0947 60.1729C62.0947 60.9053 60.0495 61.4977 57.4882 61.4977C54.9269 61.4977 52.9425 60.9053 52.9425 60.1729C52.9425 59.4406 54.9269 58.8481 57.4882 58.8481C60.0495 58.8481 62.0947 59.4433 62.0947 60.1729Z" fill="#FE5244"/>
<path d="M60.9161 59.2814V68.7443L60.6263 67.3783C60.3144 65.9081 59.009 64.8576 57.4965 64.8576C57.0411 64.8576 56.594 64.9536 56.1882 65.1347C56.1744 65.1401 56.1606 65.1484 56.1441 65.1538L55.0815 61.3029L54.4908 59.1607C55.2995 58.966 56.3456 58.848 57.4882 58.848C58.8461 58.848 60.0688 59.0153 60.9161 59.2814Z" fill="#A0505A"/>
<path d="M60.916 59.2814V61.0642C60.0687 61.3303 58.846 61.4976 57.4881 61.4976C56.6076 61.4976 55.7852 61.4263 55.0814 61.3056L54.4907 59.1634C55.2994 58.9687 56.3454 58.8507 57.4881 58.8507C58.846 58.848 60.0687 59.0153 60.916 59.2814Z" fill="#73325A"/>
<path d="M60.712 68.4675C60.7865 68.4894 61.4875 68.6842 62.1085 68.6842C62.4453 68.6842 62.7571 68.6266 62.9338 68.451C63.0856 68.3002 63.1215 68.0807 63.0414 67.8037C62.9697 67.5568 62.8317 67.4032 62.6302 67.3484C62.2603 67.2496 61.747 67.5239 61.3413 67.8119C61.9733 67.0494 62.5971 66.0812 62.3652 65.4476C62.2824 65.2227 62.0947 65.0718 61.8601 65.0444C61.6642 65.0224 61.482 65.091 61.3965 65.2199C60.999 65.8206 60.6733 68.2864 60.6595 68.3907L60.712 68.4675ZM61.5124 65.2967C61.5621 65.2227 61.6669 65.1788 61.7884 65.1788C61.8077 65.1788 61.827 65.1788 61.8463 65.1815C61.9347 65.1925 62.1472 65.2419 62.2383 65.4942C62.299 65.6615 62.3211 65.9687 62.0754 66.4844C61.8436 66.9726 61.4241 67.5459 60.8279 68.1959C60.9162 67.5706 61.1977 65.7713 61.5124 65.2967ZM62.8372 68.355C62.655 68.5361 62.241 68.5909 61.6366 68.5141C61.3192 68.473 61.0239 68.4071 60.8665 68.366C60.9852 68.2618 61.206 68.0725 61.4627 67.897C61.954 67.5596 62.3459 67.4142 62.5971 67.4828C62.7489 67.5239 62.851 67.6419 62.9117 67.8421C62.9779 68.0725 62.9531 68.2398 62.8372 68.355Z" fill="#FFCF2D"/>
<path d="M55.1091 65.9222L54.4715 66.6326C53.7484 67.439 53.6297 68.6129 54.179 69.5455L56.9859 74.329C57.5351 75.2643 58.5425 75.8376 59.63 75.8376H60.7919C61.6337 75.8376 62.2603 75.0696 62.0864 74.2522L60.6236 67.3814C60.3117 65.9112 59.0062 64.8607 57.4937 64.8607C56.5857 64.8579 55.7163 65.2447 55.1091 65.9222Z" fill="white" stroke="#3FB1B5" stroke-width="0.201857" stroke-miterlimit="10"/>
<path d="M57.2815 67.9902L60.9054 74.9681C61.0765 75.2835 61.289 75.4865 61.5319 75.6154C61.3221 75.7553 61.0682 75.8403 60.7922 75.8403H59.6302C58.54 75.8403 57.5326 75.2643 56.9862 74.3317L54.1792 69.5454C54.0661 69.3507 53.9805 69.1477 53.9226 68.9365C53.5251 67.4691 55.206 66.3171 56.4673 67.1783C56.7543 67.3731 57.0358 67.6364 57.2815 67.9902Z" fill="#3FB1B5"/>
<path d="M57.2895 68.0066H53.9443C53.9609 67.9545 53.9802 67.9051 54.0023 67.8585H57.1818C57.2149 67.9023 57.2481 67.9462 57.2812 67.9929L57.2895 68.0066Z" fill="white"/>
<path d="M57.7809 68.9499H53.9279C53.9279 68.9445 53.9251 68.939 53.9251 68.9362C53.9141 68.8923 53.9031 68.8457 53.8948 68.8018H57.7063L57.7809 68.9499Z" fill="white"/>
<path d="M58.2721 69.8964H54.386L54.2977 69.7455H58.1948L58.2721 69.8964Z" fill="white"/>
<path d="M58.7635 70.8426H54.9409L54.8525 70.6918H58.6862L58.7635 70.8426Z" fill="white"/>
<path d="M59.2548 71.7861H55.4957L55.4073 71.638H59.1775L59.2548 71.7861Z" fill="white"/>
<path d="M59.7459 72.7326H56.0502L55.9619 72.5817H59.6658L59.7459 72.7326Z" fill="white"/>
<path d="M60.2373 73.6786H56.6052L56.5168 73.5278H60.1573L60.2373 73.6786Z" fill="white"/>
<path d="M60.7257 74.6223H57.1819C57.146 74.5729 57.1101 74.5236 57.077 74.4742H60.6485L60.7257 74.6223Z" fill="white"/>
<path d="M61.4517 75.5687H58.3716C58.2722 75.5248 58.1756 75.4754 58.0818 75.4205H61.253C61.3165 75.4754 61.3827 75.5248 61.4517 75.5687Z" fill="white"/>
<path d="M50.7896 59.9782C50.7648 60.7023 48.6975 61.2893 46.1528 61.2893C43.6081 61.2893 41.5408 60.7051 41.516 59.9782V54.2758H50.7896V59.9782Z" fill="#73325A"/>
<path d="M50.1743 60.9246L50.1605 61.602L50.028 68.2151V68.0231C50.028 66.3252 48.6425 64.9483 46.9341 64.9483H46.7464C45.8742 64.9483 45.0876 65.2857 44.5053 65.8288L44.0996 63.1024L43.8484 61.4155C44.5273 61.528 45.3139 61.5911 46.1502 61.5911C47.8725 61.5883 49.3712 61.3195 50.1743 60.9246Z" fill="#A0505A"/>
<path d="M50.1744 60.9247L50.1606 61.6022C49.1338 62.3263 45.9626 63.2178 44.1024 63.0998L43.8512 61.413C44.5302 61.5227 45.3168 61.5885 46.153 61.5885C47.8725 61.5885 49.3712 61.3197 50.1744 60.9247Z" fill="#73325A"/>
<path d="M47.0746 75.9281H47.588C48.9349 75.9281 50.0278 74.8419 50.0278 73.5034V68.0232C50.0278 66.3253 48.6423 64.9484 46.9339 64.9484H46.7462C44.759 64.9484 43.2272 66.6901 43.4949 68.6485L44.1435 73.3882C44.345 74.8419 45.5953 75.9281 47.0746 75.9281Z" fill="white" stroke="#3FB1B5" stroke-width="0.201857" stroke-miterlimit="10"/>
<path d="M49.2607 75.267C48.8247 75.6757 48.234 75.928 47.5882 75.928H47.0748C45.5955 75.928 44.3452 74.8419 44.1465 73.3881L43.4979 68.6485C43.4868 68.558 43.4758 68.4675 43.473 68.3797C43.6386 67.3292 44.5522 66.5255 45.6562 66.5255C46.1999 66.5255 46.7022 66.723 47.0914 67.0521C47.4805 67.3813 47.7538 67.8448 47.8393 68.3797L48.6922 74.1644C48.7557 74.595 48.9599 74.979 49.2607 75.267Z" fill="#3FB1B5"/>
<path d="M47.5825 67.6476H43.7268C43.7544 67.5955 43.7875 67.5461 43.8206 67.4995H47.4914C47.5246 67.5461 47.5549 67.5955 47.5825 67.6476Z" fill="white"/>
<path d="M47.8696 68.591H43.4895C43.484 68.5417 43.4785 68.4923 43.4757 68.4429H47.8475L47.8696 68.591Z" fill="white"/>
<path d="M48.0104 69.5373H43.6192L43.5972 69.3892H47.9883L48.0104 69.5373Z" fill="white"/>
<path d="M48.1483 70.4834H43.7489L43.7268 70.3326H48.1262L48.1483 70.4834Z" fill="white"/>
<path d="M48.289 71.4272H43.8785L43.8564 71.2791H48.2669L48.289 71.4272Z" fill="white"/>
<path d="M48.427 72.3735H44.0055L43.9862 72.2253H48.405L48.427 72.3735Z" fill="white"/>
<path d="M48.5677 73.3196H44.1352L44.1158 73.1688H48.5456L48.5677 73.3196Z" fill="white"/>
<path d="M48.7086 74.2632H44.4085C44.3837 74.2138 44.3616 74.1644 44.3423 74.1151H48.6838L48.692 74.1644C48.6976 74.1973 48.7031 74.2302 48.7086 74.2632Z" fill="white"/>
<path d="M49.2026 75.2095H45.1371C45.0819 75.1629 45.0267 75.1108 44.9771 75.0614H49.0757C49.1143 75.1135 49.1585 75.1629 49.2026 75.2095Z" fill="white"/>
<path d="M52.7964 30.3394V34.9584C52.595 34.4345 50.9997 34.5086 49.2443 35.1696C47.7401 35.7374 46.6113 36.5164 46.4457 37.0567V30.5561C46.4457 28.6224 47.4862 26.8944 49.0842 25.9509C51.1598 26.3102 52.7964 28.1068 52.7964 30.3394Z" fill="#FFCF2D"/>
<path d="M46.3242 26.1591C44.911 27.1356 44.0113 28.7566 44.0113 30.5559V35.9182H36.1536L37.2382 31.2773C37.6992 29.2997 39.1399 27.7225 41.0167 27.0505L46.3242 26.1591Z" fill="#FFCF2D"/>
<path d="M62.216 49.1111V59.8768C62.216 59.1445 60.0494 58.552 57.4881 58.552C54.9269 58.552 52.8514 59.1445 52.8514 59.8768V54.7175C52.8514 54.4761 52.6526 54.2786 52.4097 54.2786H38.3227C34.0861 54.2786 30.9535 50.3591 31.9112 46.2585L35.3115 31.6994C35.8525 29.3762 37.7459 27.6071 40.1112 27.2066L41.0165 27.053C39.1397 27.725 37.6989 29.3022 37.238 31.2798L36.1533 35.9207H44.0111V30.5557C44.0111 28.7564 44.9136 27.1326 46.3239 26.1589L47.5659 25.9504C47.8226 25.9065 48.0738 25.8873 48.3249 25.8873C48.3581 25.8873 48.3884 25.8873 48.4215 25.8873C48.4519 25.8873 48.4823 25.8901 48.5099 25.8901C48.5154 25.8901 48.5209 25.8901 48.5264 25.8901C48.5485 25.8901 48.5733 25.8928 48.5954 25.8928C48.5982 25.8928 48.6037 25.8928 48.6065 25.8928C48.6203 25.8928 48.6341 25.8956 48.6451 25.8956C48.6699 25.8983 48.692 25.8983 48.7169 25.901C48.7445 25.9038 48.7748 25.9065 48.8024 25.9093C48.83 25.912 48.8549 25.9148 48.8825 25.9175C48.888 25.9175 48.8935 25.9202 48.9018 25.9202C48.9294 25.923 48.9597 25.9285 48.9873 25.9312C48.9901 25.9312 48.9929 25.9312 48.9929 25.9312C49.0232 25.9367 49.0536 25.9394 49.084 25.9449C47.4859 26.8885 46.4454 28.6165 46.4454 30.5502V43.7296H56.8064C59.7927 43.7351 62.216 46.1406 62.216 49.1111Z" fill="#FE5244"/>
<path d="M46.5035 26.0385C45.0904 27.0149 44.0085 28.7566 44.0085 30.5559V35.9182H36.1508L37.2354 31.2773C37.6964 29.2997 39.0156 27.6924 40.8952 27.0204" stroke="white" stroke-width="0.242229" stroke-miterlimit="10" stroke-linecap="round"/>
<path d="M52.8514 53.0639C52.8514 51.5361 53.3952 50.0577 54.386 48.892" stroke="white" stroke-width="0.242229" stroke-miterlimit="10" stroke-linecap="round"/>
<path d="M41.3726 52.518C41.3588 52.518 41.345 52.5153 41.334 52.507L40.9697 52.3095C40.9283 52.2876 40.9145 52.2382 40.9366 52.1971C40.9586 52.1559 41.0083 52.1422 41.0497 52.1642L41.414 52.3617C41.4554 52.3836 41.4692 52.433 41.4472 52.4741C41.4306 52.5015 41.403 52.518 41.3726 52.518ZM41.737 52.4247C41.7066 52.4247 41.679 52.4083 41.6652 52.3809C41.6431 52.3397 41.6569 52.2903 41.6983 52.2684L42.0626 52.0709C42.104 52.049 42.1537 52.0654 42.1758 52.1038C42.1979 52.145 42.1841 52.1943 42.1427 52.2163L41.7784 52.4138C41.7646 52.4193 41.7508 52.4247 41.737 52.4247ZM40.644 52.1258C40.6302 52.1258 40.6164 52.123 40.6054 52.1148L40.241 51.9173C40.1996 51.8954 40.1858 51.846 40.2079 51.8049C40.23 51.7637 40.2797 51.75 40.3211 51.7719L40.6854 51.9694C40.7268 51.9914 40.7406 52.0407 40.7185 52.0819C40.702 52.1093 40.6744 52.1258 40.644 52.1258ZM42.4628 52.0298C42.4325 52.0298 42.4049 52.0133 42.3911 51.9859C42.369 51.9447 42.3828 51.8954 42.4242 51.8734L42.7885 51.6759C42.852 51.643 42.91 51.6046 42.9679 51.5635C43.0038 51.5361 43.0562 51.5443 43.0838 51.5799C43.1114 51.6156 43.1032 51.6677 43.0673 51.6951C43.0038 51.7418 42.9376 51.7829 42.8686 51.8213L42.5042 52.0188C42.4904 52.027 42.4766 52.0298 42.4628 52.0298ZM39.9236 51.7198C39.9071 51.7198 39.8905 51.7143 39.874 51.7034C39.758 51.6183 39.6504 51.5196 39.5593 51.4071C39.529 51.3715 39.5345 51.3194 39.5704 51.2919C39.6062 51.2618 39.6587 51.2673 39.6863 51.3029C39.7691 51.4044 39.8657 51.4922 39.9706 51.569C40.0064 51.5964 40.0147 51.6485 39.9899 51.6842C39.9761 51.7089 39.9512 51.7198 39.9236 51.7198ZM43.3157 51.4318C43.2964 51.4318 43.2798 51.4263 43.2632 51.4126C43.2274 51.3852 43.2218 51.3331 43.2522 51.2974C43.335 51.1959 43.404 51.0862 43.4592 50.9655C43.4785 50.9244 43.5282 50.9052 43.5696 50.9244C43.611 50.9436 43.6303 50.993 43.611 51.0341C43.5503 51.1658 43.473 51.2892 43.3819 51.3989C43.3626 51.4209 43.3405 51.4318 43.3157 51.4318ZM39.4048 51.0917C39.3744 51.0917 39.344 51.0753 39.3302 51.0451C39.2695 50.9134 39.2254 50.7763 39.1978 50.6337C39.1895 50.5898 39.2198 50.5459 39.264 50.5377C39.3082 50.5294 39.3523 50.5596 39.3606 50.6035C39.3854 50.7324 39.4241 50.8558 39.4793 50.9738C39.4986 51.0149 39.4793 51.0643 39.4379 51.0835C39.4268 51.089 39.4158 51.0917 39.4048 51.0917ZM43.6579 50.6913C43.6524 50.6913 43.6469 50.6913 43.6441 50.6913C43.6 50.683 43.5696 50.6391 43.5779 50.5953C43.5944 50.5047 43.6027 50.4142 43.6027 50.3237V50.2003C43.6027 50.1537 43.6386 50.118 43.6855 50.118C43.7324 50.118 43.7683 50.1537 43.7683 50.2003V50.3237C43.7683 50.4252 43.76 50.5267 43.7407 50.6254C43.7324 50.6638 43.6966 50.6913 43.6579 50.6913ZM39.253 50.2908C39.206 50.2908 39.1702 50.2551 39.1702 50.2085V49.7971C39.1702 49.7505 39.206 49.7148 39.253 49.7148C39.2999 49.7148 39.3358 49.7505 39.3358 49.7971V50.2085C39.3358 50.2524 39.2971 50.2908 39.253 50.2908ZM43.6828 49.8711C43.6358 49.8711 43.6 49.8355 43.6 49.7889V49.3774C43.6 49.3308 43.6358 49.2951 43.6828 49.2951C43.7297 49.2951 43.7656 49.3308 43.7656 49.3774V49.7889C43.7656 49.8355 43.7297 49.8711 43.6828 49.8711ZM39.253 49.4679C39.206 49.4679 39.1702 49.4323 39.1702 49.3857V48.9742C39.1702 48.9276 39.206 48.8919 39.253 48.8919C39.2999 48.8919 39.3358 48.9276 39.3358 48.9742V49.3857C39.3358 49.4295 39.2971 49.4679 39.253 49.4679ZM43.6828 49.0483C43.6358 49.0483 43.6 49.0126 43.6 48.966V48.5546C43.6 48.5079 43.6358 48.4723 43.6828 48.4723C43.7297 48.4723 43.7656 48.5079 43.7656 48.5546V48.966C43.7656 49.0126 43.7297 49.0483 43.6828 49.0483ZM39.253 48.6451C39.206 48.6451 39.1702 48.6094 39.1702 48.5628V48.1514C39.1702 48.1047 39.206 48.0691 39.253 48.0691C39.2999 48.0691 39.3358 48.1047 39.3358 48.1514V48.5628C39.3358 48.6067 39.2971 48.6451 39.253 48.6451ZM43.6828 48.2254C43.6358 48.2254 43.6 48.1898 43.6 48.1431V47.7317C43.6 47.6851 43.6358 47.6494 43.6828 47.6494C43.7297 47.6494 43.7656 47.6851 43.7656 47.7317V48.1431C43.7656 48.1898 43.7297 48.2254 43.6828 48.2254ZM39.253 47.8222C39.206 47.8222 39.1702 47.7866 39.1702 47.7399V47.3861H39.3937C39.4406 47.3861 39.4765 47.4218 39.4765 47.4684C39.4765 47.515 39.4406 47.5507 39.3937 47.5507H39.3358V47.7399C39.3358 47.7838 39.2971 47.8222 39.253 47.8222ZM43.5337 47.5507H43.1197C43.0728 47.5507 43.0369 47.515 43.0369 47.4684C43.0369 47.4218 43.0728 47.3861 43.1197 47.3861H43.5337C43.5806 47.3861 43.6165 47.4218 43.6165 47.4684C43.6165 47.515 43.5806 47.5507 43.5337 47.5507ZM42.7057 47.5507H42.2917C42.2448 47.5507 42.2089 47.515 42.2089 47.4684C42.2089 47.4218 42.2448 47.3861 42.2917 47.3861H42.7057C42.7526 47.3861 42.7885 47.4218 42.7885 47.4684C42.7885 47.515 42.7526 47.5507 42.7057 47.5507ZM41.8777 47.5507H41.4637C41.4168 47.5507 41.3809 47.515 41.3809 47.4684C41.3809 47.4218 41.4168 47.3861 41.4637 47.3861H41.8777C41.9246 47.3861 41.9605 47.4218 41.9605 47.4684C41.9605 47.515 41.9246 47.5507 41.8777 47.5507ZM41.0497 47.5507H40.6357C40.5888 47.5507 40.5529 47.515 40.5529 47.4684C40.5529 47.4218 40.5888 47.3861 40.6357 47.3861H41.0497C41.0966 47.3861 41.1325 47.4218 41.1325 47.4684C41.1325 47.515 41.0966 47.5507 41.0497 47.5507ZM40.2217 47.5507H39.8077C39.7608 47.5507 39.7249 47.515 39.7249 47.4684C39.7249 47.4218 39.7608 47.3861 39.8077 47.3861H40.2217C40.2686 47.3861 40.3045 47.4218 40.3045 47.4684C40.3045 47.515 40.2686 47.5507 40.2217 47.5507Z" fill="white"/>
<path d="M33.5618 52.0627C33.5314 52.0627 33.5038 52.0462 33.49 52.0188C33.4679 51.9777 33.4817 51.9283 33.5231 51.9063L33.8598 51.7226C33.8681 51.7171 33.8764 51.7143 33.8847 51.7089C33.9233 51.6869 33.9758 51.7006 33.9978 51.739C34.0199 51.7774 34.0061 51.8295 33.9675 51.8515C33.9592 51.857 33.9509 51.8625 33.9399 51.8652L33.6032 52.049C33.5894 52.0599 33.5756 52.0627 33.5618 52.0627ZM34.26 51.6238C34.238 51.6238 34.2159 51.6156 34.1993 51.5964C34.169 51.5635 34.1717 51.5114 34.2048 51.4812C34.3014 51.3934 34.387 51.2919 34.4615 51.185C34.4864 51.1466 34.5388 51.1383 34.5774 51.163C34.6161 51.1877 34.6244 51.2398 34.5995 51.2782C34.5195 51.3962 34.4229 51.5059 34.318 51.6046C34.2987 51.6183 34.2794 51.6238 34.26 51.6238ZM34.721 50.9491C34.7099 50.9491 34.7016 50.9463 34.6906 50.9436C34.6492 50.9271 34.6271 50.8805 34.6437 50.8366C34.6906 50.7132 34.7237 50.587 34.743 50.4581C34.7486 50.4142 34.7899 50.3813 34.8369 50.3868C34.881 50.3923 34.9142 50.4334 34.9086 50.4801C34.8893 50.6227 34.8534 50.7626 34.801 50.897C34.7844 50.9299 34.7541 50.9491 34.721 50.9491ZM34.8396 50.1427C34.7927 50.1427 34.7568 50.107 34.7568 50.0604V49.649C34.7568 49.6023 34.7927 49.5667 34.8396 49.5667C34.8866 49.5667 34.9224 49.6023 34.9224 49.649V50.0604C34.9224 50.1043 34.8866 50.1427 34.8396 50.1427ZM34.8396 49.3198C34.7927 49.3198 34.7568 49.2842 34.7568 49.2375V48.8261C34.7568 48.7795 34.7927 48.7438 34.8396 48.7438C34.8866 48.7438 34.9224 48.7795 34.9224 48.8261V49.2375C34.9224 49.2814 34.8866 49.3198 34.8396 49.3198ZM34.8396 48.497C34.7927 48.497 34.7568 48.4613 34.7568 48.4147V48.0033C34.7568 47.9566 34.7927 47.921 34.8396 47.921C34.8866 47.921 34.9224 47.9566 34.9224 48.0033V48.4147C34.9224 48.4586 34.8866 48.497 34.8396 48.497ZM34.8396 47.6741C34.7927 47.6741 34.7568 47.6385 34.7568 47.5918V47.5507H34.5498C34.5029 47.5507 34.467 47.515 34.467 47.4684C34.467 47.4218 34.5029 47.3861 34.5498 47.3861H34.9224V47.5918C34.9224 47.6357 34.8866 47.6741 34.8396 47.6741ZM34.1358 47.5507H33.7218C33.6749 47.5507 33.639 47.515 33.639 47.4684C33.639 47.4218 33.6749 47.3861 33.7218 47.3861H34.1358C34.1828 47.3861 34.2186 47.4218 34.2186 47.4684C34.2186 47.515 34.18 47.5507 34.1358 47.5507ZM33.3078 47.5507H32.8938C32.8469 47.5507 32.811 47.515 32.811 47.4684C32.811 47.4218 32.8469 47.3861 32.8938 47.3861H33.3078C33.3548 47.3861 33.3906 47.4218 33.3906 47.4684C33.3906 47.515 33.352 47.5507 33.3078 47.5507ZM32.4798 47.5507H32.0658C32.0189 47.5507 31.983 47.515 31.983 47.4684C31.983 47.4218 32.0189 47.3861 32.0658 47.3861H32.4798C32.5268 47.3861 32.5626 47.4218 32.5626 47.4684C32.5626 47.515 32.524 47.5507 32.4798 47.5507Z" fill="white"/>
<path d="M52.7962 34.958C52.9977 35.4819 51.7226 36.4118 49.97 37.0728C48.2174 37.7338 46.6469 37.8353 46.4455 37.3087C46.244 36.782 47.4887 35.833 49.2441 35.172C50.9994 34.511 52.5947 34.4314 52.7962 34.958Z" fill="#FE5244"/>
<path d="M53.776 51.9747V52.2655C53.685 52.2435 53.5883 52.2326 53.4917 52.2326H53.1357C52.6085 52.2326 52.1587 51.8979 51.9875 51.4316L52.9977 51.2972C53.4089 51.2424 53.776 51.5606 53.776 51.9747Z" fill="#73325A"/>
<path d="M54.709 53.4423V55.675C54.709 56.1961 54.2839 56.6185 53.7595 56.6185H52.7024C52.4402 56.6185 52.2029 56.5143 52.0317 56.3415C51.8606 56.1714 51.753 55.9355 51.753 55.675H52.4402C52.6666 55.675 52.8487 55.4939 52.8487 55.269V54.6848C52.8487 54.4599 52.6666 54.2789 52.4402 54.2789H48.9267C47.555 54.2789 46.4427 53.1735 46.4427 51.8103V37.0592C46.6083 36.5189 47.7372 35.7371 49.2414 35.1721C50.2681 34.7854 51.2424 34.5989 51.9131 34.6153V51.0231C51.9131 51.6923 52.4596 52.2354 53.133 52.2354H53.489C54.1625 52.2327 54.709 52.773 54.709 53.4423Z" fill="#A0505A"/>
<path d="M51.9131 34.6124V36.1045C51.4135 36.4391 50.7373 36.782 49.9673 37.07C48.2119 37.731 46.6442 37.8325 46.4427 37.3059V37.0563C46.6083 36.5159 47.7372 35.7342 49.2414 35.1692C50.2709 34.7824 51.2424 34.5959 51.9131 34.6124Z" fill="#73325A"/>
<path d="M47.3229 23.501L46.2852 26.1588L40.9363 27.1106L42.3328 23.501H47.3229Z" fill="#A0505A"/>
<path d="M47.323 23.5011L46.7627 24.9384L41.458 25.7612L42.3329 23.5011H47.323Z" fill="#73325A"/>
<path d="M50.4583 18.0922C50.4583 18.4515 49.8318 18.8492 49.1086 19.1838C48.1233 19.6419 46.9614 19.9902 46.9614 19.9902L46.1775 21.4577C47.2429 22.02 47.6596 23.0293 47.8252 23.7342C47.9301 24.1841 47.9301 24.505 47.9301 24.505H40.4174C40.4174 24.505 38.444 18.1525 43.1995 16.633C46.1085 15.7032 50.4583 17.2392 50.4583 18.0922Z" fill="white" stroke="#FFCF2D" stroke-width="0.242229" stroke-miterlimit="10" stroke-linecap="round"/>
<path d="M42.5039 17.5381C43.5359 17.5381 44.3724 16.7067 44.3724 15.6812C44.3724 14.6556 43.5359 13.8243 42.5039 13.8243C41.4719 13.8243 40.6354 14.6556 40.6354 15.6812C40.6354 16.7067 41.4719 17.5381 42.5039 17.5381Z" fill="white" stroke="#FFCF2D" stroke-width="0.242229" stroke-miterlimit="10" stroke-linecap="round"/>
<path d="M47.8224 23.7342C47.6678 23.0677 47.2814 22.1186 46.3292 21.5454H46.0836C45.8573 21.5454 45.6503 21.4549 45.5012 21.3067C45.3522 21.1586 45.2611 20.9529 45.2611 20.728C45.2611 20.2754 45.6282 19.9106 46.0836 19.9106L47.1241 19.9326H47.1517C47.171 19.9271 47.1903 19.9189 47.2124 19.9134C47.4939 19.853 48.3854 19.6391 49.1251 19.2715L49.2107 19.779L49.4867 21.4055C49.6743 22.5218 48.9043 23.5504 47.8224 23.7342Z" fill="#A0505A"/>
<path d="M49.208 19.7762C48.3027 20.141 47.1215 19.9298 47.1215 19.9298C47.1215 19.9298 48.2337 19.7104 49.1225 19.2688L49.208 19.7762Z" fill="#73325A"/>
<path d="M46.724 20.8843C46.724 20.5716 46.47 20.3193 46.1554 20.3193" stroke="#73325A" stroke-width="0.201857" stroke-miterlimit="10" stroke-linecap="round"/>
<path d="M49.647 55.6748L52.8513 82.1763" stroke="#66B0F0" stroke-width="0.242229" stroke-miterlimit="10"/>
<path d="M35.7559 55.6748L32.5543 82.1763" stroke="#66B0F0" stroke-width="0.242229" stroke-miterlimit="10"/>
<path d="M33.6527 73.0754H51.75" stroke="#66B0F0" stroke-width="0.242229" stroke-miterlimit="10"/>
<path d="M32.971 55.6747H52.4318C52.6636 55.6747 52.8513 55.4882 52.8513 55.2578V54.6927C52.8513 54.4623 52.6636 54.2758 52.4318 54.2758H32.971C32.7392 54.2758 32.5515 54.4623 32.5515 54.6927V55.2578C32.5543 55.4882 32.742 55.6747 32.971 55.6747Z" fill="white" stroke="#FFCF2D" stroke-width="0.242229" stroke-miterlimit="10"/>
</svg>
