<svg width="15" height="15" viewBox="0 0 15 15" fill="none" xmlns="http://www.w3.org/2000/svg">
<path d="M10.6075 3.90691C10.464 3.82706 10.3062 3.77629 10.1431 3.75749C9.97993 3.73868 9.8147 3.75222 9.65681 3.79732C9.49892 3.84242 9.35148 3.91821 9.2229 4.02034C9.09432 4.12247 8.98714 4.24895 8.90748 4.39253L6.58685 8.56878L5.25873 7.24066C5.14342 7.12127 5.00549 7.02604 4.85299 6.96053C4.70048 6.89502 4.53646 6.86054 4.37048 6.85909C4.20451 6.85765 4.03991 6.88928 3.88629 6.95213C3.73267 7.01498 3.5931 7.1078 3.47574 7.22516C3.35837 7.34253 3.26555 7.48209 3.2027 7.63571C3.13985 7.78933 3.10822 7.95393 3.10967 8.11991C3.11111 8.28588 3.14559 8.44991 3.2111 8.60241C3.27661 8.75492 3.37184 8.89285 3.49123 9.00816L5.99123 11.5082C6.22748 11.745 6.54623 11.875 6.87498 11.875L7.0481 11.8625C7.2397 11.8357 7.42246 11.7648 7.58199 11.6554C7.74153 11.546 7.87349 11.401 7.96748 11.2319L11.0925 5.60691C11.1723 5.46344 11.223 5.30566 11.2418 5.14258C11.2606 4.9795 11.2471 4.81432 11.2021 4.65645C11.157 4.49859 11.0814 4.35115 10.9793 4.22254C10.8773 4.09393 10.751 3.98668 10.6075 3.90691Z" fill="#F8F8F8"/>
</svg>
